<svg width="208" height="200" viewBox="0 0 208 200" fill="none" xmlns="http://www.w3.org/2000/svg">
<path d="M165.25 48.3203V178.51C165.25 188.76 156.939 197.08 146.679 197.08H26.5596" stroke="#962EFF" stroke-width="5" stroke-miterlimit="10" stroke-linecap="round"/>
<path d="M26.5693 142.8V21.2205C26.5693 10.9705 34.8792 2.65039 45.1392 2.65039H184.989" stroke="#962EFF" stroke-width="5" stroke-miterlimit="10" stroke-linecap="round"/>
<path d="M168.06 2.66016H201.91C203.46 2.66016 204.72 3.92021 204.72 5.47021V48.3201H165.25V5.47021C165.25 3.92021 166.51 2.66016 168.06 2.66016Z" stroke="#962EFF" stroke-width="5" stroke-miterlimit="10" stroke-linecap="round"/>
<path d="M141.76 197.101H26.5496C13.5996 197.101 3.09961 186.541 3.09961 173.591V150.061H118.31V173.591C118.31 180.091 120.919 185.931 125.199 190.211C129.429 194.431 135.26 197.101 141.76 197.101Z" stroke="#962EFF" stroke-width="5" stroke-miterlimit="10" stroke-linecap="round"/>
<path d="M51.8398 40.1104H109.82" stroke="#962EFF" stroke-width="5" stroke-miterlimit="10" stroke-linecap="round"/>
<path d="M51.8398 61.2002H139.1" stroke="#962EFF" stroke-width="5" stroke-miterlimit="10" stroke-linecap="round"/>
<path d="M51.8398 83.1602H139.1" stroke="#962EFF" stroke-width="5" stroke-miterlimit="10" stroke-linecap="round"/>
<path d="M51.8398 105.63H139.1" stroke="#962EFF" stroke-width="5" stroke-miterlimit="10" stroke-linecap="round"/>
</svg>
