<svg width="292" height="309" viewBox="0 0 292 309" fill="none" xmlns="http://www.w3.org/2000/svg">
<path d="M206.63 191.54L208.14 120.33L147.23 83.4199L84.8098 117.71L83.2998 188.92L144.21 225.84L206.63 191.54Z" stroke="#962EFF" stroke-width="5" stroke-miterlimit="10" stroke-linecap="round"/>
<path d="M145.72 32.4102V3.18018" stroke="#962EFF" stroke-width="5" stroke-miterlimit="10" stroke-linecap="round"/>
<path d="M145.72 306.07V276.84" stroke="#962EFF" stroke-width="5" stroke-miterlimit="10" stroke-linecap="round"/>
<path d="M74.6003 55.5198L57.4102 31.8799" stroke="#962EFF" stroke-width="5" stroke-miterlimit="10" stroke-linecap="round"/>
<path d="M30.6396 116.03L2.83984 106.99" stroke="#962EFF" stroke-width="5" stroke-miterlimit="10" stroke-linecap="round"/>
<path d="M30.6396 190.81L2.83984 199.84" stroke="#962EFF" stroke-width="5" stroke-miterlimit="10" stroke-linecap="round"/>
<path d="M74.6003 251.31L57.4102 274.96" stroke="#962EFF" stroke-width="5" stroke-miterlimit="10" stroke-linecap="round"/>
<path d="M216.84 251.31L234.03 274.96" stroke="#962EFF" stroke-width="5" stroke-miterlimit="10" stroke-linecap="round"/>
<path d="M260.8 190.81L288.6 199.84" stroke="#962EFF" stroke-width="5" stroke-miterlimit="10" stroke-linecap="round"/>
<path d="M260.8 116.03L288.6 106.99" stroke="#962EFF" stroke-width="5" stroke-miterlimit="10" stroke-linecap="round"/>
<path d="M216.84 55.5198L234.03 31.8799" stroke="#962EFF" stroke-width="5" stroke-miterlimit="10" stroke-linecap="round"/>
<path d="M178.489 54.7703L186.279 30.9902" stroke="#962EFF" stroke-width="5" stroke-miterlimit="10" stroke-linecap="round"/>
<path d="M105.6 277.34L113.389 253.57" stroke="#962EFF" stroke-width="5" stroke-miterlimit="10" stroke-linecap="round"/>
<path d="M114.489 54.6201L106.819 30.8101" stroke="#962EFF" stroke-width="5" stroke-miterlimit="10" stroke-linecap="round"/>
<path d="M62.6201 92.1201L42.4199 77.3701" stroke="#962EFF" stroke-width="5" stroke-miterlimit="10" stroke-linecap="round"/>
<path d="M42.6995 152.94L17.6895 152.89" stroke="#962EFF" stroke-width="5" stroke-miterlimit="10" stroke-linecap="round"/>
<path d="M62.3394 213.86L42.0693 228.52" stroke="#962EFF" stroke-width="5" stroke-miterlimit="10" stroke-linecap="round"/>
<path d="M178.039 251.75L185.709 275.56" stroke="#962EFF" stroke-width="5" stroke-miterlimit="10" stroke-linecap="round"/>
<path d="M229.899 214.25L250.11 229" stroke="#962EFF" stroke-width="5" stroke-miterlimit="10" stroke-linecap="round"/>
<path d="M249.819 153.42L274.839 153.48" stroke="#962EFF" stroke-width="5" stroke-miterlimit="10" stroke-linecap="round"/>
<path d="M230.189 92.51L250.459 77.8501" stroke="#962EFF" stroke-width="5" stroke-miterlimit="10" stroke-linecap="round"/>
</svg>
