<svg width="313" height="313" viewBox="0 0 313 313" fill="none" xmlns="http://www.w3.org/2000/svg">
<g filter="url(#filter0_d_61_1167)">
<path d="M154.02 302.04C235.769 302.04 302.04 235.769 302.04 154.02C302.04 72.2708 235.769 6 154.02 6C72.2708 6 6 72.2708 6 154.02C6 235.769 72.2708 302.04 154.02 302.04Z" fill="#962EFF"/>
</g>
<g opacity="0.75" filter="url(#filter1_d_61_1167)">
<path d="M154.02 267.13C216.489 267.13 267.13 216.489 267.13 154.02C267.13 91.5513 216.489 40.9102 154.02 40.9102C91.5513 40.9102 40.9102 91.5513 40.9102 154.02C40.9102 216.489 91.5513 267.13 154.02 267.13Z" fill="white"/>
</g>
<path d="M154.02 87.21V152.14" stroke="#962EFF" stroke-width="6" stroke-miterlimit="10"/>
<path d="M128.88 92.5098C104.55 102.43 87.3799 126.27 87.3799 154.17C87.3799 190.98 117.22 220.82 154.03 220.82C190.84 220.82 220.68 190.98 220.68 154.17C220.68 126.27 203.51 102.43 179.18 92.5098" stroke="#962EFF" stroke-width="6" stroke-miterlimit="10"/>
<defs>
<filter id="filter0_d_61_1167" x="0" y="0" width="312.04" height="312.04" filterUnits="userSpaceOnUse" color-interpolation-filters="sRGB">
<feFlood flood-opacity="0" result="BackgroundImageFix"/>
<feColorMatrix in="SourceAlpha" type="matrix" values="0 0 0 0 0 0 0 0 0 0 0 0 0 0 0 0 0 0 127 0" result="hardAlpha"/>
<feOffset dx="2" dy="2"/>
<feGaussianBlur stdDeviation="4"/>
<feColorMatrix type="matrix" values="0 0 0 0 0 0 0 0 0 0 0 0 0 0 0 0 0 0 0.25 0"/>
<feBlend mode="normal" in2="BackgroundImageFix" result="effect1_dropShadow_61_1167"/>
<feBlend mode="normal" in="SourceGraphic" in2="effect1_dropShadow_61_1167" result="shape"/>
</filter>
<filter id="filter1_d_61_1167" x="34.9102" y="34.9102" width="242.22" height="242.22" filterUnits="userSpaceOnUse" color-interpolation-filters="sRGB">
<feFlood flood-opacity="0" result="BackgroundImageFix"/>
<feColorMatrix in="SourceAlpha" type="matrix" values="0 0 0 0 0 0 0 0 0 0 0 0 0 0 0 0 0 0 127 0" result="hardAlpha"/>
<feOffset dx="2" dy="2"/>
<feGaussianBlur stdDeviation="4"/>
<feColorMatrix type="matrix" values="0 0 0 0 0 0 0 0 0 0 0 0 0 0 0 0 0 0 0.25 0"/>
<feBlend mode="normal" in2="BackgroundImageFix" result="effect1_dropShadow_61_1167"/>
<feBlend mode="normal" in="SourceGraphic" in2="effect1_dropShadow_61_1167" result="shape"/>
</filter>
</defs>
</svg>
