<svg width="3603" height="1733" viewBox="0 0 3603 1733" fill="none" xmlns="http://www.w3.org/2000/svg">
<mask id="mask0_61_1159" style="mask-type:luminance" maskUnits="userSpaceOnUse" x="686" y="764" width="2391" height="969">
<path d="M3076.54 764.062H686.504V1732.45H3076.54V764.062Z" fill="white"/>
</mask>
<g mask="url(#mask0_61_1159)">
<path opacity="0.5" d="M1880.92 426.592C1880.92 1086.22 1381.98 1620.96 766.504 1620.96V1732.45H2996.55V1620.96C2381.07 1620.96 1882.13 1086.22 1882.13 426.592" fill="white"/>
<path opacity="0.5" d="M2504.3 1732.45H1258.75C1633.11 1519.67 1880.79 1149.83 1880.79 729.241H1882.25C1882.25 1149.83 2129.94 1519.67 2504.29 1732.45H2504.3Z" fill="white"/>
<path opacity="0.5" d="M2148.32 1732.45H1614.71C1782.67 1542.09 1880.67 1312.75 1880.67 1065.9H1882.35C1882.35 1312.75 1980.35 1542.09 2148.31 1732.45H2148.32Z" fill="white"/>
</g>
<path opacity="0.5" d="M1255.85 1033.29C1258.09 1022.41 1258.74 1011.01 1257.52 999.372C1251.15 938.482 1196.63 894.282 1135.74 900.652C1117.88 902.522 1101.47 908.552 1087.33 917.662C1058.45 839.632 979.554 787.962 892.994 797.012C833.724 803.212 783.904 836.542 754.454 883.352C687.374 824.032 596.614 791.922 500.534 801.972C344.714 818.262 225.484 940.112 206.414 1089.05C73.2736 1143.14 -13.8764 1280.27 1.82356 1430.36C20.8436 1612.3 183.754 1744.36 365.694 1725.34C521.514 1709.05 640.744 1587.2 659.814 1438.26C687.804 1426.89 713.754 1411.85 737.154 1393.78C780.124 1443.08 845.594 1471.43 915.584 1464.11C925.774 1463.04 935.694 1461.23 945.334 1458.78C989.744 1608.85 1136.04 1710.71 1297.31 1693.85C1479.25 1674.83 1611.31 1511.92 1592.29 1329.98C1574.23 1157.24 1426.46 1029.48 1255.86 1033.28L1255.85 1033.29ZM1066.82 1087.14C1068.77 1089.19 1070.78 1091.17 1072.88 1093.07C1063.25 1099.83 1054 1107.07 1045.18 1114.77C1044.98 1114.56 1044.78 1114.36 1044.58 1114.15C1052.82 1105.86 1060.26 1096.81 1066.82 1087.14Z" fill="white"/>
<path d="M1963.56 385.512C1963.56 516.862 1949.73 632.782 1928.67 701.772H1838.39C1828.93 670.762 1820.9 630.302 1814.97 583.192C1809.23 537.792 1805.42 486.252 1804.08 431.122C1803.69 416.162 1803.5 400.942 1803.5 385.512C1803.5 173.982 1883.53 2.50195 1883.53 2.50195C1883.53 2.50195 1963.56 173.982 1963.56 385.512Z" stroke="white" stroke-miterlimit="10"/>
<path d="M1928.67 701.772C1922.87 720.752 1916.53 736.192 1909.77 747.422H1857.29C1850.53 736.182 1844.19 720.752 1838.39 701.772H1928.67Z" stroke="white" stroke-miterlimit="10"/>
<path d="M1740.88 653.312L1767.93 851.662L1691.31 642.032L1804.06 431.082L1804.08 431.122C1805.43 486.262 1809.24 537.792 1814.97 583.192L1740.87 653.312H1740.88Z" fill="white" stroke="white" stroke-linejoin="round"/>
<path d="M2026.22 653.312L1999.17 851.662L2075.79 642.032L1963.04 431.082L1963.02 431.122C1961.67 486.262 1957.86 537.792 1952.13 583.192L2026.23 653.312H2026.22Z" fill="white" stroke="white" stroke-linejoin="round"/>
<path d="M1932.97 385.512C1932.97 516.862 1924.43 632.782 1911.42 701.772H1855.64C1849.8 670.762 1844.84 630.302 1841.17 583.192C1837.63 537.792 1835.27 486.252 1834.44 431.122C1834.2 416.162 1834.08 400.942 1834.08 385.512C1834.08 173.982 1883.52 2.50195 1883.52 2.50195C1883.52 2.50195 1932.96 173.982 1932.96 385.512H1932.97Z" stroke="white" stroke-miterlimit="10"/>
<path d="M1839.35 704.872C1868.61 703.502 1897.94 703.492 1927.2 704.872C1897.94 706.252 1868.61 706.242 1839.35 704.872Z" fill="white"/>
<path d="M1839.35 701.772C1853.74 700.172 1868.79 699.872 1883.27 699.772C1897.77 699.862 1912.79 700.162 1927.19 701.772C1912.8 703.382 1897.75 703.682 1883.27 703.772C1868.77 703.672 1853.75 703.372 1839.35 701.772Z" fill="white"/>
<path d="M1925.08 708.852C1897.23 710.222 1869.32 710.232 1841.47 708.852C1869.32 707.472 1897.23 707.482 1925.08 708.852Z" fill="white"/>
<path d="M1924.59 712.832C1897.07 714.202 1869.49 714.212 1841.98 712.832C1869.5 711.452 1897.08 711.462 1924.59 712.832Z" fill="white"/>
<path d="M1923.19 716.812C1896.61 718.182 1869.96 718.192 1843.37 716.812C1869.95 715.432 1896.6 715.442 1923.19 716.812Z" fill="white"/>
<path d="M1921.31 720.802C1895.98 722.172 1870.57 722.182 1845.24 720.802C1870.57 719.422 1895.97 719.432 1921.31 720.802Z" fill="white"/>
<path d="M1920.18 724.782C1895.6 726.152 1870.95 726.162 1846.38 724.782C1870.96 723.402 1895.61 723.412 1920.18 724.782Z" fill="white"/>
<path d="M1918.55 728.762C1895.06 730.132 1871.49 730.142 1848 728.762C1871.49 727.382 1895.06 727.392 1918.55 728.762Z" fill="white"/>
<path d="M1916.31 732.742C1894.32 734.112 1872.25 734.122 1850.25 732.742C1872.24 731.362 1894.31 731.372 1916.31 732.742Z" fill="white"/>
<path d="M1914.24 736.722C1893.63 738.092 1872.94 738.102 1852.33 736.722C1872.94 735.342 1893.63 735.352 1914.24 736.722Z" fill="white"/>
<path d="M1913 740.712C1893.21 742.082 1873.34 742.092 1853.55 740.712C1873.34 739.332 1893.21 739.342 1913 740.712Z" fill="white"/>
<path d="M1910.85 744.692C1892.5 746.062 1874.05 746.072 1855.7 744.692C1874.05 743.312 1892.5 743.322 1910.85 744.692Z" fill="white"/>
<path d="M1897.01 612.302C1897.01 744.492 1883.55 851.652 1883.55 851.652C1883.55 851.652 1870.09 744.492 1870.09 612.302C1870.09 480.112 1883.55 372.952 1883.55 372.952C1883.55 372.952 1897.01 480.112 1897.01 612.302Z" fill="white" stroke="white" stroke-miterlimit="10"/>
<path d="M1837.74 284.832L1809.42 283.832L1837.74 282.832V284.832Z" fill="white"/>
<path d="M1837.74 281.282L1809.42 280.282L1837.74 279.282V281.282Z" fill="white"/>
<path d="M1837.74 277.722L1809.42 276.722L1837.74 275.722V277.722Z" fill="white"/>
<path d="M1837.74 274.172L1809.42 273.172L1837.74 272.172V274.172Z" fill="white"/>
<path d="M1838.58 270.622L1809.42 269.622L1838.58 268.622V270.622Z" fill="white"/>
<path d="M1839.1 267.072L1811.61 266.072L1839.1 265.072V267.072Z" fill="white"/>
<path d="M1839.35 263.522L1811.5 262.522L1839.35 261.522V263.522Z" fill="white"/>
<path d="M1839.35 259.972L1813.09 258.972L1839.35 257.972V259.972Z" fill="white"/>
<path d="M1840.01 256.412L1813.09 255.412L1840.01 254.412V256.412Z" fill="white"/>
<path d="M1840.01 252.862L1813.6 251.862L1840.01 250.862V252.862Z" fill="white"/>
<path d="M1840.01 249.312L1814.14 248.312L1840.01 247.312V249.312Z" fill="white"/>
<path d="M1840.59 245.762L1814.54 244.762L1840.59 243.762V245.762Z" fill="white"/>
<path d="M1841.34 242.212L1815.24 241.212L1841.34 240.212V242.212Z" fill="white"/>
<path d="M1841.34 238.662L1815.81 237.662L1841.34 236.662V238.662Z" fill="white"/>
<path d="M1841.99 235.102L1815.81 234.102L1841.99 233.102V235.102Z" fill="white"/>
<path d="M1841.75 231.552L1816.99 230.552L1841.75 229.552V231.552Z" fill="white"/>
<path d="M1842.74 228.002L1817.6 227.002L1842.74 226.002V228.002Z" fill="white"/>
<path d="M1842.74 224.452L1818.22 223.452L1842.74 222.452V224.452Z" fill="white"/>
<path d="M1842.74 220.902L1818.86 219.902L1842.74 218.902V220.902Z" fill="white"/>
<path d="M1843.53 217.352L1819.5 216.352L1843.53 215.352V217.352Z" fill="white"/>
<path d="M1843.95 213.802L1820.04 212.802L1843.95 211.802V213.802Z" fill="white"/>
<path d="M1844.84 210.242L1820.84 209.242L1844.84 208.242V210.242Z" fill="white"/>
<path d="M1844.84 206.692L1821.6 205.692L1844.84 204.692V206.692Z" fill="white"/>
<path d="M1845.56 203.142L1821.6 202.142L1845.56 201.142V203.142Z" fill="white"/>
<path d="M1845.56 199.592L1822.8 198.592L1845.56 197.592V199.592Z" fill="white"/>
<path d="M1846.6 196.042L1823.58 195.042L1846.6 194.042V196.042Z" fill="white"/>
<path d="M1847 192.492L1824.4 191.492L1847 190.492V192.492Z" fill="white"/>
<path d="M1847.3 188.932L1825.01 187.932L1847.3 186.932V188.932Z" fill="white"/>
<path d="M1847.3 185.382L1825.92 184.382L1847.3 183.382V185.382Z" fill="white"/>
<path d="M1848.28 181.832L1826.69 180.832L1848.28 179.832V181.832Z" fill="white"/>
<path d="M1848.28 178.282L1827.48 177.282L1848.28 176.282V178.282Z" fill="white"/>
<path d="M1849.03 174.732L1828.28 173.732L1849.03 172.732V174.732Z" fill="white"/>
<path d="M1849.9 171.182L1828.87 170.182L1849.9 169.182V171.182Z" fill="white"/>
<path d="M1849.9 167.622L1829.79 166.622L1849.9 165.622V167.622Z" fill="white"/>
<path d="M1850.97 164.072L1830.54 163.072L1850.97 162.072V164.072Z" fill="white"/>
<path d="M1850.78 160.522L1831.23 159.522L1850.78 158.522V160.522Z" fill="white"/>
<path d="M1851.81 156.972L1832.49 155.972L1851.81 154.972V156.972Z" fill="white"/>
<path d="M1852.17 153.422L1833.37 152.422L1852.17 151.422V153.422Z" fill="white"/>
<path d="M1853.32 149.872L1834.09 148.872L1853.32 147.872V149.872Z" fill="white"/>
<path d="M1853.49 146.322L1835.17 145.322L1853.49 144.322V146.322Z" fill="white"/>
<path d="M1853.88 142.762L1836.08 141.762L1853.88 140.762V142.762Z" fill="white"/>
<path d="M1855.1 139.212L1837.02 138.212L1855.1 137.212V139.212Z" fill="white"/>
<path d="M1855.6 135.662L1837.96 134.662L1855.6 133.662V135.662Z" fill="white"/>
<path d="M1856.03 132.112L1838.92 131.112L1856.03 130.112V132.112Z" fill="white"/>
<path d="M1856.01 128.562L1839.89 127.562L1856.01 126.562V128.562Z" fill="white"/>
<path d="M1857.24 125.012L1840.87 124.012L1857.24 123.012V125.012Z" fill="white"/>
<path d="M1857.79 121.452L1841.7 120.452L1857.79 119.452V121.452Z" fill="white"/>
<path d="M1858.61 117.902L1842.88 116.902L1858.61 115.902V117.902Z" fill="white"/>
<path d="M1858.97 114.352L1843.9 113.352L1858.97 112.352V114.352Z" fill="white"/>
<path d="M1859.7 110.802L1844.94 109.802L1859.7 108.802V110.802Z" fill="white"/>
<path d="M1860.23 107.252L1845.99 106.252L1860.23 105.252V107.252Z" fill="white"/>
<path d="M1860.98 103.702L1847.05 102.702L1860.98 101.702V103.702Z" fill="white"/>
<path d="M1861.77 100.142L1847.7 99.1421L1861.77 98.1421V100.142Z" fill="white"/>
<path d="M1862.02 96.592L1848.92 95.592L1862.02 94.592V96.592Z" fill="white"/>
<path d="M1862.69 93.042L1850.33 92.042L1862.69 91.042V93.042Z" fill="white"/>
<path d="M1863.73 89.4919L1851.28 88.4919L1863.73 87.4919V89.4919Z" fill="white"/>
<path d="M1864 85.9419L1852.38 84.9419L1864 83.9419V85.9419Z" fill="white"/>
<path d="M1865.39 82.3921L1853.71 81.3921L1865.39 80.3921V82.3921Z" fill="white"/>
<path d="M1865.86 78.832L1854.89 77.832L1865.86 76.832V78.832Z" fill="white"/>
<path d="M1866.2 75.282L1856.06 74.282L1866.2 73.282V75.282Z" fill="white"/>
<path d="M1866.9 71.7319L1857.56 70.7319L1866.9 69.7319V71.7319Z" fill="white"/>
<path d="M1867.44 68.1819L1858.46 67.1819L1867.44 66.1819V68.1819Z" fill="white"/>
<path d="M1868.72 64.6321L1859.44 63.6321L1868.72 62.6321V64.6321Z" fill="white"/>
<path d="M1869.41 61.082L1860.53 60.082L1869.41 59.082V61.082Z" fill="white"/>
<path d="M1869.64 57.532L1862.09 56.532L1869.64 55.532V57.532Z" fill="white"/>
<path d="M1871.11 53.9719L1863.19 52.9719L1871.11 51.9719V53.9719Z" fill="white"/>
<path d="M1871.86 50.4221L1864.97 49.4221L1871.86 48.4221V50.4221Z" fill="white"/>
<path d="M1872.71 46.8721L1865.87 45.8721L1872.71 44.8721V46.8721Z" fill="white"/>
<path d="M1873.24 43.322L1867.44 42.322L1873.24 41.322V43.322Z" fill="white"/>
<path d="M1874.35 39.772L1868.72 38.772L1874.35 37.772V39.772Z" fill="white"/>
<path d="M1874.96 36.2219L1869.88 35.2219L1874.96 34.2219V36.2219Z" fill="white"/>
<path d="M1875.94 32.6621L1871.11 31.6621L1875.94 30.6621V32.6621Z" fill="white"/>
<path d="M1877.16 29.1121L1872.71 28.1121L1877.16 27.1121V29.1121Z" fill="white"/>
<path d="M1877.2 25.562L1873.68 24.562L1877.2 23.562V25.562Z" fill="white"/>
<path d="M1878.66 22.012L1875.44 21.012L1878.66 20.012V22.012Z" fill="white"/>
<path d="M1879.07 18.4619L1876.56 17.4619L1879.07 16.4619V18.4619Z" fill="white"/>
<path d="M1880.06 14.9121L1877.91 13.9121L1880.06 12.9121V14.9121Z" fill="white"/>
<path d="M1881.09 11.3521L1879.64 10.3521L1881.09 9.35205V11.3521Z" fill="white"/>
<path d="M1837.74 288.242L1809.42 287.242L1837.74 286.242V288.242Z" fill="white"/>
<path d="M1837.74 291.662L1809.42 290.662L1837.74 289.662V291.662Z" fill="white"/>
<path d="M1836.9 295.072L1808.58 294.072L1836.9 293.072V295.072Z" fill="white"/>
<path d="M1836.63 298.492L1807.96 297.492L1836.63 296.492V298.492Z" fill="white"/>
<path d="M1836.63 301.902L1807.96 300.902L1836.63 299.902V301.902Z" fill="white"/>
<path d="M1836.44 305.322L1807.3 304.322L1836.44 303.322V305.322Z" fill="white"/>
<path d="M1836.25 308.732L1806.99 307.732L1836.25 306.732V308.732Z" fill="white"/>
<path d="M1836.06 312.152L1806.85 311.152L1836.06 310.152V312.152Z" fill="white"/>
<path d="M1835.41 315.562L1806.51 314.562L1835.41 313.562V315.562Z" fill="white"/>
<path d="M1835.41 318.982L1806.15 317.982L1835.41 316.982V318.982Z" fill="white"/>
<path d="M1835.41 322.392L1805.89 321.392L1835.41 320.392V322.392Z" fill="white"/>
<path d="M1835.41 325.812L1805.89 324.812L1835.41 323.812V325.812Z" fill="white"/>
<path d="M1835.27 329.222L1805.55 328.222L1835.27 327.222V329.222Z" fill="white"/>
<path d="M1835.13 332.642L1805.17 331.642L1835.13 330.642V332.642Z" fill="white"/>
<path d="M1835.01 336.052L1804.96 335.052L1835.01 334.052V336.052Z" fill="white"/>
<path d="M1834.89 339.472L1804.78 338.472L1834.89 337.472V339.472Z" fill="white"/>
<path d="M1834.67 342.882L1804.59 341.882L1834.67 340.882V342.882Z" fill="white"/>
<path d="M1834.67 346.302L1804.59 345.302L1834.67 344.302V346.302Z" fill="white"/>
<path d="M1834.19 349.712L1804.3 348.712L1834.19 347.712V349.712Z" fill="white"/>
<path d="M1834.22 353.132L1804.16 352.132L1834.22 351.132V353.132Z" fill="white"/>
<path d="M1834.09 356.552L1804.59 355.552L1834.09 354.552V356.552Z" fill="white"/>
<path d="M1834.49 359.962L1803.92 358.962L1834.49 357.962V359.962Z" fill="white"/>
<path d="M1834.49 363.382L1803.82 362.382L1834.49 361.382V363.382Z" fill="white"/>
<path d="M1834.45 366.792L1803.72 365.792L1834.45 364.792V366.792Z" fill="white"/>
<path d="M1834.45 370.212L1803.72 369.212L1834.45 368.212V370.212Z" fill="white"/>
<path d="M1834.22 373.622L1803.5 372.622L1834.22 371.622V373.622Z" fill="white"/>
<path d="M1834.19 377.042L1803.56 376.042L1834.19 375.042V377.042Z" fill="white"/>
<path d="M1834.22 380.452L1803.5 379.452L1834.22 378.452V380.452Z" fill="white"/>
<path d="M1834.09 383.872L1803.5 382.872L1834.09 381.872V383.872Z" fill="white"/>
<path d="M1834.09 387.282L1803.5 386.282L1834.09 385.282V387.282Z" fill="white"/>
<path d="M1834.09 390.702L1803.5 389.702L1834.09 388.702V390.702Z" fill="white"/>
<path d="M1834.09 394.112L1803.72 393.112L1834.09 392.112V394.112Z" fill="white"/>
<path d="M1834.22 397.532L1803.78 396.532L1834.22 395.532V397.532Z" fill="white"/>
<path d="M1834.19 400.942L1804.08 399.942L1834.19 398.942V400.942Z" fill="white"/>
<path d="M1834.09 404.362L1803.5 403.362L1834.09 402.362V404.362Z" fill="white"/>
<path d="M1834.09 407.772L1803.78 406.772L1834.09 405.772V407.772Z" fill="white"/>
<path d="M1834.19 411.192L1803.78 410.192L1834.19 409.192V411.192Z" fill="white"/>
<path d="M1834.22 414.602L1803.72 413.602L1834.22 412.602V414.602Z" fill="white"/>
<path d="M1834.45 418.022L1803.78 417.022L1834.45 416.022V418.022Z" fill="white"/>
<path d="M1834.09 421.432L1804.08 420.432L1834.09 419.432V421.432Z" fill="white"/>
<path d="M1834.49 424.852L1804.08 423.852L1834.49 422.852V424.852Z" fill="white"/>
<path d="M1834.09 428.262L1804.59 427.262L1834.09 426.262V428.262Z" fill="white"/>
<path d="M1834.45 431.682L1804.08 430.682L1834.45 429.682V431.682Z" fill="white"/>
<path d="M1834.49 435.092L1804.25 434.092L1834.49 433.092V435.092Z" fill="white"/>
<path d="M1834.09 438.512L1804.25 437.512L1834.09 436.512V438.512Z" fill="white"/>
<path d="M1834.62 441.922L1804.59 440.922L1834.62 439.922V441.922Z" fill="white"/>
<path d="M1834.62 445.342L1804.59 444.342L1834.62 443.342V445.342Z" fill="white"/>
<path d="M1834.62 448.752L1804.59 447.752L1834.62 446.752V448.752Z" fill="white"/>
<path d="M1834.62 452.172L1804.81 451.172L1834.62 450.172V452.172Z" fill="white"/>
<path d="M1834.62 455.582L1804.81 454.582L1834.62 453.582V455.582Z" fill="white"/>
<path d="M1834.62 459.002L1804.94 458.002L1834.62 457.002V459.002Z" fill="white"/>
<path d="M1835.07 462.412L1805.23 461.412L1835.07 460.412V462.412Z" fill="white"/>
<path d="M1835.15 465.832L1805.23 464.832L1835.15 463.832V465.832Z" fill="white"/>
<path d="M1835.25 469.252L1805.57 468.252L1835.25 467.252V469.252Z" fill="white"/>
<path d="M1835.58 472.662L1805.57 471.662L1835.58 470.662V472.662Z" fill="white"/>
<path d="M1835.26 476.082L1805.71 475.082L1835.26 474.082V476.082Z" fill="white"/>
<path d="M1835.67 479.492L1805.88 478.492L1835.67 477.492V479.492Z" fill="white"/>
<path d="M1835.67 482.912L1806.62 481.912L1835.67 480.912V482.912Z" fill="white"/>
<path d="M1835.79 486.322L1806.25 485.322L1835.79 484.322V486.322Z" fill="white"/>
<path d="M1835.9 489.742L1806.65 488.742L1835.9 487.742V489.742Z" fill="white"/>
<path d="M1836.03 493.152L1806.65 492.152L1836.03 491.152V493.152Z" fill="white"/>
<path d="M1835.9 496.572L1806.99 495.572L1835.9 494.572V496.572Z" fill="white"/>
<path d="M1835.9 499.982L1807.08 498.982L1835.9 497.982V499.982Z" fill="white"/>
<path d="M1836.45 503.402L1807.56 502.402L1836.45 501.402V503.402Z" fill="white"/>
<path d="M1836.58 506.812L1807.56 505.812L1836.58 504.812V506.812Z" fill="white"/>
<path d="M1836.72 510.232L1807.77 509.232L1836.72 508.232V510.232Z" fill="white"/>
<path d="M1837.03 513.642L1808.02 512.642L1837.03 511.642V513.642Z" fill="white"/>
<path d="M1837.03 517.062L1808.27 516.062L1837.03 515.062V517.062Z" fill="white"/>
<path d="M1837.74 520.472L1808.53 519.472L1837.74 518.472V520.472Z" fill="white"/>
<path d="M1837.74 523.892L1808.53 522.892L1837.74 521.892V523.892Z" fill="white"/>
<path d="M1837.74 527.302L1809.42 526.302L1837.74 525.302V527.302Z" fill="white"/>
<path d="M1837.74 530.722L1809.42 529.722L1837.74 528.722V530.722Z" fill="white"/>
<path d="M1837.74 534.132L1809.42 533.132L1837.74 532.132V534.132Z" fill="white"/>
<path d="M1837.74 537.552L1809.42 536.552L1837.74 535.552V537.552Z" fill="white"/>
<path d="M1837.74 540.962L1809.42 539.962L1837.74 538.962V540.962Z" fill="white"/>
<path d="M1837.74 544.382L1810.6 543.382L1837.74 542.382V544.382Z" fill="white"/>
<path d="M1838.67 547.792L1810.92 546.792L1838.67 545.792V547.792Z" fill="white"/>
<path d="M1838.88 551.212L1811.26 550.212L1838.88 549.212V551.212Z" fill="white"/>
<path d="M1839.09 554.622L1811.6 553.622L1839.09 552.622V554.622Z" fill="white"/>
<path d="M1839.31 558.042L1811.84 557.042L1839.31 556.042V558.042Z" fill="white"/>
<path d="M1839.54 561.452L1812.32 560.452L1839.54 559.452V561.452Z" fill="white"/>
<path d="M1839.77 564.872L1812.69 563.872L1839.77 562.872V564.872Z" fill="white"/>
<path d="M1840.27 568.282L1813.07 567.282L1840.27 566.282V568.282Z" fill="white"/>
<path d="M1840.27 571.702L1813.46 570.702L1840.27 569.702V571.702Z" fill="white"/>
<path d="M1840.49 575.112L1816.39 574.112L1840.49 573.112V575.112Z" fill="white"/>
<path d="M1840.77 578.532L1814.27 577.532L1840.77 576.532V578.532Z" fill="white"/>
<path d="M1841 581.952L1814.76 580.952L1841 579.952V581.952Z" fill="white"/>
<path d="M1841.54 585.362L1815.12 584.362L1841.54 583.362V585.362Z" fill="white"/>
<path d="M1841.54 588.782L1815.64 587.782L1841.54 586.782V588.782Z" fill="white"/>
<path d="M1841.82 592.192L1816.07 591.192L1841.82 590.192V592.192Z" fill="white"/>
<path d="M1842.1 595.612L1816.59 594.612L1842.1 593.612V595.612Z" fill="white"/>
<path d="M1842.39 599.022L1817.42 598.022L1842.39 597.022V599.022Z" fill="white"/>
<path d="M1842.69 602.442L1817.42 601.442L1842.69 600.442V602.442Z" fill="white"/>
<path d="M1843.04 605.852L1818 604.852L1843.04 603.852V605.852Z" fill="white"/>
<path d="M1843.31 609.272L1818.51 608.272L1843.31 607.272V609.272Z" fill="white"/>
<path d="M1843.63 612.682L1819.04 611.682L1843.63 610.682V612.682Z" fill="white"/>
<path d="M1843.95 616.102L1819.55 615.102L1843.95 614.102V616.102Z" fill="white"/>
<path d="M1844.29 619.512L1819.98 618.512L1844.29 617.512V619.512Z" fill="white"/>
<path d="M1844.63 622.932L1820.67 621.932L1844.63 620.932V622.932Z" fill="white"/>
<path d="M1844.98 626.342L1821.13 625.342L1844.98 624.342V626.342Z" fill="white"/>
<path d="M1845.34 629.762L1821.36 628.762L1845.34 627.762V629.762Z" fill="white"/>
<path d="M1845.43 633.172L1822.45 632.172L1845.43 631.172V633.172Z" fill="white"/>
<path d="M1845.43 636.592L1822.92 635.592L1845.43 634.592V636.592Z" fill="white"/>
<path d="M1846.32 640.002L1823.74 639.002L1846.32 638.002V640.002Z" fill="white"/>
<path d="M1846.32 643.422L1824.18 642.422L1846.32 641.422V643.422Z" fill="white"/>
<path d="M1847.33 646.832L1825.12 645.832L1847.33 644.832V646.832Z" fill="white"/>
<path d="M1847.75 650.252L1825.12 649.252L1847.75 648.252V650.252Z" fill="white"/>
<path d="M1848.17 653.662L1825.79 652.662L1848.17 651.662V653.662Z" fill="white"/>
<path d="M1849 657.082L1826.9 656.082L1849 655.082V657.082Z" fill="white"/>
<path d="M1849.45 660.492L1827.93 659.492L1849.45 658.492V660.492Z" fill="white"/>
<path d="M1849.45 663.912L1828.68 662.912L1849.45 661.912V663.912Z" fill="white"/>
<path d="M1849.82 667.322L1829.43 666.322L1849.82 665.322V667.322Z" fill="white"/>
<path d="M1850.5 670.742L1830.35 669.742L1850.5 668.742V670.742Z" fill="white"/>
<path d="M1850.89 674.152L1831.01 673.152L1850.89 672.152V674.152Z" fill="white"/>
<path d="M1851.24 677.572L1831.37 676.572L1851.24 675.572V677.572Z" fill="white"/>
<path d="M1852.13 680.982L1832.81 679.982L1852.13 678.982V680.982Z" fill="white"/>
<path d="M1852.32 684.402L1833.42 683.402L1852.32 682.402V684.402Z" fill="white"/>
<path d="M1852.97 687.812L1834.09 686.812L1852.97 685.812V687.812Z" fill="white"/>
<path d="M1852.97 691.232L1834.84 690.232L1852.97 689.232V691.232Z" fill="white"/>
<path d="M1854.3 694.652L1836.56 693.652L1854.3 692.652V694.652Z" fill="white"/>
<path d="M1854.3 698.062L1836.99 697.062L1854.3 696.062V698.062Z" fill="white"/>
<path d="M1929.88 284.452L1958.21 285.452L1929.88 286.452V284.452Z" fill="white"/>
<path d="M1929.88 280.902L1958.21 281.902L1929.88 282.902V280.902Z" fill="white"/>
<path d="M1929.88 277.352L1958.21 278.352L1929.88 279.352V277.352Z" fill="white"/>
<path d="M1929.88 273.802L1958.21 274.802L1929.88 275.802V273.802Z" fill="white"/>
<path d="M1929.04 270.252L1958.21 271.252L1929.04 272.252V270.252Z" fill="white"/>
<path d="M1928.53 266.702L1956.01 267.702L1928.53 268.702V266.702Z" fill="white"/>
<path d="M1928.28 263.142L1956.12 264.142L1928.28 265.142V263.142Z" fill="white"/>
<path d="M1928.28 259.592L1954.54 260.592L1928.28 261.592V259.592Z" fill="white"/>
<path d="M1927.61 256.042L1954.54 257.042L1927.61 258.042V256.042Z" fill="white"/>
<path d="M1927.61 252.492L1954.02 253.492L1927.61 254.492V252.492Z" fill="white"/>
<path d="M1927.61 248.942L1953.49 249.942L1927.61 250.942V248.942Z" fill="white"/>
<path d="M1927.03 245.392L1953.08 246.392L1927.03 247.392V245.392Z" fill="white"/>
<path d="M1926.29 241.832L1952.39 242.832L1926.29 243.832V241.832Z" fill="white"/>
<path d="M1926.29 238.282L1951.82 239.282L1926.29 240.282V238.282Z" fill="white"/>
<path d="M1925.63 234.732L1951.81 235.732L1925.63 236.732V234.732Z" fill="white"/>
<path d="M1925.87 231.182L1950.64 232.182L1925.87 233.182V231.182Z" fill="white"/>
<path d="M1924.88 227.632L1950.03 228.632L1924.88 229.632V227.632Z" fill="white"/>
<path d="M1924.88 224.082L1949.4 225.082L1924.88 226.082V224.082Z" fill="white"/>
<path d="M1924.88 220.522L1948.77 221.522L1924.88 222.522V220.522Z" fill="white"/>
<path d="M1924.09 216.972L1948.12 217.972L1924.09 218.972V216.972Z" fill="white"/>
<path d="M1923.68 213.422L1947.58 214.422L1923.68 215.422V213.422Z" fill="white"/>
<path d="M1922.78 209.872L1946.79 210.872L1922.78 211.872V209.872Z" fill="white"/>
<path d="M1922.78 206.322L1946.03 207.322L1922.78 208.322V206.322Z" fill="white"/>
<path d="M1922.06 202.772L1946.03 203.772L1922.06 204.772V202.772Z" fill="white"/>
<path d="M1922.06 199.212L1944.82 200.212L1922.06 201.212V199.212Z" fill="white"/>
<path d="M1921.02 195.662L1944.04 196.662L1921.02 197.662V195.662Z" fill="white"/>
<path d="M1920.62 192.112L1943.22 193.112L1920.62 194.112V192.112Z" fill="white"/>
<path d="M1920.33 188.562L1942.61 189.562L1920.33 190.562V188.562Z" fill="white"/>
<path d="M1920.33 185.012L1941.71 186.012L1920.33 187.012V185.012Z" fill="white"/>
<path d="M1919.35 181.462L1940.93 182.462L1919.35 183.462V181.462Z" fill="white"/>
<path d="M1919.35 177.912L1940.14 178.912L1919.35 179.912V177.912Z" fill="white"/>
<path d="M1918.59 174.352L1939.34 175.352L1918.59 176.352V174.352Z" fill="white"/>
<path d="M1917.72 170.802L1938.76 171.802L1917.72 172.802V170.802Z" fill="white"/>
<path d="M1917.72 167.252L1937.83 168.252L1917.72 169.252V167.252Z" fill="white"/>
<path d="M1916.65 163.702L1937.09 164.702L1916.65 165.702V163.702Z" fill="white"/>
<path d="M1916.84 160.152L1936.39 161.152L1916.84 162.152V160.152Z" fill="white"/>
<path d="M1915.82 156.602L1935.13 157.602L1915.82 158.602V156.602Z" fill="white"/>
<path d="M1915.45 153.042L1934.25 154.042L1915.45 155.042V153.042Z" fill="white"/>
<path d="M1914.3 149.492L1933.53 150.492L1914.3 151.492V149.492Z" fill="white"/>
<path d="M1914.13 145.942L1932.46 146.942L1914.13 147.942V145.942Z" fill="white"/>
<path d="M1913.74 142.392L1931.54 143.392L1913.74 144.392V142.392Z" fill="white"/>
<path d="M1912.52 138.842L1930.61 139.842L1912.52 140.842V138.842Z" fill="white"/>
<path d="M1912.02 135.292L1929.66 136.292L1912.02 137.292V135.292Z" fill="white"/>
<path d="M1911.59 131.732L1928.71 132.732L1911.59 133.732V131.732Z" fill="white"/>
<path d="M1911.62 128.182L1927.74 129.182L1911.62 130.182V128.182Z" fill="white"/>
<path d="M1910.38 124.632L1926.75 125.632L1910.38 126.632V124.632Z" fill="white"/>
<path d="M1909.83 121.082L1925.93 122.082L1909.83 123.082V121.082Z" fill="white"/>
<path d="M1909.01 117.532L1924.74 118.532L1909.01 119.532V117.532Z" fill="white"/>
<path d="M1908.65 113.982L1923.72 114.982L1908.65 115.982V113.982Z" fill="white"/>
<path d="M1907.92 110.432L1922.68 111.432L1907.92 112.432V110.432Z" fill="white"/>
<path d="M1907.39 106.872L1921.63 107.872L1907.39 108.872V106.872Z" fill="white"/>
<path d="M1906.65 103.322L1920.57 104.322L1906.65 105.322V103.322Z" fill="white"/>
<path d="M1905.85 99.772L1919.93 100.772L1905.85 101.772V99.772Z" fill="white"/>
<path d="M1905.6 96.2219L1918.71 97.2219L1905.6 98.2219V96.2219Z" fill="white"/>
<path d="M1904.94 92.6721L1917.3 93.6721L1904.94 94.6721V92.6721Z" fill="white"/>
<path d="M1903.9 89.1221L1916.34 90.1221L1903.9 91.1221V89.1221Z" fill="white"/>
<path d="M1903.62 85.562L1915.24 86.562L1903.62 87.562V85.562Z" fill="white"/>
<path d="M1902.23 82.012L1913.91 83.012L1902.23 84.012V82.012Z" fill="white"/>
<path d="M1901.77 78.4619L1912.74 79.4619L1901.77 80.4619V78.4619Z" fill="white"/>
<path d="M1901.42 74.9121L1911.56 75.9121L1901.42 76.9121V74.9121Z" fill="white"/>
<path d="M1900.73 71.3621L1910.06 72.3621L1900.73 73.3621V71.3621Z" fill="white"/>
<path d="M1900.19 67.812L1909.16 68.812L1900.19 69.812V67.812Z" fill="white"/>
<path d="M1898.9 64.252L1908.18 65.252L1898.9 66.252V64.252Z" fill="white"/>
<path d="M1898.21 60.7019L1907.09 61.7019L1898.21 62.7019V60.7019Z" fill="white"/>
<path d="M1897.98 57.1521L1905.53 58.1521L1897.98 59.1521V57.1521Z" fill="white"/>
<path d="M1896.51 53.6021L1904.44 54.6021L1896.51 55.6021V53.6021Z" fill="white"/>
<path d="M1895.77 50.052L1902.65 51.052L1895.77 52.052V50.052Z" fill="white"/>
<path d="M1894.91 46.502L1901.75 47.502L1894.91 48.502V46.502Z" fill="white"/>
<path d="M1894.38 42.9519L1900.19 43.9519L1894.38 44.9519V42.9519Z" fill="white"/>
<path d="M1893.28 39.3921L1898.9 40.3921L1893.28 41.3921V39.3921Z" fill="white"/>
<path d="M1892.66 35.842L1897.74 36.842L1892.66 37.842V35.842Z" fill="white"/>
<path d="M1891.69 32.292L1896.51 33.292L1891.69 34.292V32.292Z" fill="white"/>
<path d="M1890.47 28.7419L1894.91 29.7419L1890.47 30.7419V28.7419Z" fill="white"/>
<path d="M1890.43 25.1919L1893.95 26.1919L1890.43 27.1919V25.1919Z" fill="white"/>
<path d="M1888.96 21.6421L1892.19 22.6421L1888.96 23.6421V21.6421Z" fill="white"/>
<path d="M1888.55 18.082L1891.06 19.082L1888.55 20.082V18.082Z" fill="white"/>
<path d="M1887.56 14.532L1889.71 15.532L1887.56 16.532V14.532Z" fill="white"/>
<path d="M1886.54 10.9819L1887.99 11.9819L1886.54 12.9819V10.9819Z" fill="white"/>
<path d="M1929.88 287.872L1958.21 288.872L1929.88 289.872V287.872Z" fill="white"/>
<path d="M1929.88 291.282L1958.21 292.282L1929.88 293.282V291.282Z" fill="white"/>
<path d="M1930.72 294.702L1959.05 295.702L1930.72 296.702V294.702Z" fill="white"/>
<path d="M1930.99 298.112L1959.67 299.112L1930.99 300.112V298.112Z" fill="white"/>
<path d="M1930.99 301.532L1959.67 302.532L1930.99 303.532V301.532Z" fill="white"/>
<path d="M1931.19 304.942L1960.32 305.942L1931.19 306.942V304.942Z" fill="white"/>
<path d="M1931.38 308.362L1960.63 309.362L1931.38 310.362V308.362Z" fill="white"/>
<path d="M1931.56 311.772L1960.77 312.772L1931.56 313.772V311.772Z" fill="white"/>
<path d="M1932.21 315.192L1961.11 316.192L1932.21 317.192V315.192Z" fill="white"/>
<path d="M1932.21 318.602L1961.48 319.602L1932.21 320.602V318.602Z" fill="white"/>
<path d="M1932.21 322.022L1961.73 323.022L1932.21 324.022V322.022Z" fill="white"/>
<path d="M1932.21 325.432L1961.73 326.432L1932.21 327.432V325.432Z" fill="white"/>
<path d="M1932.35 328.852L1962.07 329.852L1932.35 330.852V328.852Z" fill="white"/>
<path d="M1932.49 332.272L1962.46 333.272L1932.49 334.272V332.272Z" fill="white"/>
<path d="M1932.62 335.682L1962.66 336.682L1932.62 337.682V335.682Z" fill="white"/>
<path d="M1932.74 339.102L1962.85 340.102L1932.74 341.102V339.102Z" fill="white"/>
<path d="M1932.95 342.512L1963.03 343.512L1932.95 344.512V342.512Z" fill="white"/>
<path d="M1932.95 345.932L1963.03 346.932L1932.95 347.932V345.932Z" fill="white"/>
<path d="M1933.43 349.342L1963.32 350.342L1933.43 351.342V349.342Z" fill="white"/>
<path d="M1933.4 352.762L1963.46 353.762L1933.4 354.762V352.762Z" fill="white"/>
<path d="M1933.53 356.172L1963.03 357.172L1933.53 358.172V356.172Z" fill="white"/>
<path d="M1933.13 359.592L1963.7 360.592L1933.13 361.592V359.592Z" fill="white"/>
<path d="M1933.13 363.002L1963.8 364.002L1933.13 365.002V363.002Z" fill="white"/>
<path d="M1933.18 366.422L1963.9 367.422L1933.18 368.422V366.422Z" fill="white"/>
<path d="M1933.18 369.832L1963.9 370.832L1933.18 371.832V369.832Z" fill="white"/>
<path d="M1933.4 373.252L1964.12 374.252L1933.4 375.252V373.252Z" fill="white"/>
<path d="M1933.43 376.662L1964.07 377.662L1933.43 378.662V376.662Z" fill="white"/>
<path d="M1933.4 380.082L1964.12 381.082L1933.4 382.082V380.082Z" fill="white"/>
<path d="M1933.53 383.492L1964.12 384.492L1933.53 385.492V383.492Z" fill="white"/>
<path d="M1933.53 386.912L1964.12 387.912L1933.53 388.912V386.912Z" fill="white"/>
<path d="M1933.53 390.322L1964.12 391.322L1933.53 392.322V390.322Z" fill="white"/>
<path d="M1933.53 393.742L1963.9 394.742L1933.53 395.742V393.742Z" fill="white"/>
<path d="M1933.4 397.152L1963.85 398.152L1933.4 399.152V397.152Z" fill="white"/>
<path d="M1933.43 400.572L1963.54 401.572L1933.43 402.572V400.572Z" fill="white"/>
<path d="M1933.53 403.982L1964.12 404.982L1933.53 405.982V403.982Z" fill="white"/>
<path d="M1933.53 407.402L1963.85 408.402L1933.53 409.402V407.402Z" fill="white"/>
<path d="M1933.43 410.812L1963.85 411.812L1933.43 412.812V410.812Z" fill="white"/>
<path d="M1933.4 414.232L1963.9 415.232L1933.4 416.232V414.232Z" fill="white"/>
<path d="M1933.18 417.642L1963.85 418.642L1933.18 419.642V417.642Z" fill="white"/>
<path d="M1933.53 421.062L1963.54 422.062L1933.53 423.062V421.062Z" fill="white"/>
<path d="M1933.13 424.472L1963.54 425.472L1933.13 426.472V424.472Z" fill="white"/>
<path d="M1933.53 427.892L1963.03 428.892L1933.53 429.892V427.892Z" fill="white"/>
<path d="M1933.18 431.302L1963.54 432.302L1933.18 433.302V431.302Z" fill="white"/>
<path d="M1933.13 434.722L1963.37 435.722L1933.13 436.722V434.722Z" fill="white"/>
<path d="M1933.53 438.132L1963.37 439.132L1933.53 440.132V438.132Z" fill="white"/>
<path d="M1933 441.552L1963.03 442.552L1933 443.552V441.552Z" fill="white"/>
<path d="M1933 444.972L1963.03 445.972L1933 446.972V444.972Z" fill="white"/>
<path d="M1933 448.382L1963.03 449.382L1933 450.382V448.382Z" fill="white"/>
<path d="M1933 451.802L1962.81 452.802L1933 453.802V451.802Z" fill="white"/>
<path d="M1933 455.212L1962.81 456.212L1933 457.212V455.212Z" fill="white"/>
<path d="M1933 458.632L1962.68 459.632L1933 460.632V458.632Z" fill="white"/>
<path d="M1932.55 462.042L1962.39 463.042L1932.55 464.042V462.042Z" fill="white"/>
<path d="M1932.47 465.462L1962.39 466.462L1932.47 467.462V465.462Z" fill="white"/>
<path d="M1932.37 468.872L1962.05 469.872L1932.37 470.872V468.872Z" fill="white"/>
<path d="M1932.05 472.292L1962.05 473.292L1932.05 474.292V472.292Z" fill="white"/>
<path d="M1932.36 475.702L1961.91 476.702L1932.36 477.702V475.702Z" fill="white"/>
<path d="M1931.95 479.122L1961.74 480.122L1931.95 481.122V479.122Z" fill="white"/>
<path d="M1931.95 482.532L1961 483.532L1931.95 484.532V482.532Z" fill="white"/>
<path d="M1931.84 485.952L1961.37 486.952L1931.84 487.952V485.952Z" fill="white"/>
<path d="M1931.72 489.362L1960.98 490.362L1931.72 491.362V489.362Z" fill="white"/>
<path d="M1931.59 492.782L1960.98 493.782L1931.59 494.782V492.782Z" fill="white"/>
<path d="M1931.72 496.192L1960.64 497.192L1931.72 498.192V496.192Z" fill="white"/>
<path d="M1931.72 499.612L1960.55 500.612L1931.72 501.612V499.612Z" fill="white"/>
<path d="M1931.17 503.022L1960.06 504.022L1931.17 505.022V503.022Z" fill="white"/>
<path d="M1931.05 506.442L1960.06 507.442L1931.05 508.442V506.442Z" fill="white"/>
<path d="M1930.9 509.852L1959.85 510.852L1930.9 511.852V509.852Z" fill="white"/>
<path d="M1930.59 513.272L1959.61 514.272L1930.59 515.272V513.272Z" fill="white"/>
<path d="M1930.59 516.682L1959.35 517.682L1930.59 518.682V516.682Z" fill="white"/>
<path d="M1929.88 520.102L1959.09 521.102L1929.88 522.102V520.102Z" fill="white"/>
<path d="M1929.88 523.512L1959.09 524.512L1929.88 525.512V523.512Z" fill="white"/>
<path d="M1929.88 526.932L1958.21 527.932L1929.88 528.932V526.932Z" fill="white"/>
<path d="M1929.88 530.342L1958.21 531.342L1929.88 532.342V530.342Z" fill="white"/>
<path d="M1929.88 533.762L1958.21 534.762L1929.88 535.762V533.762Z" fill="white"/>
<path d="M1929.88 537.172L1958.21 538.172L1929.88 539.172V537.172Z" fill="white"/>
<path d="M1929.88 540.592L1958.21 541.592L1929.88 542.592V540.592Z" fill="white"/>
<path d="M1929.88 544.002L1957.03 545.002L1929.88 546.002V544.002Z" fill="white"/>
<path d="M1928.95 547.422L1956.7 548.422L1928.95 549.422V547.422Z" fill="white"/>
<path d="M1928.74 550.832L1956.36 551.832L1928.74 552.832V550.832Z" fill="white"/>
<path d="M1928.53 554.252L1956.02 555.252L1928.53 556.252V554.252Z" fill="white"/>
<path d="M1928.31 557.672L1955.79 558.672L1928.31 559.672V557.672Z" fill="white"/>
<path d="M1928.09 561.082L1955.3 562.082L1928.09 563.082V561.082Z" fill="white"/>
<path d="M1927.86 564.502L1954.93 565.502L1927.86 566.502V564.502Z" fill="white"/>
<path d="M1927.35 567.912L1954.55 568.912L1927.35 569.912V567.912Z" fill="white"/>
<path d="M1927.35 571.332L1954.16 572.332L1927.35 573.332V571.332Z" fill="white"/>
<path d="M1927.13 574.742L1951.23 575.742L1927.13 576.742V574.742Z" fill="white"/>
<path d="M1926.85 578.162L1953.35 579.162L1926.85 580.162V578.162Z" fill="white"/>
<path d="M1926.62 581.572L1952.86 582.572L1926.62 583.572V581.572Z" fill="white"/>
<path d="M1926.08 584.992L1952.5 585.992L1926.08 586.992V584.992Z" fill="white"/>
<path d="M1926.08 588.402L1951.99 589.402L1926.08 590.402V588.402Z" fill="white"/>
<path d="M1925.81 591.822L1951.55 592.822L1925.81 593.822V591.822Z" fill="white"/>
<path d="M1925.52 595.232L1951.03 596.232L1925.52 597.232V595.232Z" fill="white"/>
<path d="M1925.23 598.652L1950.2 599.652L1925.23 600.652V598.652Z" fill="white"/>
<path d="M1924.93 602.062L1950.2 603.062L1924.93 604.062V602.062Z" fill="white"/>
<path d="M1924.58 605.482L1949.62 606.482L1924.58 607.482V605.482Z" fill="white"/>
<path d="M1924.32 608.892L1949.12 609.892L1924.32 610.892V608.892Z" fill="white"/>
<path d="M1924 612.312L1948.59 613.312L1924 614.312V612.312Z" fill="white"/>
<path d="M1923.67 615.722L1948.07 616.722L1923.67 617.722V615.722Z" fill="white"/>
<path d="M1923.34 619.142L1947.64 620.142L1923.34 621.142V619.142Z" fill="white"/>
<path d="M1922.99 622.552L1946.95 623.552L1922.99 624.552V622.552Z" fill="white"/>
<path d="M1922.64 625.972L1946.49 626.972L1922.64 627.972V625.972Z" fill="white"/>
<path d="M1922.28 629.382L1946.26 630.382L1922.28 631.382V629.382Z" fill="white"/>
<path d="M1922.19 632.802L1945.18 633.802L1922.19 634.802V632.802Z" fill="white"/>
<path d="M1922.19 636.212L1944.71 637.212L1922.19 638.212V636.212Z" fill="white"/>
<path d="M1921.3 639.632L1943.88 640.632L1921.3 641.632V639.632Z" fill="white"/>
<path d="M1921.3 643.042L1943.44 644.042L1921.3 645.042V643.042Z" fill="white"/>
<path d="M1920.3 646.462L1942.51 647.462L1920.3 648.462V646.462Z" fill="white"/>
<path d="M1919.87 649.872L1942.51 650.872L1919.87 651.872V649.872Z" fill="white"/>
<path d="M1919.46 653.292L1941.84 654.292L1919.46 655.292V653.292Z" fill="white"/>
<path d="M1918.62 656.702L1940.73 657.702L1918.62 658.702V656.702Z" fill="white"/>
<path d="M1918.18 660.122L1939.69 661.122L1918.18 662.122V660.122Z" fill="white"/>
<path d="M1918.18 663.532L1938.95 664.532L1918.18 665.532V663.532Z" fill="white"/>
<path d="M1917.8 666.952L1938.19 667.952L1917.8 668.952V666.952Z" fill="white"/>
<path d="M1917.12 670.372L1937.28 671.372L1917.12 672.372V670.372Z" fill="white"/>
<path d="M1916.73 673.782L1936.62 674.782L1916.73 675.782V673.782Z" fill="white"/>
<path d="M1916.38 677.202L1936.25 678.202L1916.38 679.202V677.202Z" fill="white"/>
<path d="M1915.5 680.612L1934.82 681.612L1915.5 682.612V680.612Z" fill="white"/>
<path d="M1915.3 684.032L1934.2 685.032L1915.3 686.032V684.032Z" fill="white"/>
<path d="M1914.65 687.442L1933.53 688.442L1914.65 689.442V687.442Z" fill="white"/>
<path d="M1914.65 690.862L1932.78 691.862L1914.65 692.862V690.862Z" fill="white"/>
<path d="M1913.32 694.272L1931.06 695.272L1913.32 696.272V694.272Z" fill="white"/>
<path d="M1913.32 697.692L1930.64 698.692L1913.32 699.692V697.692Z" fill="white"/>
<path d="M1860.99 701.772C1846.11 596.622 1843.84 490.112 1843.25 384.062C1843.47 367.202 1843.51 345.952 1844.23 329.162C1845.52 285.862 1848.65 240.752 1852.98 197.692C1859.77 132.222 1869.08 66.7422 1883.06 2.39217C1883.12 2.12217 1883.38 1.95204 1883.65 2.01204C1883.85 2.05204 1883.99 2.21217 1884.03 2.39217C1902.48 88.2122 1913.51 175.822 1919.63 263.352C1925.67 350.882 1924.38 439.192 1920.98 526.782C1918.31 585.262 1914.67 643.822 1906.11 701.772C1914.5 643.802 1917.98 585.242 1920.49 526.762C1923.79 439.192 1925.01 350.892 1918.89 263.402C1912.7 175.942 1901.57 88.3321 1883.07 2.61214H1884.04C1870.02 66.8621 1860.64 132.352 1853.79 197.772C1849.42 240.802 1846.25 285.912 1844.92 329.182C1844.18 345.952 1844.12 367.232 1843.89 384.062C1844.44 490.102 1846.44 596.592 1861 701.772H1860.99Z" fill="white"/>
<path d="M1866.35 701.772C1854.96 596.432 1853.23 490.292 1852.75 384.422C1852.91 371.992 1852.9 352.992 1853.21 340.592C1854.29 286.312 1857.26 230.542 1861.87 176.462C1867.4 118.352 1872.68 58.882 1883.62 2.01196C1894.15 59.312 1899.83 118.232 1905.22 176.462C1909.83 230.552 1912.8 286.312 1913.88 340.592C1914.9 402.582 1914.03 464.922 1912.13 526.862C1910.08 585.252 1907.3 643.692 1900.74 701.782C1907.13 643.682 1909.75 585.242 1911.64 526.852C1914.4 432.142 1915.11 336.722 1909.2 242.092C1904.18 161.992 1896.13 81.7821 1883.06 2.60205H1884.04C1874.43 60.222 1867.81 118.342 1862.7 176.532C1858.04 230.602 1855.01 286.342 1853.88 340.612C1853.55 353.002 1853.55 372.022 1853.38 384.432C1853.82 490.292 1855.27 596.422 1866.35 701.782V701.772Z" fill="white"/>
<path d="M1872.08 701.772C1863.45 578.082 1862.22 453.942 1863.38 329.992C1863.69 309.662 1864.27 284.582 1864.99 264.362C1868.55 177.022 1872.72 88.232 1883.61 2.00195C1894.96 95.792 1899.67 191.512 1902.79 286.232C1905.06 366.282 1904.3 446.882 1902.71 526.912C1901.31 585.242 1899.44 643.582 1895.03 701.772C1899.28 643.572 1900.98 585.232 1902.22 526.902C1906.17 352.012 1902.18 176.542 1883.06 2.56201H1884.05C1877.59 60.532 1873.17 118.732 1869.76 176.972C1868.11 205.792 1866.73 235.632 1865.73 264.392C1864.74 292.602 1864.04 323.652 1863.74 351.882C1863.3 468.532 1864.17 585.352 1872.08 701.782V701.772Z" fill="white"/>
<path d="M1877.08 701.772C1869.55 469.262 1868.26 233.632 1883.58 2.00195C1888.46 59.702 1889.68 118.932 1891.99 177.192C1896.66 322.872 1896.02 468.672 1892.87 614.382C1892.18 643.522 1891.31 672.662 1890.03 701.782C1891.24 672.662 1892.02 643.522 1892.63 614.382C1895.33 468.682 1896.03 322.892 1891.16 177.222C1889.23 118.962 1886.72 60.712 1883.06 2.54199H1884.06C1869.92 234.812 1869.85 469.212 1877.09 701.782L1877.08 701.772Z" fill="white"/>
<path d="M1881.11 701.772C1878.02 469.582 1877.82 234.592 1883.05 2.49194C1889.9 173.292 1887.77 353.152 1887.81 526.962C1887.44 585.242 1886.99 643.512 1885.98 701.782C1886.82 643.512 1887.11 585.232 1887.31 526.962C1889.09 352.812 1885.22 174.712 1884.03 2.52197C1878.52 234.592 1878.77 469.612 1881.1 701.782L1881.11 701.772Z" fill="white"/>
<path d="M1946.46 341.172V268.512L1883.53 232.182L1820.6 268.512V341.172L1883.53 377.502L1946.46 341.172Z" fill="white"/>
<path d="M1883.53 260.272L1855.45 276.492V308.922L1883.53 325.142L1911.61 308.922V276.492L1883.53 260.272ZM1908.7 278.162C1908.86 278.162 1908.98 278.292 1908.98 278.442C1908.98 278.592 1908.85 278.722 1908.7 278.722C1908.55 278.722 1908.42 278.592 1908.42 278.442C1908.42 278.292 1908.55 278.162 1908.7 278.162ZM1908.7 281.932C1908.86 281.932 1908.98 282.062 1908.98 282.212C1908.98 282.362 1908.85 282.492 1908.7 282.492C1908.55 282.492 1908.42 282.362 1908.42 282.212C1908.42 282.062 1908.55 281.932 1908.7 281.932ZM1908.7 285.702C1908.86 285.702 1908.98 285.832 1908.98 285.982C1908.98 286.132 1908.85 286.262 1908.7 286.262C1908.55 286.262 1908.42 286.132 1908.42 285.982C1908.42 285.832 1908.55 285.702 1908.7 285.702ZM1908.7 289.472C1908.86 289.472 1908.98 289.602 1908.98 289.752C1908.98 289.902 1908.85 290.032 1908.7 290.032C1908.55 290.032 1908.42 289.902 1908.42 289.752C1908.42 289.602 1908.55 289.472 1908.7 289.472ZM1908.7 293.252C1908.86 293.252 1908.98 293.382 1908.98 293.532C1908.98 293.682 1908.85 293.812 1908.7 293.812C1908.55 293.812 1908.42 293.682 1908.42 293.532C1908.42 293.382 1908.55 293.252 1908.7 293.252ZM1908.7 297.022C1908.86 297.022 1908.98 297.152 1908.98 297.302C1908.98 297.452 1908.85 297.582 1908.7 297.582C1908.55 297.582 1908.42 297.452 1908.42 297.302C1908.42 297.152 1908.55 297.022 1908.7 297.022ZM1908.7 300.792C1908.86 300.792 1908.98 300.922 1908.98 301.072C1908.98 301.222 1908.85 301.352 1908.7 301.352C1908.55 301.352 1908.42 301.222 1908.42 301.072C1908.42 300.922 1908.55 300.792 1908.7 300.792ZM1908.7 304.562C1908.86 304.562 1908.98 304.692 1908.98 304.842C1908.98 304.992 1908.85 305.122 1908.7 305.122C1908.55 305.122 1908.42 304.992 1908.42 304.842C1908.42 304.692 1908.55 304.562 1908.7 304.562ZM1905.56 276.122C1905.85 276.122 1906.08 276.352 1906.08 276.642C1906.08 276.932 1905.85 277.162 1905.56 277.162C1905.27 277.162 1905.04 276.932 1905.04 276.642C1905.04 276.352 1905.27 276.122 1905.56 276.122ZM1905.56 279.892C1905.85 279.892 1906.08 280.122 1906.08 280.412C1906.08 280.702 1905.85 280.932 1905.56 280.932C1905.27 280.932 1905.04 280.702 1905.04 280.412C1905.04 280.122 1905.27 279.892 1905.56 279.892ZM1905.56 283.662C1905.85 283.662 1906.08 283.892 1906.08 284.182C1906.08 284.472 1905.85 284.702 1905.56 284.702C1905.27 284.702 1905.04 284.472 1905.04 284.182C1905.04 283.892 1905.27 283.662 1905.56 283.662ZM1905.56 287.432C1905.85 287.432 1906.08 287.662 1906.08 287.952C1906.08 288.242 1905.85 288.472 1905.56 288.472C1905.27 288.472 1905.04 288.242 1905.04 287.952C1905.04 287.662 1905.27 287.432 1905.56 287.432ZM1905.56 291.202C1905.85 291.202 1906.08 291.432 1906.08 291.722C1906.08 292.012 1905.85 292.242 1905.56 292.242C1905.27 292.242 1905.04 292.012 1905.04 291.722C1905.04 291.432 1905.27 291.202 1905.56 291.202ZM1905.56 294.972C1905.85 294.972 1906.08 295.202 1906.08 295.492C1906.08 295.782 1905.85 296.012 1905.56 296.012C1905.27 296.012 1905.04 295.782 1905.04 295.492C1905.04 295.202 1905.27 294.972 1905.56 294.972ZM1905.56 298.742C1905.85 298.742 1906.08 298.972 1906.08 299.262C1906.08 299.552 1905.85 299.782 1905.56 299.782C1905.27 299.782 1905.04 299.552 1905.04 299.262C1905.04 298.972 1905.27 298.742 1905.56 298.742ZM1905.56 302.512C1905.85 302.512 1906.08 302.742 1906.08 303.032C1906.08 303.322 1905.85 303.552 1905.56 303.552C1905.27 303.552 1905.04 303.322 1905.04 303.032C1905.04 302.742 1905.27 302.512 1905.56 302.512ZM1902.43 274.112C1902.82 274.112 1903.14 274.432 1903.14 274.822C1903.14 275.212 1902.82 275.532 1902.43 275.532C1902.04 275.532 1901.71 275.212 1901.71 274.822C1901.71 274.432 1902.03 274.112 1902.43 274.112ZM1902.43 277.882C1902.82 277.882 1903.14 278.202 1903.14 278.592C1903.14 278.982 1902.82 279.302 1902.43 279.302C1902.04 279.302 1901.71 278.982 1901.71 278.592C1901.71 278.202 1902.03 277.882 1902.43 277.882ZM1902.43 281.662C1902.82 281.662 1903.14 281.982 1903.14 282.372C1903.14 282.762 1902.82 283.082 1902.43 283.082C1902.04 283.082 1901.71 282.762 1901.71 282.372C1901.71 281.982 1902.03 281.662 1902.43 281.662ZM1902.43 285.432C1902.82 285.432 1903.14 285.752 1903.14 286.142C1903.14 286.532 1902.82 286.852 1902.43 286.852C1902.04 286.852 1901.71 286.532 1901.71 286.142C1901.71 285.752 1902.03 285.432 1902.43 285.432ZM1902.43 289.202C1902.82 289.202 1903.14 289.522 1903.14 289.912C1903.14 290.302 1902.82 290.622 1902.43 290.622C1902.04 290.622 1901.71 290.302 1901.71 289.912C1901.71 289.522 1902.03 289.202 1902.43 289.202ZM1902.43 292.972C1902.82 292.972 1903.14 293.292 1903.14 293.682C1903.14 294.072 1902.82 294.392 1902.43 294.392C1902.04 294.392 1901.71 294.072 1901.71 293.682C1901.71 293.292 1902.03 292.972 1902.43 292.972ZM1902.43 296.742C1902.82 296.742 1903.14 297.062 1903.14 297.452C1903.14 297.842 1902.82 298.162 1902.43 298.162C1902.04 298.162 1901.71 297.842 1901.71 297.452C1901.71 297.062 1902.03 296.742 1902.43 296.742ZM1902.43 300.512C1902.82 300.512 1903.14 300.832 1903.14 301.222C1903.14 301.612 1902.82 301.932 1902.43 301.932C1902.04 301.932 1901.71 301.612 1901.71 301.222C1901.71 300.832 1902.03 300.512 1902.43 300.512ZM1899.3 272.142C1899.78 272.142 1900.18 272.532 1900.18 273.022C1900.18 273.512 1899.79 273.902 1899.3 273.902C1898.81 273.902 1898.42 273.512 1898.42 273.022C1898.42 272.532 1898.81 272.142 1899.3 272.142ZM1899.3 275.922C1899.78 275.922 1900.18 276.312 1900.18 276.802C1900.18 277.292 1899.79 277.682 1899.3 277.682C1898.81 277.682 1898.42 277.292 1898.42 276.802C1898.42 276.312 1898.81 275.922 1899.3 275.922ZM1899.3 279.692C1899.78 279.692 1900.18 280.082 1900.18 280.572C1900.18 281.062 1899.79 281.452 1899.3 281.452C1898.81 281.452 1898.42 281.062 1898.42 280.572C1898.42 280.082 1898.81 279.692 1899.3 279.692ZM1899.3 283.462C1899.78 283.462 1900.18 283.852 1900.18 284.342C1900.18 284.832 1899.79 285.222 1899.3 285.222C1898.81 285.222 1898.42 284.832 1898.42 284.342C1898.42 283.852 1898.81 283.462 1899.3 283.462ZM1899.3 287.232C1899.78 287.232 1900.18 287.622 1900.18 288.112C1900.18 288.602 1899.79 288.992 1899.3 288.992C1898.81 288.992 1898.42 288.602 1898.42 288.112C1898.42 287.622 1898.81 287.232 1899.3 287.232ZM1899.3 291.002C1899.78 291.002 1900.18 291.392 1900.18 291.882C1900.18 292.372 1899.79 292.762 1899.3 292.762C1898.81 292.762 1898.42 292.372 1898.42 291.882C1898.42 291.392 1898.81 291.002 1899.3 291.002ZM1899.3 294.772C1899.78 294.772 1900.18 295.162 1900.18 295.652C1900.18 296.142 1899.79 296.532 1899.3 296.532C1898.81 296.532 1898.42 296.142 1898.42 295.652C1898.42 295.162 1898.81 294.772 1899.3 294.772ZM1899.3 298.542C1899.78 298.542 1900.18 298.932 1900.18 299.422C1900.18 299.912 1899.79 300.302 1899.3 300.302C1898.81 300.302 1898.42 299.912 1898.42 299.422C1898.42 298.932 1898.81 298.542 1899.3 298.542ZM1896.17 270.212C1896.72 270.212 1897.17 270.662 1897.17 271.212C1897.17 271.762 1896.72 272.212 1896.17 272.212C1895.62 272.212 1895.17 271.762 1895.17 271.212C1895.17 270.662 1895.62 270.212 1896.17 270.212ZM1896.17 273.982C1896.72 273.982 1897.17 274.432 1897.17 274.982C1897.17 275.532 1896.72 275.982 1896.17 275.982C1895.62 275.982 1895.17 275.532 1895.17 274.982C1895.17 274.432 1895.62 273.982 1896.17 273.982ZM1896.17 277.752C1896.72 277.752 1897.17 278.202 1897.17 278.752C1897.17 279.302 1896.72 279.752 1896.17 279.752C1895.62 279.752 1895.17 279.302 1895.17 278.752C1895.17 278.202 1895.62 277.752 1896.17 277.752ZM1896.17 281.522C1896.72 281.522 1897.17 281.972 1897.17 282.522C1897.17 283.072 1896.72 283.522 1896.17 283.522C1895.62 283.522 1895.17 283.072 1895.17 282.522C1895.17 281.972 1895.62 281.522 1896.17 281.522ZM1896.17 285.292C1896.72 285.292 1897.17 285.742 1897.17 286.292C1897.17 286.842 1896.72 287.292 1896.17 287.292C1895.62 287.292 1895.17 286.842 1895.17 286.292C1895.17 285.742 1895.62 285.292 1896.17 285.292ZM1896.17 289.072C1896.72 289.072 1897.17 289.522 1897.17 290.072C1897.17 290.622 1896.72 291.072 1896.17 291.072C1895.62 291.072 1895.17 290.622 1895.17 290.072C1895.17 289.522 1895.62 289.072 1896.17 289.072ZM1896.17 292.842C1896.72 292.842 1897.17 293.292 1897.17 293.842C1897.17 294.392 1896.72 294.842 1896.17 294.842C1895.62 294.842 1895.17 294.392 1895.17 293.842C1895.17 293.292 1895.62 292.842 1896.17 292.842ZM1896.17 296.612C1896.72 296.612 1897.17 297.062 1897.17 297.612C1897.17 298.162 1896.72 298.612 1896.17 298.612C1895.62 298.612 1895.17 298.162 1895.17 297.612C1895.17 297.062 1895.62 296.612 1896.17 296.612ZM1893.04 268.312C1893.64 268.312 1894.13 268.802 1894.13 269.402C1894.13 270.002 1893.64 270.492 1893.04 270.492C1892.44 270.492 1891.95 270.002 1891.95 269.402C1891.95 268.802 1892.44 268.312 1893.04 268.312ZM1893.04 272.082C1893.64 272.082 1894.13 272.572 1894.13 273.172C1894.13 273.772 1893.64 274.262 1893.04 274.262C1892.44 274.262 1891.95 273.772 1891.95 273.172C1891.95 272.572 1892.44 272.082 1893.04 272.082ZM1893.04 275.852C1893.64 275.852 1894.13 276.342 1894.13 276.942C1894.13 277.542 1893.64 278.032 1893.04 278.032C1892.44 278.032 1891.95 277.542 1891.95 276.942C1891.95 276.342 1892.44 275.852 1893.04 275.852ZM1893.04 279.622C1893.64 279.622 1894.13 280.112 1894.13 280.712C1894.13 281.312 1893.64 281.802 1893.04 281.802C1892.44 281.802 1891.95 281.312 1891.95 280.712C1891.95 280.112 1892.44 279.622 1893.04 279.622ZM1893.04 283.392C1893.64 283.392 1894.13 283.882 1894.13 284.482C1894.13 285.082 1893.64 285.572 1893.04 285.572C1892.44 285.572 1891.95 285.082 1891.95 284.482C1891.95 283.882 1892.44 283.392 1893.04 283.392ZM1893.04 287.162C1893.64 287.162 1894.13 287.652 1894.13 288.252C1894.13 288.852 1893.64 289.342 1893.04 289.342C1892.44 289.342 1891.95 288.852 1891.95 288.252C1891.95 287.652 1892.44 287.162 1893.04 287.162ZM1893.04 290.932C1893.64 290.932 1894.13 291.422 1894.13 292.022C1894.13 292.622 1893.64 293.112 1893.04 293.112C1892.44 293.112 1891.95 292.622 1891.95 292.022C1891.95 291.422 1892.44 290.932 1893.04 290.932ZM1893.04 294.702C1893.64 294.702 1894.13 295.192 1894.13 295.792C1894.13 296.392 1893.64 296.882 1893.04 296.882C1892.44 296.882 1891.95 296.392 1891.95 295.792C1891.95 295.192 1892.44 294.702 1893.04 294.702ZM1889.9 266.442C1890.54 266.442 1891.06 266.962 1891.06 267.602C1891.06 268.242 1890.54 268.762 1889.9 268.762C1889.26 268.762 1888.74 268.242 1888.74 267.602C1888.74 266.962 1889.26 266.442 1889.9 266.442ZM1889.9 270.212C1890.54 270.212 1891.06 270.732 1891.06 271.372C1891.06 272.012 1890.54 272.532 1889.9 272.532C1889.26 272.532 1888.74 272.012 1888.74 271.372C1888.74 270.732 1889.26 270.212 1889.9 270.212ZM1889.9 273.982C1890.54 273.982 1891.06 274.502 1891.06 275.142C1891.06 275.782 1890.54 276.302 1889.9 276.302C1889.26 276.302 1888.74 275.782 1888.74 275.142C1888.74 274.502 1889.26 273.982 1889.9 273.982ZM1889.9 277.752C1890.54 277.752 1891.06 278.272 1891.06 278.912C1891.06 279.552 1890.54 280.072 1889.9 280.072C1889.26 280.072 1888.74 279.552 1888.74 278.912C1888.74 278.272 1889.26 277.752 1889.9 277.752ZM1889.9 281.522C1890.54 281.522 1891.06 282.042 1891.06 282.682C1891.06 283.322 1890.54 283.842 1889.9 283.842C1889.26 283.842 1888.74 283.322 1888.74 282.682C1888.74 282.042 1889.26 281.522 1889.9 281.522ZM1889.9 285.292C1890.54 285.292 1891.06 285.812 1891.06 286.452C1891.06 287.092 1890.54 287.612 1889.9 287.612C1889.26 287.612 1888.74 287.092 1888.74 286.452C1888.74 285.812 1889.26 285.292 1889.9 285.292ZM1889.9 289.062C1890.54 289.062 1891.06 289.582 1891.06 290.222C1891.06 290.862 1890.54 291.382 1889.9 291.382C1889.26 291.382 1888.74 290.862 1888.74 290.222C1888.74 289.582 1889.26 289.062 1889.9 289.062ZM1889.9 292.832C1890.54 292.832 1891.06 293.352 1891.06 293.992C1891.06 294.632 1890.54 295.152 1889.9 295.152C1889.26 295.152 1888.74 294.632 1888.74 293.992C1888.74 293.352 1889.26 292.832 1889.9 292.832ZM1886.77 264.592C1887.43 264.592 1887.96 265.122 1887.96 265.782C1887.96 266.442 1887.43 266.972 1886.77 266.972C1886.11 266.972 1885.58 266.442 1885.58 265.782C1885.58 265.122 1886.11 264.592 1886.77 264.592ZM1886.77 268.362C1887.43 268.362 1887.96 268.892 1887.96 269.552C1887.96 270.212 1887.43 270.742 1886.77 270.742C1886.11 270.742 1885.58 270.212 1885.58 269.552C1885.58 268.892 1886.11 268.362 1886.77 268.362ZM1886.77 272.132C1887.43 272.132 1887.96 272.662 1887.96 273.322C1887.96 273.982 1887.43 274.512 1886.77 274.512C1886.11 274.512 1885.58 273.982 1885.58 273.322C1885.58 272.662 1886.11 272.132 1886.77 272.132ZM1886.77 275.912C1887.43 275.912 1887.96 276.442 1887.96 277.102C1887.96 277.762 1887.43 278.292 1886.77 278.292C1886.11 278.292 1885.58 277.762 1885.58 277.102C1885.58 276.442 1886.11 275.912 1886.77 275.912ZM1886.77 279.682C1887.43 279.682 1887.96 280.212 1887.96 280.872C1887.96 281.532 1887.43 282.062 1886.77 282.062C1886.11 282.062 1885.58 281.532 1885.58 280.872C1885.58 280.212 1886.11 279.682 1886.77 279.682ZM1886.77 283.452C1887.43 283.452 1887.96 283.982 1887.96 284.642C1887.96 285.302 1887.43 285.832 1886.77 285.832C1886.11 285.832 1885.58 285.302 1885.58 284.642C1885.58 283.982 1886.11 283.452 1886.77 283.452ZM1886.77 287.222C1887.43 287.222 1887.96 287.752 1887.96 288.412C1887.96 289.072 1887.43 289.602 1886.77 289.602C1886.11 289.602 1885.58 289.072 1885.58 288.412C1885.58 287.752 1886.11 287.222 1886.77 287.222ZM1886.77 290.992C1887.43 290.992 1887.96 291.522 1887.96 292.182C1887.96 292.842 1887.43 293.372 1886.77 293.372C1886.11 293.372 1885.58 292.842 1885.58 292.182C1885.58 291.522 1886.11 290.992 1886.77 290.992ZM1883.64 262.772C1884.31 262.772 1884.85 263.312 1884.85 263.982C1884.85 264.652 1884.31 265.192 1883.64 265.192C1882.97 265.192 1882.43 264.652 1882.43 263.982C1882.43 263.312 1882.97 262.772 1883.64 262.772ZM1883.64 266.542C1884.31 266.542 1884.85 267.082 1884.85 267.752C1884.85 268.422 1884.31 268.962 1883.64 268.962C1882.97 268.962 1882.43 268.422 1882.43 267.752C1882.43 267.082 1882.97 266.542 1883.64 266.542ZM1883.64 270.312C1884.31 270.312 1884.85 270.852 1884.85 271.522C1884.85 272.192 1884.31 272.732 1883.64 272.732C1882.97 272.732 1882.43 272.192 1882.43 271.522C1882.43 270.852 1882.97 270.312 1883.64 270.312ZM1883.64 274.082C1884.31 274.082 1884.85 274.622 1884.85 275.292C1884.85 275.962 1884.31 276.502 1883.64 276.502C1882.97 276.502 1882.43 275.962 1882.43 275.292C1882.43 274.622 1882.97 274.082 1883.64 274.082ZM1883.64 277.852C1884.31 277.852 1884.85 278.392 1884.85 279.062C1884.85 279.732 1884.31 280.272 1883.64 280.272C1882.97 280.272 1882.43 279.732 1882.43 279.062C1882.43 278.392 1882.97 277.852 1883.64 277.852ZM1883.64 281.622C1884.31 281.622 1884.85 282.162 1884.85 282.832C1884.85 283.502 1884.31 284.042 1883.64 284.042C1882.97 284.042 1882.43 283.502 1882.43 282.832C1882.43 282.162 1882.97 281.622 1883.64 281.622ZM1883.64 285.392C1884.31 285.392 1884.85 285.932 1884.85 286.602C1884.85 287.272 1884.31 287.812 1883.64 287.812C1882.97 287.812 1882.43 287.272 1882.43 286.602C1882.43 285.932 1882.97 285.392 1883.64 285.392ZM1883.64 289.172C1884.31 289.172 1884.85 289.712 1884.85 290.382C1884.85 291.052 1884.31 291.592 1883.64 291.592C1882.97 291.592 1882.43 291.052 1882.43 290.382C1882.43 289.712 1882.97 289.172 1883.64 289.172ZM1880.51 264.472C1881.17 264.472 1881.7 265.002 1881.7 265.662C1881.7 266.322 1881.17 266.852 1880.51 266.852C1879.85 266.852 1879.32 266.322 1879.32 265.662C1879.32 265.002 1879.85 264.472 1880.51 264.472ZM1880.51 268.242C1881.17 268.242 1881.7 268.772 1881.7 269.432C1881.7 270.092 1881.17 270.622 1880.51 270.622C1879.85 270.622 1879.32 270.092 1879.32 269.432C1879.32 268.772 1879.85 268.242 1880.51 268.242ZM1880.51 272.012C1881.17 272.012 1881.7 272.542 1881.7 273.202C1881.7 273.862 1881.17 274.392 1880.51 274.392C1879.85 274.392 1879.32 273.862 1879.32 273.202C1879.32 272.542 1879.85 272.012 1880.51 272.012ZM1880.51 275.782C1881.17 275.782 1881.7 276.312 1881.7 276.972C1881.7 277.632 1881.17 278.162 1880.51 278.162C1879.85 278.162 1879.32 277.632 1879.32 276.972C1879.32 276.312 1879.85 275.782 1880.51 275.782ZM1880.51 279.552C1881.17 279.552 1881.7 280.082 1881.7 280.742C1881.7 281.402 1881.17 281.932 1880.51 281.932C1879.85 281.932 1879.32 281.402 1879.32 280.742C1879.32 280.082 1879.85 279.552 1880.51 279.552ZM1880.51 283.322C1881.17 283.322 1881.7 283.852 1881.7 284.512C1881.7 285.172 1881.17 285.702 1880.51 285.702C1879.85 285.702 1879.32 285.172 1879.32 284.512C1879.32 283.852 1879.85 283.322 1880.51 283.322ZM1880.51 287.092C1881.17 287.092 1881.7 287.622 1881.7 288.282C1881.7 288.942 1881.17 289.472 1880.51 289.472C1879.85 289.472 1879.32 288.942 1879.32 288.282C1879.32 287.622 1879.85 287.092 1880.51 287.092ZM1880.51 290.862C1881.17 290.862 1881.7 291.392 1881.7 292.052C1881.7 292.712 1881.17 293.242 1880.51 293.242C1879.85 293.242 1879.32 292.712 1879.32 292.052C1879.32 291.392 1879.85 290.862 1880.51 290.862ZM1877.37 266.322C1878.01 266.322 1878.53 266.842 1878.53 267.482C1878.53 268.122 1878.01 268.642 1877.37 268.642C1876.73 268.642 1876.21 268.122 1876.21 267.482C1876.21 266.842 1876.73 266.322 1877.37 266.322ZM1877.37 270.092C1878.01 270.092 1878.53 270.612 1878.53 271.252C1878.53 271.892 1878.01 272.412 1877.37 272.412C1876.73 272.412 1876.21 271.892 1876.21 271.252C1876.21 270.612 1876.73 270.092 1877.37 270.092ZM1877.37 273.862C1878.01 273.862 1878.53 274.382 1878.53 275.022C1878.53 275.662 1878.01 276.182 1877.37 276.182C1876.73 276.182 1876.21 275.662 1876.21 275.022C1876.21 274.382 1876.73 273.862 1877.37 273.862ZM1877.37 277.632C1878.01 277.632 1878.53 278.152 1878.53 278.792C1878.53 279.432 1878.01 279.952 1877.37 279.952C1876.73 279.952 1876.21 279.432 1876.21 278.792C1876.21 278.152 1876.73 277.632 1877.37 277.632ZM1877.37 281.402C1878.01 281.402 1878.53 281.922 1878.53 282.562C1878.53 283.202 1878.01 283.722 1877.37 283.722C1876.73 283.722 1876.21 283.202 1876.21 282.562C1876.21 281.922 1876.73 281.402 1877.37 281.402ZM1877.37 285.172C1878.01 285.172 1878.53 285.692 1878.53 286.332C1878.53 286.972 1878.01 287.492 1877.37 287.492C1876.73 287.492 1876.21 286.972 1876.21 286.332C1876.21 285.692 1876.73 285.172 1877.37 285.172ZM1877.37 288.942C1878.01 288.942 1878.53 289.462 1878.53 290.102C1878.53 290.742 1878.01 291.262 1877.37 291.262C1876.73 291.262 1876.21 290.742 1876.21 290.102C1876.21 289.462 1876.73 288.942 1877.37 288.942ZM1877.37 292.712C1878.01 292.712 1878.53 293.232 1878.53 293.872C1878.53 294.512 1878.01 295.032 1877.37 295.032C1876.73 295.032 1876.21 294.512 1876.21 293.872C1876.21 293.232 1876.73 292.712 1877.37 292.712ZM1874.24 268.192C1874.84 268.192 1875.33 268.682 1875.33 269.282C1875.33 269.882 1874.84 270.372 1874.24 270.372C1873.64 270.372 1873.15 269.882 1873.15 269.282C1873.15 268.682 1873.64 268.192 1874.24 268.192ZM1874.24 271.962C1874.84 271.962 1875.33 272.452 1875.33 273.052C1875.33 273.652 1874.84 274.142 1874.24 274.142C1873.64 274.142 1873.15 273.652 1873.15 273.052C1873.15 272.452 1873.64 271.962 1874.24 271.962ZM1874.24 275.732C1874.84 275.732 1875.33 276.222 1875.33 276.822C1875.33 277.422 1874.84 277.912 1874.24 277.912C1873.64 277.912 1873.15 277.422 1873.15 276.822C1873.15 276.222 1873.64 275.732 1874.24 275.732ZM1874.24 279.502C1874.84 279.502 1875.33 279.992 1875.33 280.592C1875.33 281.192 1874.84 281.682 1874.24 281.682C1873.64 281.682 1873.15 281.192 1873.15 280.592C1873.15 279.992 1873.64 279.502 1874.24 279.502ZM1874.24 283.272C1874.84 283.272 1875.33 283.762 1875.33 284.362C1875.33 284.962 1874.84 285.452 1874.24 285.452C1873.64 285.452 1873.15 284.962 1873.15 284.362C1873.15 283.762 1873.64 283.272 1874.24 283.272ZM1874.24 287.042C1874.84 287.042 1875.33 287.532 1875.33 288.132C1875.33 288.732 1874.84 289.222 1874.24 289.222C1873.64 289.222 1873.15 288.732 1873.15 288.132C1873.15 287.532 1873.64 287.042 1874.24 287.042ZM1874.24 290.812C1874.84 290.812 1875.33 291.302 1875.33 291.902C1875.33 292.502 1874.84 292.992 1874.24 292.992C1873.64 292.992 1873.15 292.502 1873.15 291.902C1873.15 291.302 1873.64 290.812 1874.24 290.812ZM1874.24 294.582C1874.84 294.582 1875.33 295.072 1875.33 295.672C1875.33 296.272 1874.84 296.762 1874.24 296.762C1873.64 296.762 1873.15 296.272 1873.15 295.672C1873.15 295.072 1873.64 294.582 1874.24 294.582ZM1871.11 270.092C1871.66 270.092 1872.11 270.542 1872.11 271.092C1872.11 271.642 1871.66 272.092 1871.11 272.092C1870.56 272.092 1870.11 271.642 1870.11 271.092C1870.11 270.542 1870.56 270.092 1871.11 270.092ZM1871.11 273.862C1871.66 273.862 1872.11 274.312 1872.11 274.862C1872.11 275.412 1871.66 275.862 1871.11 275.862C1870.56 275.862 1870.11 275.412 1870.11 274.862C1870.11 274.312 1870.56 273.862 1871.11 273.862ZM1871.11 277.632C1871.66 277.632 1872.11 278.082 1872.11 278.632C1872.11 279.182 1871.66 279.632 1871.11 279.632C1870.56 279.632 1870.11 279.182 1870.11 278.632C1870.11 278.082 1870.56 277.632 1871.11 277.632ZM1871.11 281.402C1871.66 281.402 1872.11 281.852 1872.11 282.402C1872.11 282.952 1871.66 283.402 1871.11 283.402C1870.56 283.402 1870.11 282.952 1870.11 282.402C1870.11 281.852 1870.56 281.402 1871.11 281.402ZM1871.11 285.172C1871.66 285.172 1872.11 285.622 1872.11 286.172C1872.11 286.722 1871.66 287.172 1871.11 287.172C1870.56 287.172 1870.11 286.722 1870.11 286.172C1870.11 285.622 1870.56 285.172 1871.11 285.172ZM1871.11 288.942C1871.66 288.942 1872.11 289.392 1872.11 289.942C1872.11 290.492 1871.66 290.942 1871.11 290.942C1870.56 290.942 1870.11 290.492 1870.11 289.942C1870.11 289.392 1870.56 288.942 1871.11 288.942ZM1871.11 292.712C1871.66 292.712 1872.11 293.162 1872.11 293.712C1872.11 294.262 1871.66 294.712 1871.11 294.712C1870.56 294.712 1870.11 294.262 1870.11 293.712C1870.11 293.162 1870.56 292.712 1871.11 292.712ZM1871.11 296.482C1871.66 296.482 1872.11 296.932 1872.11 297.482C1872.11 298.032 1871.66 298.482 1871.11 298.482C1870.56 298.482 1870.11 298.032 1870.11 297.482C1870.11 296.932 1870.56 296.482 1871.11 296.482ZM1867.98 272.022C1868.47 272.022 1868.86 272.412 1868.86 272.902C1868.86 273.392 1868.47 273.782 1867.98 273.782C1867.49 273.782 1867.1 273.392 1867.1 272.902C1867.1 272.412 1867.49 272.022 1867.98 272.022ZM1867.98 275.792C1868.47 275.792 1868.86 276.182 1868.86 276.672C1868.86 277.162 1868.47 277.552 1867.98 277.552C1867.49 277.552 1867.1 277.162 1867.1 276.672C1867.1 276.182 1867.49 275.792 1867.98 275.792ZM1867.98 279.562C1868.47 279.562 1868.86 279.952 1868.86 280.442C1868.86 280.932 1868.47 281.322 1867.98 281.322C1867.49 281.322 1867.1 280.932 1867.1 280.442C1867.1 279.952 1867.49 279.562 1867.98 279.562ZM1867.98 283.332C1868.47 283.332 1868.86 283.722 1868.86 284.212C1868.86 284.702 1868.47 285.092 1867.98 285.092C1867.49 285.092 1867.1 284.702 1867.1 284.212C1867.1 283.722 1867.49 283.332 1867.98 283.332ZM1867.98 287.102C1868.47 287.102 1868.86 287.492 1868.86 287.982C1868.86 288.472 1868.47 288.862 1867.98 288.862C1867.49 288.862 1867.1 288.472 1867.1 287.982C1867.1 287.492 1867.49 287.102 1867.98 287.102ZM1867.98 290.872C1868.47 290.872 1868.86 291.262 1868.86 291.752C1868.86 292.242 1868.47 292.632 1867.98 292.632C1867.49 292.632 1867.1 292.242 1867.1 291.752C1867.1 291.262 1867.49 290.872 1867.98 290.872ZM1867.98 294.642C1868.47 294.642 1868.86 295.032 1868.86 295.522C1868.86 296.012 1868.47 296.402 1867.98 296.402C1867.49 296.402 1867.1 296.012 1867.1 295.522C1867.1 295.032 1867.49 294.642 1867.98 294.642ZM1867.98 298.412C1868.47 298.412 1868.86 298.802 1868.86 299.292C1868.86 299.782 1868.47 300.172 1867.98 300.172C1867.49 300.172 1867.1 299.782 1867.1 299.292C1867.1 298.802 1867.49 298.412 1867.98 298.412ZM1864.85 273.982C1865.25 273.982 1865.57 274.302 1865.57 274.702C1865.57 275.102 1865.25 275.422 1864.85 275.422C1864.45 275.422 1864.13 275.102 1864.13 274.702C1864.13 274.302 1864.45 273.982 1864.85 273.982ZM1864.85 277.752C1865.25 277.752 1865.57 278.072 1865.57 278.472C1865.57 278.872 1865.25 279.192 1864.85 279.192C1864.45 279.192 1864.13 278.872 1864.13 278.472C1864.13 278.072 1864.45 277.752 1864.85 277.752ZM1864.85 281.522C1865.25 281.522 1865.57 281.842 1865.57 282.242C1865.57 282.642 1865.25 282.962 1864.85 282.962C1864.45 282.962 1864.13 282.642 1864.13 282.242C1864.13 281.842 1864.45 281.522 1864.85 281.522ZM1864.85 285.292C1865.25 285.292 1865.57 285.612 1865.57 286.012C1865.57 286.412 1865.25 286.732 1864.85 286.732C1864.45 286.732 1864.13 286.412 1864.13 286.012C1864.13 285.612 1864.45 285.292 1864.85 285.292ZM1864.85 289.072C1865.25 289.072 1865.57 289.392 1865.57 289.792C1865.57 290.192 1865.25 290.512 1864.85 290.512C1864.45 290.512 1864.13 290.192 1864.13 289.792C1864.13 289.392 1864.45 289.072 1864.85 289.072ZM1864.85 292.842C1865.25 292.842 1865.57 293.162 1865.57 293.562C1865.57 293.962 1865.25 294.282 1864.85 294.282C1864.45 294.282 1864.13 293.962 1864.13 293.562C1864.13 293.162 1864.45 292.842 1864.85 292.842ZM1864.85 296.612C1865.25 296.612 1865.57 296.932 1865.57 297.332C1865.57 297.732 1865.25 298.052 1864.85 298.052C1864.45 298.052 1864.13 297.732 1864.13 297.332C1864.13 296.932 1864.45 296.612 1864.85 296.612ZM1864.85 300.382C1865.25 300.382 1865.57 300.702 1865.57 301.102C1865.57 301.502 1865.25 301.822 1864.85 301.822C1864.45 301.822 1864.13 301.502 1864.13 301.102C1864.13 300.702 1864.45 300.382 1864.85 300.382ZM1861.71 275.982C1862.01 275.982 1862.25 276.222 1862.25 276.522C1862.25 276.822 1862.01 277.062 1861.71 277.062C1861.41 277.062 1861.17 276.822 1861.17 276.522C1861.17 276.222 1861.41 275.982 1861.71 275.982ZM1861.71 279.752C1862.01 279.752 1862.25 279.992 1862.25 280.292C1862.25 280.592 1862.01 280.832 1861.71 280.832C1861.41 280.832 1861.17 280.592 1861.17 280.292C1861.17 279.992 1861.41 279.752 1861.71 279.752ZM1861.71 283.522C1862.01 283.522 1862.25 283.762 1862.25 284.062C1862.25 284.362 1862.01 284.602 1861.71 284.602C1861.41 284.602 1861.17 284.362 1861.17 284.062C1861.17 283.762 1861.41 283.522 1861.71 283.522ZM1861.71 287.292C1862.01 287.292 1862.25 287.532 1862.25 287.832C1862.25 288.132 1862.01 288.372 1861.71 288.372C1861.41 288.372 1861.17 288.132 1861.17 287.832C1861.17 287.532 1861.41 287.292 1861.71 287.292ZM1861.71 291.062C1862.01 291.062 1862.25 291.302 1862.25 291.602C1862.25 291.902 1862.01 292.142 1861.71 292.142C1861.41 292.142 1861.17 291.902 1861.17 291.602C1861.17 291.302 1861.41 291.062 1861.71 291.062ZM1861.71 294.832C1862.01 294.832 1862.25 295.072 1862.25 295.372C1862.25 295.672 1862.01 295.912 1861.71 295.912C1861.41 295.912 1861.17 295.672 1861.17 295.372C1861.17 295.072 1861.41 294.832 1861.71 294.832ZM1861.71 298.602C1862.01 298.602 1862.25 298.842 1862.25 299.142C1862.25 299.442 1862.01 299.682 1861.71 299.682C1861.41 299.682 1861.17 299.442 1861.17 299.142C1861.17 298.842 1861.41 298.602 1861.71 298.602ZM1861.71 302.372C1862.01 302.372 1862.25 302.612 1862.25 302.912C1862.25 303.212 1862.01 303.452 1861.71 303.452C1861.41 303.452 1861.17 303.212 1861.17 302.912C1861.17 302.612 1861.41 302.372 1861.71 302.372ZM1858.58 278.022C1858.75 278.022 1858.88 278.152 1858.88 278.322C1858.88 278.492 1858.75 278.622 1858.58 278.622C1858.41 278.622 1858.28 278.492 1858.28 278.322C1858.28 278.152 1858.41 278.022 1858.58 278.022ZM1858.58 281.792C1858.75 281.792 1858.88 281.922 1858.88 282.092C1858.88 282.262 1858.75 282.392 1858.58 282.392C1858.41 282.392 1858.28 282.262 1858.28 282.092C1858.28 281.922 1858.41 281.792 1858.58 281.792ZM1858.58 285.562C1858.75 285.562 1858.88 285.692 1858.88 285.862C1858.88 286.032 1858.75 286.162 1858.58 286.162C1858.41 286.162 1858.28 286.032 1858.28 285.862C1858.28 285.692 1858.41 285.562 1858.58 285.562ZM1858.58 289.342C1858.75 289.342 1858.88 289.472 1858.88 289.642C1858.88 289.812 1858.75 289.942 1858.58 289.942C1858.41 289.942 1858.28 289.812 1858.28 289.642C1858.28 289.472 1858.41 289.342 1858.58 289.342ZM1858.58 293.112C1858.75 293.112 1858.88 293.242 1858.88 293.412C1858.88 293.582 1858.75 293.712 1858.58 293.712C1858.41 293.712 1858.28 293.582 1858.28 293.412C1858.28 293.242 1858.41 293.112 1858.58 293.112ZM1858.58 296.882C1858.75 296.882 1858.88 297.012 1858.88 297.182C1858.88 297.352 1858.75 297.482 1858.58 297.482C1858.41 297.482 1858.28 297.352 1858.28 297.182C1858.28 297.012 1858.41 296.882 1858.58 296.882ZM1858.58 300.652C1858.75 300.652 1858.88 300.782 1858.88 300.952C1858.88 301.122 1858.75 301.252 1858.58 301.252C1858.41 301.252 1858.28 301.122 1858.28 300.952C1858.28 300.782 1858.41 300.652 1858.58 300.652ZM1858.58 304.422C1858.75 304.422 1858.88 304.552 1858.88 304.722C1858.88 304.892 1858.75 305.022 1858.58 305.022C1858.41 305.022 1858.28 304.892 1858.28 304.722C1858.28 304.552 1858.41 304.422 1858.58 304.422ZM1883.53 324.022L1857.37 308.922L1883.53 293.822L1909.69 308.922L1883.53 324.022Z" fill="#962EFF"/>
<path d="M1861.44 345.772C1860.5 345.772 1859.69 345.582 1859 345.192C1858.31 344.802 1857.78 344.222 1857.42 343.442C1857.05 342.662 1856.87 341.692 1856.87 340.532C1856.87 338.832 1857.26 337.552 1858.03 336.702C1858.8 335.852 1859.86 335.422 1861.21 335.422C1862.27 335.422 1863.11 335.662 1863.76 336.132C1864.4 336.612 1864.86 337.252 1865.14 338.052C1865.42 338.862 1865.55 339.772 1865.54 340.782H1857.6L1857.7 339.472H1864.61L1864.06 339.672C1864.02 338.682 1863.77 337.942 1863.32 337.452C1862.86 336.962 1862.17 336.722 1861.23 336.722C1860.58 336.722 1860.04 336.842 1859.62 337.082C1859.19 337.322 1858.87 337.732 1858.66 338.322C1858.45 338.912 1858.34 339.732 1858.34 340.792C1858.34 341.992 1858.62 342.912 1859.18 343.532C1859.74 344.162 1860.53 344.472 1861.55 344.472C1862.04 344.472 1862.49 344.432 1862.9 344.362C1863.31 344.292 1863.69 344.192 1864.03 344.052C1864.37 343.922 1864.68 343.772 1864.94 343.612V345.082C1864.46 345.302 1863.94 345.482 1863.37 345.602C1862.8 345.722 1862.16 345.782 1861.48 345.782L1861.44 345.772Z" fill="#962EFF"/>
<path d="M1872.95 336.382C1873.27 336.222 1873.59 336.082 1873.93 335.952C1874.27 335.822 1874.61 335.722 1874.96 335.642C1875.31 335.562 1875.67 335.502 1876.03 335.462C1876.39 335.422 1876.76 335.402 1877.13 335.402C1878.09 335.402 1878.86 335.542 1879.43 335.832C1880 336.112 1880.41 336.532 1880.67 337.072C1880.93 337.612 1881.06 338.272 1881.06 339.032V345.472H1879.63V339.032C1879.63 338.792 1879.6 338.542 1879.54 338.282C1879.48 338.022 1879.36 337.762 1879.19 337.522C1879.02 337.282 1878.75 337.082 1878.4 336.932C1878.04 336.782 1877.57 336.702 1876.97 336.702C1876.56 336.702 1876.14 336.732 1875.7 336.802C1875.26 336.872 1874.82 336.972 1874.37 337.102V345.482H1872.94V336.392L1872.95 336.382Z" fill="#962EFF"/>
<path d="M1893.04 345.772C1891.49 345.772 1890.35 345.312 1889.6 344.392C1888.85 343.472 1888.48 342.192 1888.48 340.562C1888.48 338.932 1888.87 337.562 1889.66 336.702C1890.45 335.842 1891.56 335.412 1893 335.412C1894.07 335.412 1894.94 335.622 1895.61 336.052C1896.28 336.482 1896.78 337.082 1897.1 337.852C1897.42 338.622 1897.58 339.522 1897.58 340.552C1897.58 342.172 1897.19 343.452 1896.4 344.372C1895.61 345.292 1894.49 345.762 1893.04 345.762V345.772ZM1893.02 344.462C1893.83 344.462 1894.45 344.292 1894.9 343.942C1895.35 343.592 1895.67 343.122 1895.86 342.532C1896.05 341.942 1896.15 341.292 1896.15 340.562C1896.15 339.782 1896.05 339.102 1895.85 338.532C1895.65 337.962 1895.33 337.512 1894.87 337.192C1894.41 336.872 1893.8 336.712 1893.02 336.712C1892.24 336.712 1891.61 336.882 1891.16 337.222C1890.71 337.562 1890.39 338.022 1890.2 338.602C1890.01 339.172 1889.91 339.832 1889.91 340.552C1889.91 341.712 1890.14 342.652 1890.6 343.372C1891.06 344.092 1891.87 344.452 1893.02 344.452V344.462Z" fill="#962EFF"/>
<path d="M1905.01 345.472V336.382C1905.17 336.312 1905.48 336.202 1905.93 336.042C1906.38 335.882 1906.93 335.742 1907.57 335.602C1908.21 335.472 1908.87 335.402 1909.56 335.402C1909.67 335.402 1909.77 335.412 1909.88 335.442C1909.99 335.472 1910.09 335.492 1910.2 335.522V336.792C1909.86 336.752 1909.52 336.732 1909.2 336.732C1908.88 336.732 1908.56 336.752 1908.26 336.782C1907.96 336.812 1907.65 336.862 1907.35 336.912C1907.05 336.962 1906.74 337.022 1906.44 337.072V345.472H1905.01Z" fill="#962EFF"/>
<path d="M1683.57 1732.45C1679.63 1685.95 1658.96 1640.73 1621.91 1606.64C1586.68 1574.22 1542.65 1557.38 1498.28 1555.74C1531.02 1471.87 1511.25 1372.9 1441.02 1308.26C1371.16 1243.96 1271.58 1232.24 1190.93 1271.06C1174.41 1244.88 1154.22 1220.41 1130.35 1198.45C984.654 1064.36 757.844 1073.77 623.754 1219.47C554.104 1295.15 523.194 1392.71 529.964 1487.8C418.204 1473.12 301.284 1511.21 219.154 1600.46C183.044 1639.7 157.434 1684.84 142.004 1732.45H1683.57Z" fill="white"/>
<path opacity="0.5" d="M2535.46 1497.92C2601.16 1554.33 2691.36 1563.65 2764.95 1529.04C2765.03 1529.53 2765.09 1530.02 2765.17 1530.5C2764.35 1532.8 2763.55 1535.1 2762.79 1537.42C2737.42 1536.56 2711.91 1546.78 2694.09 1567.54C2662.93 1603.83 2667.09 1658.5 2703.38 1689.66C2718.8 1702.9 2737.54 1709.74 2756.39 1710.47C2757.61 1715.36 2759 1720.22 2760.46 1725.06H3482.03C3498.46 1712.37 3513.88 1697.88 3527.94 1681.51C3639.52 1551.55 3624.62 1355.74 3494.66 1244.16C3386.79 1151.55 3233.57 1146.08 3120.79 1221.2C3112.5 1180.21 3091.01 1141.57 3056.82 1112.22C2975.25 1042.19 2852.36 1051.54 2782.32 1133.11C2778.47 1137.59 2774.88 1142.2 2771.51 1146.92C2685.86 1102.82 2578.1 1121.35 2512.6 1197.64C2435.99 1286.87 2446.21 1421.32 2535.45 1497.93L2535.46 1497.92Z" fill="white"/>
<path d="M2081.5 1732.45H3238.18C3242.43 1709.77 3244.68 1686.39 3244.68 1662.47C3244.68 1554.35 3199.21 1456.87 3126.37 1388.05C3152.16 1368.84 3168.87 1338.11 3168.87 1303.48C3168.87 1245.27 3121.68 1198.09 3063.48 1198.09C3005.28 1198.09 2962.15 1241.35 2958.37 1296.12C2929.18 1288.88 2898.66 1285.02 2867.24 1285.02C2804.32 1285.02 2745.01 1300.44 2692.85 1327.66C2659.7 1236.82 2572.54 1171.97 2470.24 1171.97C2339.4 1171.97 2233.34 1278.04 2233.34 1408.87C2233.34 1449.07 2243.37 1486.93 2261.04 1520.1C2163.12 1544.15 2089.17 1629.07 2081.52 1732.44L2081.5 1732.45Z" fill="white"/>
</svg>
