<svg width="3603" height="2257" viewBox="0 0 3603 2257" fill="none" xmlns="http://www.w3.org/2000/svg">
<path d="M2019.07 661.154C2019.07 886.965 1995.3 1086.26 1959.09 1204.87H1803.86C1787.59 1151.54 1773.81 1082 1763.59 1001.03C1753.74 922.979 1747.19 834.384 1744.86 739.6C1744.21 713.866 1743.88 687.707 1743.88 661.187C1743.88 297.506 1881.46 2.71094 1881.46 2.71094C1881.46 2.71094 2019.03 297.539 2019.03 661.187L2019.07 661.154Z" stroke="white" stroke-miterlimit="10"/>
<path d="M1959.08 1204.87C1949.09 1237.52 1938.22 1264.04 1926.6 1283.35H1836.37C1824.74 1264.04 1813.84 1237.52 1803.89 1204.87H1959.11H1959.08Z" stroke="white" stroke-miterlimit="10"/>
<path d="M1636.22 1121.58L1682.75 1462.57L1551 1102.17L1744.86 739.5V739.566C1747.21 834.35 1753.76 922.977 1763.62 1001L1636.22 1121.55V1121.58Z" fill="white" stroke="white" stroke-linejoin="round"/>
<path d="M2126.78 1121.58L2080.25 1462.57L2212 1102.17L2018.14 739.5V739.566C2015.79 834.35 2009.24 922.977 1999.38 1001L2126.78 1121.55V1121.58Z" fill="white" stroke="white" stroke-linejoin="round"/>
<path d="M1966.48 661.154C1966.48 886.965 1951.78 1086.26 1929.42 1204.87H1833.52C1823.47 1151.54 1814.96 1082 1808.64 1001.03C1802.55 922.979 1798.49 834.384 1797.08 739.6C1796.66 713.866 1796.46 687.707 1796.46 661.187C1796.46 297.506 1881.45 2.71094 1881.45 2.71094C1881.45 2.71094 1966.45 297.539 1966.45 661.187L1966.48 661.154Z" stroke="white" stroke-miterlimit="10"/>
<path d="M1805.52 1210.21C1855.75 1205.72 1906.33 1205.69 1956.55 1210.21C1906.33 1214.73 1855.75 1214.7 1805.52 1210.21Z" fill="white"/>
<path d="M1805.52 1204.87C1830.5 1199.7 1855.71 1198.49 1881.05 1198.33C1906.4 1198.46 1931.57 1199.67 1956.59 1204.87C1931.61 1210.08 1906.4 1211.29 1881.05 1211.42C1855.71 1211.26 1830.54 1210.05 1805.52 1204.87Z" fill="white"/>
<path d="M1952.89 1217.05C1905.12 1221.54 1856.93 1221.57 1809.16 1217.05C1856.93 1212.53 1905.12 1212.57 1952.89 1217.05Z" fill="white"/>
<path d="M1952.04 1223.89C1904.83 1228.38 1857.22 1228.41 1810.01 1223.89C1857.22 1219.38 1904.83 1219.41 1952.04 1223.89Z" fill="white"/>
<path d="M1949.65 1230.74C1904.04 1235.23 1858.01 1235.26 1812.43 1230.74C1858.04 1226.22 1904.04 1226.25 1949.65 1230.74Z" fill="white"/>
<path d="M1946.41 1237.58C1902.96 1242.07 1859.09 1242.1 1815.64 1237.58C1859.09 1233.07 1902.96 1233.1 1946.41 1237.58Z" fill="white"/>
<path d="M1944.47 1244.42C1902.33 1248.91 1859.74 1248.94 1817.6 1244.42C1859.74 1239.9 1902.33 1239.94 1944.47 1244.42Z" fill="white"/>
<path d="M1941.66 1251.27C1901.38 1255.75 1860.66 1255.79 1820.38 1251.27C1860.66 1246.75 1901.38 1246.78 1941.66 1251.27Z" fill="white"/>
<path d="M1937.82 1258.14C1900.14 1262.63 1861.93 1262.66 1824.25 1258.14C1861.93 1253.62 1900.14 1253.66 1937.82 1258.14Z" fill="white"/>
<path d="M1934.27 1264.99C1898.97 1269.47 1863.12 1269.51 1827.83 1264.99C1863.12 1260.47 1898.97 1260.5 1934.27 1264.99Z" fill="white"/>
<path d="M1932.13 1271.83C1898.24 1276.31 1863.8 1276.35 1829.91 1271.83C1863.8 1267.31 1898.24 1267.34 1932.13 1271.83Z" fill="white"/>
<path d="M1928.43 1278.67C1897.04 1283.15 1865.02 1283.19 1833.62 1278.67C1865.02 1274.15 1897.04 1274.18 1928.43 1278.67Z" fill="white"/>
<path d="M1904.63 1051.06C1904.63 1278.31 1881.48 1462.57 1881.48 1462.57C1881.48 1462.57 1858.33 1278.34 1858.33 1051.06C1858.33 823.775 1881.48 639.545 1881.48 639.545C1881.48 639.545 1904.63 823.775 1904.63 1051.06Z" fill="white" stroke="white" stroke-miterlimit="10"/>
<path d="M1802.73 489.626L1754.05 486.352L1802.73 483.078V489.626Z" fill="white"/>
<path d="M1802.73 483.505L1754.05 480.231L1802.73 476.957V483.505Z" fill="white"/>
<path d="M1802.73 477.415L1754.05 474.14L1802.73 470.866V477.415Z" fill="white"/>
<path d="M1802.73 471.292L1754.05 468.018L1802.73 464.744V471.292Z" fill="white"/>
<path d="M1804.17 465.204L1754.05 461.93L1804.17 458.656V465.204Z" fill="white"/>
<path d="M1805.06 459.08L1757.81 455.806L1805.06 452.532V459.08Z" fill="white"/>
<path d="M1805.48 452.991L1757.62 449.717L1805.48 446.443V452.991Z" fill="white"/>
<path d="M1805.49 446.869L1760.34 443.595L1805.49 440.321V446.869Z" fill="white"/>
<path d="M1806.63 440.778L1760.34 437.504L1806.63 434.23V440.778Z" fill="white"/>
<path d="M1806.63 434.656L1761.25 431.382L1806.63 428.108V434.656Z" fill="white"/>
<path d="M1806.63 428.566L1762.13 425.292L1806.63 422.018V428.566Z" fill="white"/>
<path d="M1807.64 422.444L1762.85 419.17L1807.64 415.896V422.444Z" fill="white"/>
<path d="M1808.92 416.354L1764.04 413.08L1808.92 409.806V416.354Z" fill="white"/>
<path d="M1808.92 410.232L1765.02 406.958L1808.92 403.684V410.232Z" fill="white"/>
<path d="M1810.04 404.143L1765.02 400.869L1810.04 397.594V404.143Z" fill="white"/>
<path d="M1809.61 398.019L1767.04 394.745L1809.61 391.47V398.019Z" fill="white"/>
<path d="M1811.31 391.93L1768.1 388.656L1811.31 385.382V391.93Z" fill="white"/>
<path d="M1811.31 385.806L1769.17 382.532L1811.31 379.258V385.806Z" fill="white"/>
<path d="M1811.31 379.717L1770.25 376.443L1811.31 373.169V379.717Z" fill="white"/>
<path d="M1812.69 373.595L1771.37 370.321L1812.69 367.047V373.595Z" fill="white"/>
<path d="M1813.41 367.505L1772.32 364.231L1813.41 360.957V367.505Z" fill="white"/>
<path d="M1814.95 361.384L1773.66 358.109L1814.95 354.835V361.384Z" fill="white"/>
<path d="M1814.95 355.293L1774.97 352.019L1814.95 348.745V355.293Z" fill="white"/>
<path d="M1816.19 349.17L1774.97 345.896L1816.19 342.622V349.17Z" fill="white"/>
<path d="M1816.2 343.081L1777.04 339.807L1816.2 336.533V343.081Z" fill="white"/>
<path d="M1817.96 336.959L1778.37 333.685L1817.96 330.411V336.959Z" fill="white"/>
<path d="M1818.64 330.868L1779.78 327.594L1818.64 324.32V330.868Z" fill="white"/>
<path d="M1819.17 324.747L1780.86 321.473L1819.17 318.199V324.747Z" fill="white"/>
<path d="M1819.16 318.657L1782.4 315.383L1819.16 312.109V318.657Z" fill="white"/>
<path d="M1820.84 312.535L1783.75 309.261L1820.84 305.987V312.535Z" fill="white"/>
<path d="M1820.85 306.444L1785.09 303.17L1820.85 299.896V306.444Z" fill="white"/>
<path d="M1822.15 300.322L1786.46 297.048L1822.15 293.774V300.322Z" fill="white"/>
<path d="M1823.66 294.231L1787.48 290.957L1823.66 287.683V294.231Z" fill="white"/>
<path d="M1823.65 288.109L1789.08 284.835L1823.65 281.561V288.109Z" fill="white"/>
<path d="M1825.49 282.02L1790.36 278.745L1825.49 275.471V282.02Z" fill="white"/>
<path d="M1825.16 275.897L1791.54 272.623L1825.16 269.349V275.897Z" fill="white"/>
<path d="M1826.89 269.809L1793.69 266.535L1826.89 263.261V269.809Z" fill="white"/>
<path d="M1827.55 263.686L1795.2 260.412L1827.55 257.138V263.686Z" fill="white"/>
<path d="M1829.52 257.596L1796.45 254.322L1829.52 251.048V257.596Z" fill="white"/>
<path d="M1829.81 251.474L1798.31 248.2L1829.81 244.926V251.474Z" fill="white"/>
<path d="M1830.5 245.384L1799.88 242.11L1830.5 238.836V245.384Z" fill="white"/>
<path d="M1832.59 239.261L1801.49 235.987L1832.59 232.713V239.261Z" fill="white"/>
<path d="M1833.45 233.17L1803.1 229.896L1833.45 226.622V233.17Z" fill="white"/>
<path d="M1834.16 227.049L1804.76 223.775L1834.16 220.501V227.049Z" fill="white"/>
<path d="M1834.13 220.959L1806.43 217.685L1834.13 214.411V220.959Z" fill="white"/>
<path d="M1836.26 214.837L1808.1 211.563L1836.26 208.289V214.837Z" fill="white"/>
<path d="M1837.21 208.747L1809.54 205.473L1837.21 202.198V208.747Z" fill="white"/>
<path d="M1838.62 202.625L1811.57 199.35L1838.62 196.076V202.625Z" fill="white"/>
<path d="M1839.24 196.532L1813.34 193.258L1839.24 189.984V196.532Z" fill="white"/>
<path d="M1840.48 190.412L1815.11 187.138L1840.48 183.864V190.412Z" fill="white"/>
<path d="M1841.4 184.323L1816.91 181.049L1841.4 177.775V184.323Z" fill="white"/>
<path d="M1842.68 178.2L1818.75 174.926L1842.68 171.652V178.2Z" fill="white"/>
<path d="M1844.05 172.11L1819.85 168.836L1844.05 165.562V172.11Z" fill="white"/>
<path d="M1844.48 165.988L1821.95 162.714L1844.48 159.44V165.988Z" fill="white"/>
<path d="M1845.62 159.899L1824.37 156.625L1845.62 153.351V159.899Z" fill="white"/>
<path d="M1847.43 153.775L1826.02 150.501L1847.43 147.227V153.775Z" fill="white"/>
<path d="M1847.88 147.687L1827.91 144.413L1847.88 141.139V147.687Z" fill="white"/>
<path d="M1850.28 141.562L1830.21 138.288L1850.28 135.014V141.562Z" fill="white"/>
<path d="M1851.06 135.474L1832.2 132.2L1851.06 128.926V135.474Z" fill="white"/>
<path d="M1851.68 129.351L1834.23 126.077L1851.68 122.803V129.351Z" fill="white"/>
<path d="M1852.86 123.262L1836.82 119.988L1852.86 116.714V123.262Z" fill="white"/>
<path d="M1853.78 117.139L1838.36 113.865L1853.78 110.591V117.139Z" fill="white"/>
<path d="M1856.01 111.05L1840.03 107.776L1856.01 104.501V111.05Z" fill="white"/>
<path d="M1857.18 104.959L1841.93 101.685L1857.18 98.4111V104.959Z" fill="white"/>
<path d="M1857.57 98.8391L1844.61 95.5651L1857.57 92.291V98.8391Z" fill="white"/>
<path d="M1860.1 92.7461L1846.48 89.472L1860.1 86.198V92.7461Z" fill="white"/>
<path d="M1861.37 86.625L1849.55 83.3509L1861.37 80.0769V86.625Z" fill="white"/>
<path d="M1862.84 80.5351L1851.09 77.2611L1862.84 73.9871V80.5351Z" fill="white"/>
<path d="M1863.77 74.4119L1853.78 71.1378L1863.77 67.8638V74.4119Z" fill="white"/>
<path d="M1865.66 68.3237L1856 65.0497L1865.66 61.7756V68.3237Z" fill="white"/>
<path d="M1866.71 62.1997L1858 58.9257L1866.71 55.6516V62.1997Z" fill="white"/>
<path d="M1868.41 56.1113L1860.1 52.8373L1868.41 49.5632V56.1113Z" fill="white"/>
<path d="M1870.51 49.9895L1862.85 46.7154L1870.51 43.4414V49.9895Z" fill="white"/>
<path d="M1870.57 43.8992L1864.51 40.6251L1870.57 37.3511V43.8992Z" fill="white"/>
<path d="M1873.09 37.7766L1867.53 34.5026L1873.09 31.2285V37.7766Z" fill="white"/>
<path d="M1873.78 31.687L1869.46 28.413L1873.78 25.1389V31.687Z" fill="white"/>
<path d="M1875.49 25.563L1871.79 22.2889L1875.49 19.0149V25.563Z" fill="white"/>
<path d="M1877.25 19.4744L1874.76 16.2003L1877.25 12.9263V19.4744Z" fill="white"/>
<path d="M1802.73 495.487L1754.05 492.213L1802.73 488.939V495.487Z" fill="white"/>
<path d="M1802.73 501.348L1754.05 498.074L1802.73 494.8V501.348Z" fill="white"/>
<path d="M1801.29 507.242L1752.61 503.968L1801.29 500.694V507.242Z" fill="white"/>
<path d="M1800.84 513.103L1751.53 509.828L1800.84 506.554V513.103Z" fill="white"/>
<path d="M1800.84 518.962L1751.53 515.688L1800.84 512.414V518.962Z" fill="white"/>
<path d="M1800.47 524.855L1750.41 521.581L1800.47 518.307V524.855Z" fill="white"/>
<path d="M1800.15 530.716L1749.86 527.442L1800.15 524.168V530.716Z" fill="white"/>
<path d="M1799.85 536.578L1749.63 533.304L1799.85 530.03V536.578Z" fill="white"/>
<path d="M1798.74 542.47L1749.04 539.196L1798.74 535.922V542.47Z" fill="white"/>
<path d="M1798.74 548.332L1748.42 545.057L1798.74 541.783V548.332Z" fill="white"/>
<path d="M1798.74 554.191L1747.96 550.917L1798.74 547.643V554.191Z" fill="white"/>
<path d="M1798.74 560.085L1747.99 556.811L1798.74 553.537V560.085Z" fill="white"/>
<path d="M1798.48 565.945L1747.4 562.671L1798.48 559.397V565.945Z" fill="white"/>
<path d="M1798.24 571.806L1746.74 568.532L1798.24 565.258V571.806Z" fill="white"/>
<path d="M1798.02 577.7L1746.38 574.426L1798.02 571.152V577.7Z" fill="white"/>
<path d="M1797.82 583.56L1746.06 580.286L1797.82 577.011V583.56Z" fill="white"/>
<path d="M1797.47 589.419L1745.74 586.145L1797.47 582.871V589.419Z" fill="white"/>
<path d="M1797.47 595.313L1745.74 592.039L1797.47 588.765V595.313Z" fill="white"/>
<path d="M1796.64 601.173L1745.24 597.899L1796.64 594.625V601.173Z" fill="white"/>
<path d="M1796.67 607.035L1745.01 603.761L1796.67 600.487V607.035Z" fill="white"/>
<path d="M1796.45 612.928L1745.74 609.654L1796.45 606.38V612.928Z" fill="white"/>
<path d="M1797.13 618.786L1744.59 615.512L1797.13 612.238V618.786Z" fill="white"/>
<path d="M1797.14 624.646L1744.43 621.372L1797.14 618.098V624.646Z" fill="white"/>
<path d="M1797.07 630.541L1744.26 627.267L1797.07 623.993V630.541Z" fill="white"/>
<path d="M1797.07 636.402L1744.26 633.128L1797.07 629.854V636.402Z" fill="white"/>
<path d="M1796.68 642.264L1743.87 638.99L1796.68 635.716V642.264Z" fill="white"/>
<path d="M1796.65 648.155L1743.97 644.881L1796.65 641.607V648.155Z" fill="white"/>
<path d="M1796.68 654.016L1743.87 650.742L1796.68 647.468V654.016Z" fill="white"/>
<path d="M1796.45 659.878L1743.87 656.604L1796.45 653.33V659.878Z" fill="white"/>
<path d="M1796.45 665.772L1743.87 662.498L1796.45 659.224V665.772Z" fill="white"/>
<path d="M1796.45 671.631L1743.87 668.357L1796.45 665.083V671.631Z" fill="white"/>
<path d="M1796.45 677.492L1744.26 674.218L1796.45 670.944V677.492Z" fill="white"/>
<path d="M1796.68 683.385L1744.36 680.11L1796.68 676.836V683.385Z" fill="white"/>
<path d="M1796.64 689.246L1744.88 685.972L1796.64 682.698V689.246Z" fill="white"/>
<path d="M1796.45 695.107L1743.87 691.833L1796.45 688.559V695.107Z" fill="white"/>
<path d="M1796.45 700.999L1744.36 697.725L1796.45 694.451V700.999Z" fill="white"/>
<path d="M1796.65 706.861L1744.36 703.587L1796.65 700.313V706.861Z" fill="white"/>
<path d="M1796.68 712.722L1744.26 709.448L1796.68 706.174V712.722Z" fill="white"/>
<path d="M1797.07 718.614L1744.36 715.339L1797.07 712.065V718.614Z" fill="white"/>
<path d="M1796.45 724.475L1744.88 721.201L1796.45 717.927V724.475Z" fill="white"/>
<path d="M1797.14 730.335L1744.88 727.061L1797.14 723.787V730.335Z" fill="white"/>
<path d="M1796.45 736.228L1745.74 732.954L1796.45 729.68V736.228Z" fill="white"/>
<path d="M1797.07 742.091L1744.88 738.817L1797.07 735.542V742.091Z" fill="white"/>
<path d="M1797.14 747.951L1745.14 744.677L1797.14 741.403V747.951Z" fill="white"/>
<path d="M1796.45 753.842L1745.14 750.567L1796.45 747.293V753.842Z" fill="white"/>
<path d="M1797.37 759.704L1745.74 756.43L1797.37 753.156V759.704Z" fill="white"/>
<path d="M1797.37 765.564L1745.74 762.29L1797.37 759.016V765.564Z" fill="white"/>
<path d="M1797.37 771.454L1745.74 768.18L1797.37 764.906V771.454Z" fill="white"/>
<path d="M1797.36 777.317L1746.12 774.043L1797.36 770.769V777.317Z" fill="white"/>
<path d="M1797.36 783.179L1746.12 779.905L1797.36 776.631V783.179Z" fill="white"/>
<path d="M1797.36 789.072L1746.35 785.797L1797.36 782.523V789.072Z" fill="white"/>
<path d="M1798.15 794.932L1746.84 791.658L1798.15 788.384V794.932Z" fill="white"/>
<path d="M1798.28 800.792L1746.84 797.518L1798.28 794.244V800.792Z" fill="white"/>
<path d="M1798.45 806.687L1747.44 803.413L1798.45 800.139V806.687Z" fill="white"/>
<path d="M1799 812.547L1747.44 809.273L1799 805.999V812.547Z" fill="white"/>
<path d="M1798.48 818.408L1747.67 815.134L1798.48 811.86V818.408Z" fill="white"/>
<path d="M1799.17 824.299L1747.96 821.025L1799.17 817.751V824.299Z" fill="white"/>
<path d="M1799.17 830.16L1749.24 826.886L1799.17 823.612V830.16Z" fill="white"/>
<path d="M1799.36 836.022L1748.58 832.748L1799.36 829.474V836.022Z" fill="white"/>
<path d="M1799.56 841.915L1749.27 838.641L1799.56 835.367V841.915Z" fill="white"/>
<path d="M1799.79 847.775L1749.27 844.501L1799.79 841.227V847.775Z" fill="white"/>
<path d="M1799.56 853.635L1749.86 850.36L1799.56 847.086V853.635Z" fill="white"/>
<path d="M1799.56 859.528L1750.02 856.254L1799.56 852.98V859.528Z" fill="white"/>
<path d="M1800.51 865.388L1750.84 862.114L1800.51 858.84V865.388Z" fill="white"/>
<path d="M1800.74 871.251L1750.84 867.977L1800.74 864.703V871.251Z" fill="white"/>
<path d="M1801 877.143L1751.2 873.869L1801 870.595V877.143Z" fill="white"/>
<path d="M1801.52 883.004L1751.63 879.73L1801.52 876.456V883.004Z" fill="white"/>
<path d="M1801.52 888.864L1752.08 885.589L1801.52 882.315V888.864Z" fill="white"/>
<path d="M1802.73 894.758L1752.51 891.484L1802.73 888.209V894.758Z" fill="white"/>
<path d="M1802.73 900.617L1752.51 897.343L1802.73 894.069V900.617Z" fill="white"/>
<path d="M1802.73 906.478L1754.05 903.204L1802.73 899.93V906.478Z" fill="white"/>
<path d="M1802.73 912.373L1754.05 909.099L1802.73 905.825V912.373Z" fill="white"/>
<path d="M1802.73 918.232L1754.05 914.958L1802.73 911.684V918.232Z" fill="white"/>
<path d="M1802.73 924.093L1754.05 920.818L1802.73 917.544V924.093Z" fill="white"/>
<path d="M1802.73 929.986L1754.05 926.712L1802.73 923.438V929.986Z" fill="white"/>
<path d="M1802.74 935.846L1756.08 932.572L1802.74 929.298V935.846Z" fill="white"/>
<path d="M1804.34 941.708L1756.64 938.434L1804.34 935.16V941.708Z" fill="white"/>
<path d="M1804.7 947.601L1757.19 944.327L1804.7 941.053V947.601Z" fill="white"/>
<path d="M1805.06 953.462L1757.78 950.188L1805.06 946.914V953.462Z" fill="white"/>
<path d="M1805.42 959.322L1758.21 956.047L1805.42 952.773V959.322Z" fill="white"/>
<path d="M1805.81 965.215L1759.02 961.941L1805.81 958.667V965.215Z" fill="white"/>
<path d="M1806.21 971.075L1759.69 967.801L1806.21 964.527V971.075Z" fill="white"/>
<path d="M1807.09 976.937L1760.34 973.663L1807.09 970.389V976.937Z" fill="white"/>
<path d="M1807.09 982.831L1760.99 979.557L1807.09 976.283V982.831Z" fill="white"/>
<path d="M1807.45 988.69L1766.03 985.416L1807.45 982.142V988.69Z" fill="white"/>
<path d="M1807.94 994.55L1762.4 991.276L1807.94 988.002V994.55Z" fill="white"/>
<path d="M1808.33 1000.44L1763.22 997.169L1808.33 993.895V1000.44Z" fill="white"/>
<path d="M1809.25 1006.3L1763.84 1003.03L1809.25 999.754V1006.3Z" fill="white"/>
<path d="M1809.25 1012.16L1764.73 1008.89L1809.25 1005.62V1012.16Z" fill="white"/>
<path d="M1809.74 1018.06L1765.48 1014.78L1809.74 1011.51V1018.06Z" fill="white"/>
<path d="M1810.23 1023.92L1766.36 1020.64L1810.23 1017.37V1023.92Z" fill="white"/>
<path d="M1810.72 1029.78L1767.8 1026.51L1810.72 1023.23V1029.78Z" fill="white"/>
<path d="M1811.25 1035.67L1767.8 1032.4L1811.25 1029.12V1035.67Z" fill="white"/>
<path d="M1811.83 1041.53L1768.78 1038.26L1811.83 1034.98V1041.53Z" fill="white"/>
<path d="M1812.29 1047.39L1769.67 1044.12L1812.29 1040.85V1047.39Z" fill="white"/>
<path d="M1812.85 1053.29L1770.59 1050.01L1812.85 1046.74V1053.29Z" fill="white"/>
<path d="M1813.41 1059.15L1771.47 1055.87L1813.41 1052.6V1059.15Z" fill="white"/>
<path d="M1814 1065.01L1772.19 1061.73L1814 1058.46V1065.01Z" fill="white"/>
<path d="M1814.58 1070.9L1773.39 1067.63L1814.58 1064.35V1070.9Z" fill="white"/>
<path d="M1815.18 1076.76L1774.18 1073.49L1815.18 1070.21V1076.76Z" fill="white"/>
<path d="M1815.8 1082.62L1774.58 1079.35L1815.8 1076.07V1082.62Z" fill="white"/>
<path d="M1815.96 1088.52L1776.44 1085.24L1815.96 1081.97V1088.52Z" fill="white"/>
<path d="M1815.96 1094.38L1777.26 1091.1L1815.96 1087.83V1094.38Z" fill="white"/>
<path d="M1817.47 1100.24L1778.67 1096.96L1817.47 1093.69V1100.24Z" fill="white"/>
<path d="M1817.46 1106.13L1779.42 1102.85L1817.46 1099.58V1106.13Z" fill="white"/>
<path d="M1819.2 1111.99L1781.03 1108.72L1819.2 1105.44V1111.99Z" fill="white"/>
<path d="M1819.95 1117.85L1781.03 1114.57L1819.95 1111.3V1117.85Z" fill="white"/>
<path d="M1820.64 1123.74L1782.17 1120.47L1820.64 1117.2V1123.74Z" fill="white"/>
<path d="M1822.08 1129.6L1784.1 1126.33L1822.08 1123.06V1129.6Z" fill="white"/>
<path d="M1822.87 1135.46L1785.87 1132.19L1822.87 1128.92V1135.46Z" fill="white"/>
<path d="M1822.87 1141.36L1787.15 1138.08L1822.87 1134.81V1141.36Z" fill="white"/>
<path d="M1823.49 1147.22L1788.46 1143.94L1823.49 1140.67V1147.22Z" fill="white"/>
<path d="M1824.67 1153.08L1790.03 1149.81L1824.67 1146.53V1153.08Z" fill="white"/>
<path d="M1825.36 1158.97L1791.14 1155.7L1825.36 1152.42V1158.97Z" fill="white"/>
<path d="M1825.94 1164.83L1791.76 1161.56L1825.94 1158.28V1164.83Z" fill="white"/>
<path d="M1827.45 1170.7L1794.25 1167.42L1827.45 1164.15V1170.7Z" fill="white"/>
<path d="M1827.81 1176.59L1795.3 1173.31L1827.81 1170.04V1176.59Z" fill="white"/>
<path d="M1828.93 1182.45L1796.45 1179.17L1828.93 1175.9V1182.45Z" fill="white"/>
<path d="M1828.92 1188.31L1797.75 1185.04L1828.92 1181.76V1188.31Z" fill="white"/>
<path d="M1831.18 1194.2L1800.7 1190.93L1831.18 1187.65V1194.2Z" fill="white"/>
<path d="M1831.19 1200.06L1801.42 1196.79L1831.19 1193.51V1200.06Z" fill="white"/>
<path d="M1961.14 485.862L2009.85 489.136L1961.14 492.41V485.862Z" fill="white"/>
<path d="M1961.14 479.772L2009.85 483.046L1961.14 486.32V479.772Z" fill="white"/>
<path d="M1961.14 473.649L2009.85 476.923L1961.14 480.197V473.649Z" fill="white"/>
<path d="M1961.14 467.56L2009.85 470.834L1961.14 474.108V467.56Z" fill="white"/>
<path d="M1959.69 461.437L2009.85 464.711L1959.69 467.985V461.437Z" fill="white"/>
<path d="M1958.81 455.347L2006.06 458.621L1958.81 461.895V455.347Z" fill="white"/>
<path d="M1958.38 449.225L2006.25 452.499L1958.38 455.773V449.225Z" fill="white"/>
<path d="M1958.38 443.134L2003.53 446.408L1958.38 449.682V443.134Z" fill="white"/>
<path d="M1957.24 437.011L2003.54 440.286L1957.24 443.56V437.011Z" fill="white"/>
<path d="M1957.24 430.923L2002.65 434.197L1957.24 437.471V430.923Z" fill="white"/>
<path d="M1957.24 424.8L2001.74 428.074L1957.24 431.348V424.8Z" fill="white"/>
<path d="M1956.26 418.71L2001.05 421.984L1956.26 425.258V418.71Z" fill="white"/>
<path d="M1954.95 412.589L1999.84 415.863L1954.95 419.137V412.589Z" fill="white"/>
<path d="M1954.95 406.498L1998.86 409.772L1954.95 413.046V406.498Z" fill="white"/>
<path d="M1953.83 400.378L1998.85 403.652L1953.83 406.926V400.378Z" fill="white"/>
<path d="M1954.26 394.286L1996.82 397.56L1954.26 400.834V394.286Z" fill="white"/>
<path d="M1952.56 388.163L1995.77 391.437L1952.56 394.711V388.163Z" fill="white"/>
<path d="M1952.56 382.075L1994.69 385.349L1952.56 388.623V382.075Z" fill="white"/>
<path d="M1952.56 375.952L1993.61 379.226L1952.56 382.5V375.952Z" fill="white"/>
<path d="M1951.18 369.861L1992.5 373.135L1951.18 376.409V369.861Z" fill="white"/>
<path d="M1950.5 363.74L1991.59 367.014L1950.5 370.288V363.74Z" fill="white"/>
<path d="M1948.92 357.65L1990.21 360.924L1948.92 364.198V357.65Z" fill="white"/>
<path d="M1948.92 351.528L1988.9 354.802L1948.92 358.076V351.528Z" fill="white"/>
<path d="M1947.71 345.438L1988.9 348.712L1947.71 351.986V345.438Z" fill="white"/>
<path d="M1947.71 339.315L1986.84 342.589L1947.71 345.863V339.315Z" fill="white"/>
<path d="M1945.92 333.224L1985.5 336.498L1945.92 339.772V333.224Z" fill="white"/>
<path d="M1945.22 327.102L1984.09 330.376L1945.22 333.65V327.102Z" fill="white"/>
<path d="M1944.73 321.012L1983.04 324.286L1944.73 327.561V321.012Z" fill="white"/>
<path d="M1944.73 314.891L1981.46 318.165L1944.73 321.439V314.891Z" fill="white"/>
<path d="M1943.03 308.801L1980.13 312.075L1943.03 315.349V308.801Z" fill="white"/>
<path d="M1943.03 302.679L1978.78 305.953L1943.03 309.227V302.679Z" fill="white"/>
<path d="M1941.72 296.589L1977.41 299.863L1941.72 303.137V296.589Z" fill="white"/>
<path d="M1940.24 290.465L1976.39 293.739L1940.24 297.013V290.465Z" fill="white"/>
<path d="M1940.24 284.377L1974.82 287.651L1940.24 290.925V284.377Z" fill="white"/>
<path d="M1938.41 278.252L1973.54 281.526L1938.41 284.801V278.252Z" fill="white"/>
<path d="M1938.71 272.165L1972.34 275.439L1938.71 278.713V272.165Z" fill="white"/>
<path d="M1936.97 266.041L1970.17 269.315L1936.97 272.589V266.041Z" fill="white"/>
<path d="M1936.35 259.953L1968.66 263.227L1936.35 266.501V259.953Z" fill="white"/>
<path d="M1934.35 253.83L1967.42 257.104L1934.35 260.378V253.83Z" fill="white"/>
<path d="M1934.06 247.741L1965.59 251.015L1934.06 254.289V247.741Z" fill="white"/>
<path d="M1933.4 241.617L1963.98 244.891L1933.4 248.165V241.617Z" fill="white"/>
<path d="M1931.31 235.528L1962.38 238.802L1931.31 242.076V235.528Z" fill="white"/>
<path d="M1930.43 229.404L1960.78 232.678L1930.43 235.952V229.404Z" fill="white"/>
<path d="M1929.71 223.315L1959.14 226.589L1929.71 229.863V223.315Z" fill="white"/>
<path d="M1929.74 217.193L1957.47 220.467L1929.74 223.741V217.193Z" fill="white"/>
<path d="M1927.6 211.103L1955.76 214.377L1927.6 217.651V211.103Z" fill="white"/>
<path d="M1926.66 204.98L1954.36 208.255L1926.66 211.529V204.98Z" fill="white"/>
<path d="M1925.25 198.891L1952.33 202.165L1925.25 205.439V198.891Z" fill="white"/>
<path d="M1924.63 192.768L1950.56 196.042L1924.63 199.316V192.768Z" fill="white"/>
<path d="M1923.39 186.677L1948.76 189.951L1923.39 193.225V186.677Z" fill="white"/>
<path d="M1922.47 180.557L1946.96 183.831L1922.47 187.105V180.557Z" fill="white"/>
<path d="M1921.2 174.465L1945.13 177.739L1921.2 181.013V174.465Z" fill="white"/>
<path d="M1919.82 168.344L1944.04 171.618L1919.82 174.892V168.344Z" fill="white"/>
<path d="M1919.39 162.255L1941.95 165.529L1919.39 168.803V162.255Z" fill="white"/>
<path d="M1918.25 156.133L1939.49 159.407L1918.25 162.681V156.133Z" fill="white"/>
<path d="M1916.48 150.043L1937.86 153.317L1916.48 156.591V150.043Z" fill="white"/>
<path d="M1915.98 143.919L1935.95 147.193L1915.98 150.468V143.919Z" fill="white"/>
<path d="M1913.6 137.83L1933.7 141.104L1913.6 144.378V137.83Z" fill="white"/>
<path d="M1912.81 131.707L1931.67 134.981L1912.81 138.255V131.707Z" fill="white"/>
<path d="M1912.22 125.618L1929.64 128.892L1912.22 132.166V125.618Z" fill="white"/>
<path d="M1911.01 119.496L1927.05 122.77L1911.01 126.044V119.496Z" fill="white"/>
<path d="M1910.09 113.406L1925.51 116.68L1910.09 119.954V113.406Z" fill="white"/>
<path d="M1907.9 107.283L1923.85 110.557L1907.9 113.831V107.283Z" fill="white"/>
<path d="M1906.69 101.193L1921.98 104.467L1906.69 107.741V101.193Z" fill="white"/>
<path d="M1906.29 95.071L1919.29 98.3451L1906.29 101.619V95.071Z" fill="white"/>
<path d="M1903.78 88.9807L1917.4 92.2548L1903.78 95.5288V88.9807Z" fill="white"/>
<path d="M1902.5 82.8586L1914.32 86.1327L1902.5 89.4067V82.8586Z" fill="white"/>
<path d="M1901.02 76.77L1912.77 80.0441L1901.02 83.3181V76.77Z" fill="white"/>
<path d="M1900.11 70.6462L1910.09 73.9203L1900.11 77.1943V70.6462Z" fill="white"/>
<path d="M1898.21 64.5566L1907.9 67.8307L1898.21 71.1047V64.5566Z" fill="white"/>
<path d="M1897.16 58.4343L1905.9 61.7084L1897.16 64.9824V58.4343Z" fill="white"/>
<path d="M1895.49 52.3442L1903.77 55.6183L1895.49 58.8923V52.3442Z" fill="white"/>
<path d="M1893.4 46.2222L1901.03 49.4962L1893.4 52.7703V46.2222Z" fill="white"/>
<path d="M1893.3 40.1321L1899.35 43.4061L1893.3 46.6802V40.1321Z" fill="white"/>
<path d="M1890.81 34.01L1896.34 37.2841L1890.81 40.5581V34.01Z" fill="white"/>
<path d="M1890.09 27.9202L1894.42 31.1942L1890.09 34.4683V27.9202Z" fill="white"/>
<path d="M1888.38 21.7974L1892.08 25.0714L1888.38 28.3454V21.7974Z" fill="white"/>
<path d="M1886.62 15.7073L1889.1 18.9813L1886.62 22.2554V15.7073Z" fill="white"/>
<path d="M1961.14 491.722L2009.85 494.996L1961.14 498.27V491.722Z" fill="white"/>
<path d="M1961.14 497.614L2009.85 500.888L1961.14 504.162V497.614Z" fill="white"/>
<path d="M1962.58 503.474L2011.3 506.748L1962.58 510.022V503.474Z" fill="white"/>
<path d="M1963.04 509.337L2012.34 512.611L1963.04 515.885V509.337Z" fill="white"/>
<path d="M1963.04 515.23L2012.34 518.504L1963.04 521.778V515.23Z" fill="white"/>
<path d="M1963.39 521.089L2013.49 524.363L1963.39 527.637V521.089Z" fill="white"/>
<path d="M1963.72 526.951L2014.01 530.225L1963.72 533.499V526.951Z" fill="white"/>
<path d="M1964.02 532.843L2014.24 536.117L1964.02 539.391V532.843Z" fill="white"/>
<path d="M1965.16 538.705L2014.83 541.979L1965.16 545.253V538.705Z" fill="white"/>
<path d="M1965.16 544.566L2015.45 547.84L1965.16 551.114V544.566Z" fill="white"/>
<path d="M1965.16 550.459L2015.91 553.733L1965.16 557.007V550.459Z" fill="white"/>
<path d="M1965.16 556.319L2015.91 559.593L1965.16 562.867V556.319Z" fill="white"/>
<path d="M1965.39 562.179L2016.5 565.453L1965.39 568.727V562.179Z" fill="white"/>
<path d="M1965.62 568.072L2017.15 571.346L1965.62 574.62V568.072Z" fill="white"/>
<path d="M1965.85 573.934L2017.51 577.208L1965.85 580.482V573.934Z" fill="white"/>
<path d="M1966.04 579.794L2017.8 583.068L1966.04 586.342V579.794Z" fill="white"/>
<path d="M1966.4 585.688L2018.13 588.962L1966.4 592.236V585.688Z" fill="white"/>
<path d="M1966.4 591.548L2018.13 594.822L1966.4 598.096V591.548Z" fill="white"/>
<path d="M1967.26 597.406L2018.63 600.68L1967.26 603.954V597.406Z" fill="white"/>
<path d="M1967.2 603.301L2018.89 606.575L1967.2 609.849V603.301Z" fill="white"/>
<path d="M1967.42 609.161L2018.13 612.435L1967.42 615.709V609.161Z" fill="white"/>
<path d="M1966.73 615.022L2019.28 618.296L1966.73 621.57V615.022Z" fill="white"/>
<path d="M1966.73 620.915L2019.48 624.189L1966.73 627.463V620.915Z" fill="white"/>
<path d="M1966.8 626.775L2019.65 630.049L1966.8 633.323V626.775Z" fill="white"/>
<path d="M1966.8 632.635L2019.65 635.909L1966.8 639.183V632.635Z" fill="white"/>
<path d="M1967.2 638.529L2020.01 641.803L1967.2 645.077V638.529Z" fill="white"/>
<path d="M1967.26 644.39L2019.9 647.664L1967.26 650.938V644.39Z" fill="white"/>
<path d="M1967.2 650.249L2020.01 653.523L1967.2 656.797V650.249Z" fill="white"/>
<path d="M1967.42 656.144L2020 659.418L1967.42 662.692V656.144Z" fill="white"/>
<path d="M1967.42 662.005L2020 665.279L1967.42 668.553V662.005Z" fill="white"/>
<path d="M1967.42 667.865L2020 671.139L1967.42 674.413V667.865Z" fill="white"/>
<path d="M1967.42 673.759L2019.64 677.033L1967.42 680.307V673.759Z" fill="white"/>
<path d="M1967.2 679.619L2019.55 682.893L1967.2 686.167V679.619Z" fill="white"/>
<path d="M1967.26 685.479L2019.02 688.753L1967.26 692.027V685.479Z" fill="white"/>
<path d="M1967.42 691.373L2020 694.647L1967.42 697.921V691.373Z" fill="white"/>
<path d="M1967.42 697.234L2019.54 700.508L1967.42 703.782V697.234Z" fill="white"/>
<path d="M1967.26 703.094L2019.54 706.368L1967.26 709.642V703.094Z" fill="white"/>
<path d="M1967.2 708.988L2019.65 712.262L1967.2 715.536V708.988Z" fill="white"/>
<path d="M1966.8 714.848L2019.55 718.122L1966.8 721.396V714.848Z" fill="white"/>
<path d="M1967.42 720.708L2019.02 723.982L1967.42 727.256V720.708Z" fill="white"/>
<path d="M1966.73 726.602L2019.02 729.876L1966.73 733.15V726.602Z" fill="white"/>
<path d="M1967.42 732.461L2018.13 735.735L1967.42 739.01V732.461Z" fill="white"/>
<path d="M1966.8 738.323L2019.02 741.597L1966.8 744.871V738.323Z" fill="white"/>
<path d="M1966.73 744.216L2018.73 747.49L1966.73 750.764V744.216Z" fill="white"/>
<path d="M1967.42 750.076L2018.72 753.35L1967.42 756.624V750.076Z" fill="white"/>
<path d="M1966.5 755.937L2018.13 759.211L1966.5 762.485V755.937Z" fill="white"/>
<path d="M1966.5 761.829L2018.13 765.103L1966.5 768.377V761.829Z" fill="white"/>
<path d="M1966.5 767.689L2018.13 770.963L1966.5 774.237V767.689Z" fill="white"/>
<path d="M1966.5 773.551L2017.74 776.825L1966.5 780.099V773.551Z" fill="white"/>
<path d="M1966.5 779.446L2017.74 782.72L1966.5 785.994V779.446Z" fill="white"/>
<path d="M1966.5 785.305L2017.54 788.579L1966.5 791.853V785.305Z" fill="white"/>
<path d="M1965.75 791.166L2017.05 794.44L1965.75 797.714V791.166Z" fill="white"/>
<path d="M1965.59 797.059L2017.05 800.333L1965.59 803.607V797.059Z" fill="white"/>
<path d="M1965.42 802.919L2016.46 806.193L1965.42 809.468V802.919Z" fill="white"/>
<path d="M1964.87 808.781L2016.47 812.055L1964.87 815.329V808.781Z" fill="white"/>
<path d="M1965.42 814.672L2016.2 817.946L1965.42 821.22V814.672Z" fill="white"/>
<path d="M1964.7 820.534L2015.91 823.808L1964.7 827.082V820.534Z" fill="white"/>
<path d="M1964.7 826.394L2014.66 829.668L1964.7 832.942V826.394Z" fill="white"/>
<path d="M1964.51 832.289L2015.29 835.563L1964.51 838.837V832.289Z" fill="white"/>
<path d="M1964.31 838.147L2014.6 841.421L1964.31 844.695V838.147Z" fill="white"/>
<path d="M1964.08 844.009L2014.6 847.283L1964.08 850.557V844.009Z" fill="white"/>
<path d="M1964.31 849.904L2014.01 853.178L1964.31 856.452V849.904Z" fill="white"/>
<path d="M1964.31 855.764L2013.88 859.038L1964.31 862.312V855.764Z" fill="white"/>
<path d="M1963.36 861.623L2013.03 864.897L1963.36 868.171V861.623Z" fill="white"/>
<path d="M1963.13 867.517L2013.03 870.791L1963.13 874.065V867.517Z" fill="white"/>
<path d="M1962.9 873.377L2012.66 876.651L1962.9 879.925V873.377Z" fill="white"/>
<path d="M1962.34 879.238L2012.24 882.512L1962.34 885.786V879.238Z" fill="white"/>
<path d="M1962.34 885.131L2011.81 888.405L1962.34 891.679V885.131Z" fill="white"/>
<path d="M1961.14 890.993L2011.36 894.267L1961.14 897.541V890.993Z" fill="white"/>
<path d="M1961.14 896.852L2011.36 900.126L1961.14 903.4V896.852Z" fill="white"/>
<path d="M1961.14 902.746L2009.85 906.02L1961.14 909.294V902.746Z" fill="white"/>
<path d="M1961.14 908.606L2009.85 911.88L1961.14 915.154V908.606Z" fill="white"/>
<path d="M1961.14 914.467L2009.85 917.741L1961.14 921.015V914.467Z" fill="white"/>
<path d="M1961.14 920.359L2009.85 923.633L1961.14 926.907V920.359Z" fill="white"/>
<path d="M1961.14 926.22L2009.85 929.494L1961.14 932.768V926.22Z" fill="white"/>
<path d="M1961.14 932.081L2007.82 935.355L1961.14 938.629V932.081Z" fill="white"/>
<path d="M1959.53 937.974L2007.26 941.248L1959.53 944.522V937.974Z" fill="white"/>
<path d="M1959.21 943.835L2006.68 947.109L1959.21 950.383V943.835Z" fill="white"/>
<path d="M1958.81 949.694L2006.09 952.968L1958.81 956.242V949.694Z" fill="white"/>
<path d="M1958.45 955.587L2005.7 958.861L1958.45 962.135V955.587Z" fill="white"/>
<path d="M1958.06 961.449L2004.84 964.723L1958.06 967.997V961.449Z" fill="white"/>
<path d="M1957.66 967.31L2004.22 970.584L1957.66 973.858V967.31Z" fill="white"/>
<path d="M1956.82 973.201L2003.57 976.475L1956.82 979.749V973.201Z" fill="white"/>
<path d="M1956.82 979.063L2002.88 982.337L1956.82 985.611V979.063Z" fill="white"/>
<path d="M1956.42 984.922L1997.83 988.196L1956.42 991.47V984.922Z" fill="white"/>
<path d="M1955.93 990.818L2001.51 994.092L1955.93 997.366V990.818Z" fill="white"/>
<path d="M1955.53 996.677L2000.65 999.951L1955.53 1003.23V996.677Z" fill="white"/>
<path d="M1954.61 1002.54L2000.03 1005.81L1954.61 1009.09V1002.54Z" fill="white"/>
<path d="M1954.61 1008.43L1999.14 1011.71L1954.61 1014.98V1008.43Z" fill="white"/>
<path d="M1954.13 1014.29L1998.39 1017.57L1954.13 1020.84V1014.29Z" fill="white"/>
<path d="M1953.63 1020.15L1997.51 1023.43L1953.63 1026.7V1020.15Z" fill="white"/>
<path d="M1953.14 1026.05L1996.07 1029.32L1953.14 1032.59V1026.05Z" fill="white"/>
<path d="M1952.65 1031.91L1996.06 1035.18L1952.65 1038.46V1031.91Z" fill="white"/>
<path d="M1952.03 1037.77L1995.09 1041.04L1952.03 1044.32V1037.77Z" fill="white"/>
<path d="M1951.57 1043.66L1994.2 1046.93L1951.57 1050.21V1043.66Z" fill="white"/>
<path d="M1951.02 1049.52L1993.32 1052.79L1951.02 1056.07V1049.52Z" fill="white"/>
<path d="M1950.46 1055.38L1992.4 1058.65L1950.46 1061.93V1055.38Z" fill="white"/>
<path d="M1949.9 1061.27L1991.68 1064.55L1949.9 1067.82V1061.27Z" fill="white"/>
<path d="M1949.31 1067.14L1990.5 1070.41L1949.31 1073.68V1067.14Z" fill="white"/>
<path d="M1948.69 1072.99L1989.68 1076.27L1948.69 1079.54V1072.99Z" fill="white"/>
<path d="M1948.07 1078.89L1989.32 1082.16L1948.07 1085.43V1078.89Z" fill="white"/>
<path d="M1947.94 1084.75L1987.46 1088.02L1947.94 1091.3V1084.75Z" fill="white"/>
<path d="M1947.94 1090.61L1986.64 1093.88L1947.94 1097.16V1090.61Z" fill="white"/>
<path d="M1946.4 1096.5L1985.2 1099.78L1946.4 1103.05V1096.5Z" fill="white"/>
<path d="M1946.4 1102.36L1984.44 1105.64L1946.4 1108.91V1102.36Z" fill="white"/>
<path d="M1944.67 1108.22L1982.85 1111.5L1944.67 1114.77V1108.22Z" fill="white"/>
<path d="M1943.95 1114.12L1982.84 1117.39L1943.95 1120.66V1114.12Z" fill="white"/>
<path d="M1943.23 1119.98L1981.7 1123.25L1943.23 1126.53V1119.98Z" fill="white"/>
<path d="M1941.78 1125.84L1979.8 1129.11L1941.78 1132.39V1125.84Z" fill="white"/>
<path d="M1941.03 1131.73L1978.03 1135.01L1941.03 1138.28V1131.73Z" fill="white"/>
<path d="M1941.03 1137.59L1976.72 1140.87L1941.03 1144.14V1137.59Z" fill="white"/>
<path d="M1940.38 1143.45L1975.44 1146.73L1940.38 1150V1143.45Z" fill="white"/>
<path d="M1939.2 1149.35L1973.87 1152.62L1939.2 1155.9V1149.35Z" fill="white"/>
<path d="M1938.55 1155.21L1972.73 1158.48L1938.55 1161.75V1155.21Z" fill="white"/>
<path d="M1937.95 1161.07L1972.1 1164.34L1937.95 1167.62V1161.07Z" fill="white"/>
<path d="M1936.41 1166.96L1969.61 1170.23L1936.41 1173.51V1166.96Z" fill="white"/>
<path d="M1936.09 1172.82L1968.56 1176.09L1936.09 1179.37V1172.82Z" fill="white"/>
<path d="M1934.94 1178.68L1967.42 1181.95L1934.94 1185.23V1178.68Z" fill="white"/>
<path d="M1934.94 1184.57L1966.15 1187.85L1934.94 1191.12V1184.57Z" fill="white"/>
<path d="M1932.68 1190.44L1963.17 1193.71L1932.68 1196.98V1190.44Z" fill="white"/>
<path d="M1932.68 1196.3L1962.45 1199.57L1932.68 1202.84V1196.3Z" fill="white"/>
<path d="M1842.72 1204.87C1821.05 1055.35 1815.35 903.955 1812.47 753.054C1807.33 501.378 1827.76 248.721 1879.91 2.28397C1880.11 1.39997 1880.96 0.842972 1881.84 1.03941C1882.5 1.17038 1882.96 1.69464 1883.09 2.28397C1927.19 211.692 1949.16 425.847 1951.09 639.773C1951.78 778.199 1947.92 916.757 1937.01 1054.79C1932.99 1104.98 1927.85 1155.07 1920.31 1204.87C1923.98 1179.96 1926.93 1154.98 1929.61 1129.93C1944.41 979.651 1948.67 828.489 1949.22 677.523C1949.22 451.253 1926.96 224.362 1879.95 3.03693H1883.12C1819.08 298.519 1804.87 602.514 1818.39 903.955C1822.55 1004.5 1828.38 1105.18 1842.75 1204.84L1842.72 1204.87Z" fill="white"/>
<path d="M1851.92 1204.87C1814.46 805.177 1817.08 399.425 1879.88 2.38151C1880.04 1.49752 1880.86 0.908477 1881.74 1.03944C1882.46 1.1704 1882.99 1.7267 1883.09 2.38151C1915.01 200.887 1931.12 401.782 1934.49 602.743C1935.86 753.447 1933.02 904.25 1923.88 1054.73C1920.77 1104.88 1916.87 1154.98 1911.05 1204.87C1916.61 1154.94 1920.25 1104.82 1923.06 1054.66C1931.18 904.184 1933.93 753.415 1932.3 602.776C1928.6 402.044 1912.1 201.149 1879.88 2.97141H1883.09C1819.41 399.687 1817.02 805.21 1851.92 1204.87Z" fill="white"/>
<path d="M1861.77 1204.87C1842.88 906.051 1839.77 601.467 1855.71 302.514C1861.44 202.328 1868.91 102.273 1879.88 2.48042C1879.97 1.59643 1880.79 0.941814 1881.68 1.04003C1882.46 1.13826 1883.05 1.72739 1883.12 2.48042C1920.87 351.788 1923.78 703.879 1909.93 1054.66C1907.8 1104.79 1905.15 1154.88 1901.22 1204.87C1904.89 1154.85 1907.28 1104.75 1909.11 1054.63C1921.16 703.944 1918.48 351.952 1879.88 2.87369H1883.12C1861.44 202.23 1850.44 402.83 1847.95 603.333C1847.85 800.725 1848.8 1008 1861.77 1204.87Z" fill="white"/>
<path d="M1870.38 1204.87C1860.17 905.788 1856.96 602.055 1866.35 302.971C1869.53 202.786 1873.72 102.633 1879.88 2.57791C1879.94 1.69392 1880.69 1.00647 1881.61 1.03921C1882.43 1.10469 1883.08 1.7594 1883.15 2.57791C1901.39 302.775 1904.86 603.66 1900.67 904.315C1899.09 1004.53 1897.13 1104.75 1892.64 1204.87C1896.57 1104.72 1898.01 1004.5 1899.06 904.283C1901.22 703.846 1900.86 503.376 1893.95 303.07C1890.58 202.917 1886.23 102.764 1879.91 2.77455H1883.18C1858.2 402.11 1859.25 805.013 1870.41 1204.87H1870.38Z" fill="white"/>
<path d="M1877.29 1204.87C1871.37 805.7 1871.07 401.684 1879.85 2.64331C1879.85 1.72658 1880.6 1.03906 1881.52 1.03906C1882.4 1.03906 1883.09 1.75932 1883.12 2.64331C1887.54 202.982 1889.64 403.354 1889.93 603.758C1889.87 774.958 1886.98 1031.54 1885.67 1204.87C1886 1103.93 1886.79 851.275 1887.41 754.036C1888.79 503.572 1885.54 253.108 1879.85 2.70886H1883.12C1873.43 401.684 1873.89 805.733 1877.29 1204.87Z" fill="white"/>
<path d="M1989.66 584.932V459.994L1881.45 397.558L1773.27 459.994V584.932L1881.45 647.4L1989.66 584.932Z" fill="white"/>
<path d="M1881.48 445.851L1833.19 473.713V529.469L1881.48 557.332L1929.77 529.469V473.713L1881.48 445.851ZM1924.73 476.594C1924.99 476.594 1925.22 476.823 1925.22 477.085C1925.22 477.347 1924.99 477.576 1924.73 477.576C1924.47 477.576 1924.24 477.347 1924.24 477.085C1924.24 476.823 1924.47 476.594 1924.73 476.594ZM1924.73 483.077C1924.99 483.077 1925.22 483.306 1925.22 483.568C1925.22 483.83 1924.99 484.059 1924.73 484.059C1924.47 484.059 1924.24 483.83 1924.24 483.568C1924.24 483.306 1924.47 483.077 1924.73 483.077ZM1924.73 489.559C1924.99 489.559 1925.22 489.789 1925.22 490.051C1925.22 490.313 1924.99 490.541 1924.73 490.541C1924.47 490.541 1924.24 490.313 1924.24 490.051C1924.24 489.789 1924.47 489.559 1924.73 489.559ZM1924.73 496.042C1924.99 496.042 1925.22 496.271 1925.22 496.533C1925.22 496.795 1924.99 497.024 1924.73 497.024C1924.47 497.024 1924.24 496.795 1924.24 496.533C1924.24 496.271 1924.47 496.042 1924.73 496.042ZM1924.73 502.524C1924.99 502.524 1925.22 502.754 1925.22 503.016C1925.22 503.278 1924.99 503.507 1924.73 503.507C1924.47 503.507 1924.24 503.278 1924.24 503.016C1924.24 502.754 1924.47 502.524 1924.73 502.524ZM1924.73 509.007C1924.99 509.007 1925.22 509.236 1925.22 509.498C1925.22 509.76 1924.99 509.989 1924.73 509.989C1924.47 509.989 1924.24 509.76 1924.24 509.498C1924.24 509.236 1924.47 509.007 1924.73 509.007ZM1924.73 515.49C1924.99 515.49 1925.22 515.719 1925.22 515.981C1925.22 516.243 1924.99 516.472 1924.73 516.472C1924.47 516.472 1924.24 516.243 1924.24 515.981C1924.24 515.719 1924.47 515.49 1924.73 515.49ZM1924.73 521.973C1924.99 521.973 1925.22 522.201 1925.22 522.463C1925.22 522.725 1924.99 522.954 1924.73 522.954C1924.47 522.954 1924.24 522.725 1924.24 522.463C1924.24 522.201 1924.47 521.973 1924.73 521.973ZM1919.33 473.091C1919.82 473.091 1920.21 473.483 1920.21 473.975C1920.21 474.466 1919.82 474.859 1919.33 474.859C1918.84 474.859 1918.44 474.466 1918.44 473.975C1918.44 473.483 1918.84 473.091 1919.33 473.091ZM1919.33 479.573C1919.82 479.573 1920.21 479.966 1920.21 480.457C1920.21 480.948 1919.82 481.341 1919.33 481.341C1918.84 481.341 1918.44 480.948 1918.44 480.457C1918.44 479.966 1918.84 479.573 1919.33 479.573ZM1919.33 486.056C1919.82 486.056 1920.21 486.449 1920.21 486.94C1920.21 487.431 1919.82 487.824 1919.33 487.824C1918.84 487.824 1918.44 487.431 1918.44 486.94C1918.44 486.449 1918.84 486.056 1919.33 486.056ZM1919.33 492.539C1919.82 492.539 1920.21 492.932 1920.21 493.423C1920.21 493.914 1919.82 494.306 1919.33 494.306C1918.84 494.306 1918.44 493.914 1918.44 493.423C1918.44 492.932 1918.84 492.539 1919.33 492.539ZM1919.33 499.021C1919.82 499.021 1920.21 499.414 1920.21 499.906C1920.21 500.397 1919.82 500.79 1919.33 500.79C1918.84 500.79 1918.44 500.397 1918.44 499.906C1918.44 499.414 1918.84 499.021 1919.33 499.021ZM1919.33 505.504C1919.82 505.504 1920.21 505.897 1920.21 506.388C1920.21 506.879 1919.82 507.272 1919.33 507.272C1918.84 507.272 1918.44 506.879 1918.44 506.388C1918.44 505.897 1918.84 505.504 1919.33 505.504ZM1919.33 511.987C1919.82 511.987 1920.21 512.38 1920.21 512.871C1920.21 513.362 1919.82 513.755 1919.33 513.755C1918.84 513.755 1918.44 513.362 1918.44 512.871C1918.44 512.38 1918.84 511.987 1919.33 511.987ZM1919.33 518.469C1919.82 518.469 1920.21 518.862 1920.21 519.353C1920.21 519.844 1919.82 520.237 1919.33 520.237C1918.84 520.237 1918.44 519.844 1918.44 519.353C1918.44 518.862 1918.84 518.469 1919.33 518.469ZM1913.96 469.653C1914.65 469.653 1915.2 470.21 1915.2 470.897C1915.2 471.585 1914.65 472.142 1913.96 472.142C1913.27 472.142 1912.72 471.585 1912.72 470.897C1912.72 470.21 1913.27 469.653 1913.96 469.653ZM1913.96 476.136C1914.65 476.136 1915.2 476.692 1915.2 477.38C1915.2 478.067 1914.65 478.624 1913.96 478.624C1913.27 478.624 1912.72 478.067 1912.72 477.38C1912.72 476.692 1913.27 476.136 1913.96 476.136ZM1913.96 482.619C1914.65 482.619 1915.2 483.175 1915.2 483.862C1915.2 484.55 1914.65 485.107 1913.96 485.107C1913.27 485.107 1912.72 484.55 1912.72 483.862C1912.72 483.175 1913.27 482.619 1913.96 482.619ZM1913.96 489.101C1914.65 489.101 1915.2 489.657 1915.2 490.345C1915.2 491.032 1914.65 491.589 1913.96 491.589C1913.27 491.589 1912.72 491.032 1912.72 490.345C1912.72 489.657 1913.27 489.101 1913.96 489.101ZM1913.96 495.584C1914.65 495.584 1915.2 496.14 1915.2 496.827C1915.2 497.515 1914.65 498.072 1913.96 498.072C1913.27 498.072 1912.72 497.515 1912.72 496.827C1912.72 496.14 1913.27 495.584 1913.96 495.584ZM1913.96 502.066C1914.65 502.066 1915.2 502.622 1915.2 503.31C1915.2 503.997 1914.65 504.554 1913.96 504.554C1913.27 504.554 1912.72 503.997 1912.72 503.31C1912.72 502.622 1913.27 502.066 1913.96 502.066ZM1913.96 508.549C1914.65 508.549 1915.2 509.106 1915.2 509.793C1915.2 510.481 1914.65 511.037 1913.96 511.037C1913.27 511.037 1912.72 510.481 1912.72 509.793C1912.72 509.106 1913.27 508.549 1913.96 508.549ZM1913.96 515.031C1914.65 515.031 1915.2 515.588 1915.2 516.276C1915.2 516.963 1914.65 517.52 1913.96 517.52C1913.27 517.52 1912.72 516.963 1912.72 516.276C1912.72 515.588 1913.27 515.031 1913.96 515.031ZM1908.56 466.248C1909.38 466.248 1910.06 466.936 1910.06 467.754C1910.06 468.573 1909.38 469.26 1908.56 469.26C1907.74 469.26 1907.05 468.573 1907.05 467.754C1907.05 466.936 1907.74 466.248 1908.56 466.248ZM1908.56 472.731C1909.38 472.731 1910.06 473.418 1910.06 474.237C1910.06 475.055 1909.38 475.743 1908.56 475.743C1907.74 475.743 1907.05 475.055 1907.05 474.237C1907.05 473.418 1907.74 472.731 1908.56 472.731ZM1908.56 479.213C1909.38 479.213 1910.06 479.901 1910.06 480.719C1910.06 481.538 1909.38 482.225 1908.56 482.225C1907.74 482.225 1907.05 481.538 1907.05 480.719C1907.05 479.901 1907.74 479.213 1908.56 479.213ZM1908.56 485.696C1909.38 485.696 1910.06 486.383 1910.06 487.202C1910.06 488.02 1909.38 488.708 1908.56 488.708C1907.74 488.708 1907.05 488.02 1907.05 487.202C1907.05 486.383 1907.74 485.696 1908.56 485.696ZM1908.56 492.178C1909.38 492.178 1910.06 492.866 1910.06 493.684C1910.06 494.503 1909.38 495.19 1908.56 495.19C1907.74 495.19 1907.05 494.503 1907.05 493.684C1907.05 492.866 1907.74 492.178 1908.56 492.178ZM1908.56 498.661C1909.38 498.661 1910.06 499.348 1910.06 500.167C1910.06 500.985 1909.38 501.673 1908.56 501.673C1907.74 501.673 1907.05 500.985 1907.05 500.167C1907.05 499.348 1907.74 498.661 1908.56 498.661ZM1908.56 505.144C1909.38 505.144 1910.06 505.831 1910.06 506.649C1910.06 507.468 1909.38 508.156 1908.56 508.156C1907.74 508.156 1907.05 507.468 1907.05 506.649C1907.05 505.831 1907.74 505.144 1908.56 505.144ZM1908.56 511.626C1909.38 511.626 1910.06 512.314 1910.06 513.132C1910.06 513.951 1909.38 514.639 1908.56 514.639C1907.74 514.639 1907.05 513.951 1907.05 513.132C1907.05 512.314 1907.74 511.626 1908.56 511.626ZM1903.19 462.941C1904.14 462.941 1904.89 463.695 1904.89 464.644C1904.89 465.594 1904.14 466.347 1903.19 466.347C1902.24 466.347 1901.49 465.594 1901.49 464.644C1901.49 463.695 1902.24 462.941 1903.19 462.941ZM1903.19 469.424C1904.14 469.424 1904.89 470.177 1904.89 471.127C1904.89 472.076 1904.14 472.829 1903.19 472.829C1902.24 472.829 1901.49 472.076 1901.49 471.127C1901.49 470.177 1902.24 469.424 1903.19 469.424ZM1903.19 475.907C1904.14 475.907 1904.89 476.66 1904.89 477.609C1904.89 478.559 1904.14 479.312 1903.19 479.312C1902.24 479.312 1901.49 478.559 1901.49 477.609C1901.49 476.66 1902.24 475.907 1903.19 475.907ZM1903.19 482.389C1904.14 482.389 1904.89 483.142 1904.89 484.092C1904.89 485.041 1904.14 485.794 1903.19 485.794C1902.24 485.794 1901.49 485.041 1901.49 484.092C1901.49 483.142 1902.24 482.389 1903.19 482.389ZM1903.19 488.872C1904.14 488.872 1904.89 489.625 1904.89 490.574C1904.89 491.524 1904.14 492.277 1903.19 492.277C1902.24 492.277 1901.49 491.524 1901.49 490.574C1901.49 489.625 1902.24 488.872 1903.19 488.872ZM1903.19 495.354C1904.14 495.354 1904.89 496.107 1904.89 497.057C1904.89 498.006 1904.14 498.759 1903.19 498.759C1902.24 498.759 1901.49 498.006 1901.49 497.057C1901.49 496.107 1902.24 495.354 1903.19 495.354ZM1903.19 501.837C1904.14 501.837 1904.89 502.59 1904.89 503.539C1904.89 504.489 1904.14 505.242 1903.19 505.242C1902.24 505.242 1901.49 504.489 1901.49 503.539C1901.49 502.59 1902.24 501.837 1903.19 501.837ZM1903.19 508.319C1904.14 508.319 1904.89 509.072 1904.89 510.022C1904.89 510.971 1904.14 511.724 1903.19 511.724C1902.24 511.724 1901.49 510.971 1901.49 510.022C1901.49 509.072 1902.24 508.319 1903.19 508.319ZM1897.79 459.667C1898.83 459.667 1899.65 460.518 1899.65 461.533C1899.65 462.548 1898.8 463.399 1897.79 463.399C1896.77 463.399 1895.92 462.548 1895.92 461.533C1895.92 460.518 1896.77 459.667 1897.79 459.667ZM1897.79 466.15C1898.83 466.15 1899.65 467.001 1899.65 468.016C1899.65 469.031 1898.8 469.882 1897.79 469.882C1896.77 469.882 1895.92 469.031 1895.92 468.016C1895.92 467.001 1896.77 466.15 1897.79 466.15ZM1897.79 472.633C1898.83 472.633 1899.65 473.484 1899.65 474.499C1899.65 475.514 1898.8 476.365 1897.79 476.365C1896.77 476.365 1895.92 475.514 1895.92 474.499C1895.92 473.484 1896.77 472.633 1897.79 472.633ZM1897.79 479.115C1898.83 479.115 1899.65 479.967 1899.65 480.981C1899.65 481.996 1898.8 482.847 1897.79 482.847C1896.77 482.847 1895.92 481.996 1895.92 480.981C1895.92 479.967 1896.77 479.115 1897.79 479.115ZM1897.79 485.598C1898.83 485.598 1899.65 486.449 1899.65 487.464C1899.65 488.479 1898.8 489.33 1897.79 489.33C1896.77 489.33 1895.92 488.479 1895.92 487.464C1895.92 486.449 1896.77 485.598 1897.79 485.598ZM1897.79 492.08C1898.83 492.08 1899.65 492.932 1899.65 493.947C1899.65 494.962 1898.8 495.813 1897.79 495.813C1896.77 495.813 1895.92 494.962 1895.92 493.947C1895.92 492.932 1896.77 492.08 1897.79 492.08ZM1897.79 498.563C1898.83 498.563 1899.65 499.414 1899.65 500.429C1899.65 501.444 1898.8 502.296 1897.79 502.296C1896.77 502.296 1895.92 501.444 1895.92 500.429C1895.92 499.414 1896.77 498.563 1897.79 498.563ZM1897.79 505.045C1898.83 505.045 1899.65 505.897 1899.65 506.912C1899.65 507.927 1898.8 508.778 1897.79 508.778C1896.77 508.778 1895.92 507.927 1895.92 506.912C1895.92 505.897 1896.77 505.045 1897.79 505.045ZM1892.42 456.459C1893.53 456.459 1894.41 457.342 1894.41 458.456C1894.41 459.569 1893.53 460.453 1892.42 460.453C1891.3 460.453 1890.42 459.569 1890.42 458.456C1890.42 457.342 1891.3 456.459 1892.42 456.459ZM1892.42 462.941C1893.53 462.941 1894.41 463.825 1894.41 464.938C1894.41 466.051 1893.53 466.936 1892.42 466.936C1891.3 466.936 1890.42 466.051 1890.42 464.938C1890.42 463.825 1891.3 462.941 1892.42 462.941ZM1892.42 469.424C1893.53 469.424 1894.41 470.308 1894.41 471.421C1894.41 472.534 1893.53 473.418 1892.42 473.418C1891.3 473.418 1890.42 472.534 1890.42 471.421C1890.42 470.308 1891.3 469.424 1892.42 469.424ZM1892.42 475.907C1893.53 475.907 1894.41 476.79 1894.41 477.903C1894.41 479.016 1893.53 479.901 1892.42 479.901C1891.3 479.901 1890.42 479.016 1890.42 477.903C1890.42 476.79 1891.3 475.907 1892.42 475.907ZM1892.42 482.389C1893.53 482.389 1894.41 483.273 1894.41 484.387C1894.41 485.5 1893.53 486.383 1892.42 486.383C1891.3 486.383 1890.42 485.5 1890.42 484.387C1890.42 483.273 1891.3 482.389 1892.42 482.389ZM1892.42 488.872C1893.53 488.872 1894.41 489.756 1894.41 490.869C1894.41 491.982 1893.53 492.866 1892.42 492.866C1891.3 492.866 1890.42 491.982 1890.42 490.869C1890.42 489.756 1891.3 488.872 1892.42 488.872ZM1892.42 495.354C1893.53 495.354 1894.41 496.239 1894.41 497.352C1894.41 498.465 1893.53 499.348 1892.42 499.348C1891.3 499.348 1890.42 498.465 1890.42 497.352C1890.42 496.239 1891.3 495.354 1892.42 495.354ZM1892.42 501.837C1893.53 501.837 1894.41 502.721 1894.41 503.834C1894.41 504.947 1893.53 505.831 1892.42 505.831C1891.3 505.831 1890.42 504.947 1890.42 503.834C1890.42 502.721 1891.3 501.837 1892.42 501.837ZM1887.05 453.283C1888.19 453.283 1889.11 454.2 1889.11 455.345C1889.11 456.491 1888.19 457.409 1887.05 457.409C1885.9 457.409 1884.98 456.491 1884.98 455.345C1884.98 454.2 1885.9 453.283 1887.05 453.283ZM1887.05 459.766C1888.19 459.766 1889.11 460.682 1889.11 461.828C1889.11 462.974 1888.19 463.891 1887.05 463.891C1885.9 463.891 1884.98 462.974 1884.98 461.828C1884.98 460.682 1885.9 459.766 1887.05 459.766ZM1887.05 466.248C1888.19 466.248 1889.11 467.165 1889.11 468.311C1889.11 469.456 1888.19 470.374 1887.05 470.374C1885.9 470.374 1884.98 469.456 1884.98 468.311C1884.98 467.165 1885.9 466.248 1887.05 466.248ZM1887.05 472.731C1888.19 472.731 1889.11 473.647 1889.11 474.793C1889.11 475.939 1888.19 476.856 1887.05 476.856C1885.9 476.856 1884.98 475.939 1884.98 474.793C1884.98 473.647 1885.9 472.731 1887.05 472.731ZM1887.05 479.213C1888.19 479.213 1889.11 480.13 1889.11 481.276C1889.11 482.422 1888.19 483.339 1887.05 483.339C1885.9 483.339 1884.98 482.422 1884.98 481.276C1884.98 480.13 1885.9 479.213 1887.05 479.213ZM1887.05 485.696C1888.19 485.696 1889.11 486.612 1889.11 487.758C1889.11 488.904 1888.19 489.821 1887.05 489.821C1885.9 489.821 1884.98 488.904 1884.98 487.758C1884.98 486.612 1885.9 485.696 1887.05 485.696ZM1887.05 492.178C1888.19 492.178 1889.11 493.096 1889.11 494.242C1889.11 495.387 1888.19 496.304 1887.05 496.304C1885.9 496.304 1884.98 495.387 1884.98 494.242C1884.98 493.096 1885.9 492.178 1887.05 492.178ZM1887.05 498.661C1888.19 498.661 1889.11 499.578 1889.11 500.724C1889.11 501.87 1888.19 502.786 1887.05 502.786C1885.9 502.786 1884.98 501.87 1884.98 500.724C1884.98 499.578 1885.9 498.661 1887.05 498.661ZM1881.64 450.139C1882.79 450.139 1883.71 451.057 1883.71 452.203C1883.71 453.348 1882.79 454.265 1881.64 454.265C1880.5 454.265 1879.58 453.348 1879.58 452.203C1879.58 451.057 1880.5 450.139 1881.64 450.139ZM1881.64 456.622C1882.79 456.622 1883.71 457.539 1883.71 458.685C1883.71 459.831 1882.79 460.747 1881.64 460.747C1880.5 460.747 1879.58 459.831 1879.58 458.685C1879.58 457.539 1880.5 456.622 1881.64 456.622ZM1881.64 463.105C1882.79 463.105 1883.71 464.022 1883.71 465.168C1883.71 466.314 1882.79 467.231 1881.64 467.231C1880.5 467.231 1879.58 466.314 1879.58 465.168C1879.58 464.022 1880.5 463.105 1881.64 463.105ZM1881.64 469.588C1882.79 469.588 1883.71 470.504 1883.71 471.65C1883.71 472.796 1882.79 473.713 1881.64 473.713C1880.5 473.713 1879.58 472.796 1879.58 471.65C1879.58 470.504 1880.5 469.588 1881.64 469.588ZM1881.64 476.07C1882.79 476.07 1883.71 476.987 1883.71 478.133C1883.71 479.279 1882.79 480.196 1881.64 480.196C1880.5 480.196 1879.58 479.279 1879.58 478.133C1879.58 476.987 1880.5 476.07 1881.64 476.07ZM1881.64 482.553C1882.79 482.553 1883.71 483.469 1883.71 484.615C1883.71 485.761 1882.79 486.678 1881.64 486.678C1880.5 486.678 1879.58 485.761 1879.58 484.615C1879.58 483.469 1880.5 482.553 1881.64 482.553ZM1881.64 489.036C1882.79 489.036 1883.71 489.952 1883.71 491.098C1883.71 492.244 1882.79 493.161 1881.64 493.161C1880.5 493.161 1879.58 492.244 1879.58 491.098C1879.58 489.952 1880.5 489.036 1881.64 489.036ZM1881.64 495.518C1882.79 495.518 1883.71 496.434 1883.71 497.58C1883.71 498.726 1882.79 499.643 1881.64 499.643C1880.5 499.643 1879.58 498.726 1879.58 497.58C1879.58 496.434 1880.5 495.518 1881.64 495.518ZM1876.28 453.054C1877.42 453.054 1878.34 453.97 1878.34 455.116C1878.34 456.262 1877.42 457.179 1876.28 457.179C1875.13 457.179 1874.21 456.262 1874.21 455.116C1874.21 453.97 1875.13 453.054 1876.28 453.054ZM1876.28 459.536C1877.42 459.536 1878.34 460.453 1878.34 461.599C1878.34 462.745 1877.42 463.662 1876.28 463.662C1875.13 463.662 1874.21 462.745 1874.21 461.599C1874.21 460.453 1875.13 459.536 1876.28 459.536ZM1876.28 466.019C1877.42 466.019 1878.34 466.935 1878.34 468.081C1878.34 469.227 1877.42 470.144 1876.28 470.144C1875.13 470.144 1874.21 469.227 1874.21 468.081C1874.21 466.935 1875.13 466.019 1876.28 466.019ZM1876.28 472.501C1877.42 472.501 1878.34 473.419 1878.34 474.564C1878.34 475.71 1877.42 476.627 1876.28 476.627C1875.13 476.627 1874.21 475.71 1874.21 474.564C1874.21 473.419 1875.13 472.501 1876.28 472.501ZM1876.28 478.984C1877.42 478.984 1878.34 479.901 1878.34 481.047C1878.34 482.193 1877.42 483.109 1876.28 483.109C1875.13 483.109 1874.21 482.193 1874.21 481.047C1874.21 479.901 1875.13 478.984 1876.28 478.984ZM1876.28 485.467C1877.42 485.467 1878.34 486.384 1878.34 487.53C1878.34 488.675 1877.42 489.592 1876.28 489.592C1875.13 489.592 1874.21 488.675 1874.21 487.53C1874.21 486.384 1875.13 485.467 1876.28 485.467ZM1876.28 491.949C1877.42 491.949 1878.34 492.866 1878.34 494.012C1878.34 495.158 1877.42 496.074 1876.28 496.074C1875.13 496.074 1874.21 495.158 1874.21 494.012C1874.21 492.866 1875.13 491.949 1876.28 491.949ZM1876.28 498.432C1877.42 498.432 1878.34 499.349 1878.34 500.495C1878.34 501.641 1877.42 502.557 1876.28 502.557C1875.13 502.557 1874.21 501.641 1874.21 500.495C1874.21 499.349 1875.13 498.432 1876.28 498.432ZM1870.87 456.23C1871.99 456.23 1872.87 457.114 1872.87 458.227C1872.87 459.34 1871.99 460.224 1870.87 460.224C1869.76 460.224 1868.88 459.34 1868.88 458.227C1868.88 457.114 1869.76 456.23 1870.87 456.23ZM1870.87 462.712C1871.99 462.712 1872.87 463.596 1872.87 464.71C1872.87 465.823 1871.99 466.706 1870.87 466.706C1869.76 466.706 1868.88 465.823 1868.88 464.71C1868.88 463.596 1869.76 462.712 1870.87 462.712ZM1870.87 469.195C1871.99 469.195 1872.87 470.079 1872.87 471.192C1872.87 472.305 1871.99 473.189 1870.87 473.189C1869.76 473.189 1868.88 472.305 1868.88 471.192C1868.88 470.079 1869.76 469.195 1870.87 469.195ZM1870.87 475.677C1871.99 475.677 1872.87 476.562 1872.87 477.675C1872.87 478.788 1871.99 479.671 1870.87 479.671C1869.76 479.671 1868.88 478.788 1868.88 477.675C1868.88 476.562 1869.76 475.677 1870.87 475.677ZM1870.87 482.16C1871.99 482.16 1872.87 483.044 1872.87 484.157C1872.87 485.27 1871.99 486.154 1870.87 486.154C1869.76 486.154 1868.88 485.27 1868.88 484.157C1868.88 483.044 1869.76 482.16 1870.87 482.16ZM1870.87 488.642C1871.99 488.642 1872.87 489.527 1872.87 490.64C1872.87 491.753 1871.99 492.636 1870.87 492.636C1869.76 492.636 1868.88 491.753 1868.88 490.64C1868.88 489.527 1869.76 488.642 1870.87 488.642ZM1870.87 495.125C1871.99 495.125 1872.87 496.009 1872.87 497.122C1872.87 498.235 1871.99 499.12 1870.87 499.12C1869.76 499.12 1868.88 498.235 1868.88 497.122C1868.88 496.009 1869.76 495.125 1870.87 495.125ZM1870.87 501.608C1871.99 501.608 1872.87 502.492 1872.87 503.605C1872.87 504.718 1871.99 505.602 1870.87 505.602C1869.76 505.602 1868.88 504.718 1868.88 503.605C1868.88 502.492 1869.76 501.608 1870.87 501.608ZM1865.5 459.438C1866.55 459.438 1867.37 460.29 1867.37 461.304C1867.37 462.319 1866.52 463.17 1865.5 463.17C1864.49 463.17 1863.64 462.319 1863.64 461.304C1863.64 460.29 1864.49 459.438 1865.5 459.438ZM1865.5 465.921C1866.55 465.921 1867.37 466.772 1867.37 467.787C1867.37 468.802 1866.52 469.653 1865.5 469.653C1864.49 469.653 1863.64 468.802 1863.64 467.787C1863.64 466.772 1864.49 465.921 1865.5 465.921ZM1865.5 472.403C1866.55 472.403 1867.37 473.255 1867.37 474.27C1867.37 475.284 1866.52 476.136 1865.5 476.136C1864.49 476.136 1863.64 475.284 1863.64 474.27C1863.64 473.255 1864.49 472.403 1865.5 472.403ZM1865.5 478.886C1866.55 478.886 1867.37 479.737 1867.37 480.752C1867.37 481.767 1866.52 482.619 1865.5 482.619C1864.49 482.619 1863.64 481.767 1863.64 480.752C1863.64 479.737 1864.49 478.886 1865.5 478.886ZM1865.5 485.368C1866.55 485.368 1867.37 486.22 1867.37 487.235C1867.37 488.25 1866.52 489.101 1865.5 489.101C1864.49 489.101 1863.64 488.25 1863.64 487.235C1863.64 486.22 1864.49 485.368 1865.5 485.368ZM1865.5 491.851C1866.55 491.851 1867.37 492.702 1867.37 493.717C1867.37 494.732 1866.52 495.584 1865.5 495.584C1864.49 495.584 1863.64 494.732 1863.64 493.717C1863.64 492.702 1864.49 491.851 1865.5 491.851ZM1865.5 498.334C1866.55 498.334 1867.37 499.185 1867.37 500.2C1867.37 501.215 1866.52 502.066 1865.5 502.066C1864.49 502.066 1863.64 501.215 1863.64 500.2C1863.64 499.185 1864.49 498.334 1865.5 498.334ZM1865.5 504.817C1866.55 504.817 1867.37 505.667 1867.37 506.682C1867.37 507.697 1866.52 508.549 1865.5 508.549C1864.49 508.549 1863.64 507.697 1863.64 506.682C1863.64 505.667 1864.49 504.817 1865.5 504.817ZM1860.1 462.712C1861.05 462.712 1861.84 463.498 1861.84 464.447C1861.84 465.397 1861.05 466.183 1860.1 466.183C1859.15 466.183 1858.37 465.397 1858.37 464.447C1858.37 463.498 1859.15 462.712 1860.1 462.712ZM1860.1 469.195C1861.05 469.195 1861.84 469.98 1861.84 470.93C1861.84 471.879 1861.05 472.665 1860.1 472.665C1859.15 472.665 1858.37 471.879 1858.37 470.93C1858.37 469.98 1859.15 469.195 1860.1 469.195ZM1860.1 475.677C1861.05 475.677 1861.84 476.463 1861.84 477.412C1861.84 478.362 1861.05 479.148 1860.1 479.148C1859.15 479.148 1858.37 478.362 1858.37 477.412C1858.37 476.463 1859.15 475.677 1860.1 475.677ZM1860.1 482.16C1861.05 482.16 1861.84 482.946 1861.84 483.895C1861.84 484.845 1861.05 485.63 1860.1 485.63C1859.15 485.63 1858.37 484.845 1858.37 483.895C1858.37 482.946 1859.15 482.16 1860.1 482.16ZM1860.1 488.642C1861.05 488.642 1861.84 489.428 1861.84 490.378C1861.84 491.327 1861.05 492.113 1860.1 492.113C1859.15 492.113 1858.37 491.327 1858.37 490.378C1858.37 489.428 1859.15 488.642 1860.1 488.642ZM1860.1 495.125C1861.05 495.125 1861.84 495.911 1861.84 496.86C1861.84 497.81 1861.05 498.595 1860.1 498.595C1859.15 498.595 1858.37 497.81 1858.37 496.86C1858.37 495.911 1859.15 495.125 1860.1 495.125ZM1860.1 501.608C1861.05 501.608 1861.84 502.393 1861.84 503.343C1861.84 504.292 1861.05 505.078 1860.1 505.078C1859.15 505.078 1858.37 504.292 1858.37 503.343C1858.37 502.393 1859.15 501.608 1860.1 501.608ZM1860.1 508.091C1861.05 508.091 1861.84 508.876 1861.84 509.825C1861.84 510.775 1861.05 511.561 1860.1 511.561C1859.15 511.561 1858.37 510.775 1858.37 509.825C1858.37 508.876 1859.15 508.091 1860.1 508.091ZM1854.73 466.052C1855.58 466.052 1856.24 466.739 1856.24 467.558C1856.24 468.376 1855.55 469.064 1854.73 469.064C1853.91 469.064 1853.23 468.376 1853.23 467.558C1853.23 466.739 1853.91 466.052 1854.73 466.052ZM1854.73 472.534C1855.58 472.534 1856.24 473.222 1856.24 474.04C1856.24 474.859 1855.55 475.546 1854.73 475.546C1853.91 475.546 1853.23 474.859 1853.23 474.04C1853.23 473.222 1853.91 472.534 1854.73 472.534ZM1854.73 479.017C1855.58 479.017 1856.24 479.704 1856.24 480.523C1856.24 481.341 1855.55 482.029 1854.73 482.029C1853.91 482.029 1853.23 481.341 1853.23 480.523C1853.23 479.704 1853.91 479.017 1854.73 479.017ZM1854.73 485.499C1855.58 485.499 1856.24 486.187 1856.24 487.005C1856.24 487.824 1855.55 488.512 1854.73 488.512C1853.91 488.512 1853.23 487.824 1853.23 487.005C1853.23 486.187 1853.91 485.499 1854.73 485.499ZM1854.73 491.949C1855.58 491.949 1856.24 492.636 1856.24 493.455C1856.24 494.273 1855.55 494.962 1854.73 494.962C1853.91 494.962 1853.23 494.273 1853.23 493.455C1853.23 492.636 1853.91 491.949 1854.73 491.949ZM1854.73 498.432C1855.58 498.432 1856.24 499.12 1856.24 499.938C1856.24 500.757 1855.55 501.444 1854.73 501.444C1853.91 501.444 1853.23 500.757 1853.23 499.938C1853.23 499.12 1853.91 498.432 1854.73 498.432ZM1854.73 504.914C1855.58 504.914 1856.24 505.602 1856.24 506.421C1856.24 507.239 1855.55 507.927 1854.73 507.927C1853.91 507.927 1853.23 507.239 1853.23 506.421C1853.23 505.602 1853.91 504.914 1854.73 504.914ZM1854.73 511.397C1855.58 511.397 1856.24 512.085 1856.24 512.903C1856.24 513.722 1855.55 514.409 1854.73 514.409C1853.91 514.409 1853.23 513.722 1853.23 512.903C1853.23 512.085 1853.91 511.397 1854.73 511.397ZM1849.33 469.424C1850.02 469.424 1850.57 469.98 1850.57 470.668C1850.57 471.355 1850.02 471.912 1849.33 471.912C1848.64 471.912 1848.09 471.355 1848.09 470.668C1848.09 469.98 1848.64 469.424 1849.33 469.424ZM1849.33 475.907C1850.02 475.907 1850.57 476.463 1850.57 477.15C1850.57 477.838 1850.02 478.395 1849.33 478.395C1848.64 478.395 1848.09 477.838 1848.09 477.15C1848.09 476.463 1848.64 475.907 1849.33 475.907ZM1849.33 482.389C1850.02 482.389 1850.57 482.945 1850.57 483.633C1850.57 484.32 1850.02 484.877 1849.33 484.877C1848.64 484.877 1848.09 484.32 1848.09 483.633C1848.09 482.945 1848.64 482.389 1849.33 482.389ZM1849.33 488.872C1850.02 488.872 1850.57 489.429 1850.57 490.116C1850.57 490.804 1850.02 491.36 1849.33 491.36C1848.64 491.36 1848.09 490.804 1848.09 490.116C1848.09 489.429 1848.64 488.872 1849.33 488.872ZM1849.33 495.354C1850.02 495.354 1850.57 495.911 1850.57 496.599C1850.57 497.286 1850.02 497.842 1849.33 497.842C1848.64 497.842 1848.09 497.286 1848.09 496.599C1848.09 495.911 1848.64 495.354 1849.33 495.354ZM1849.33 501.837C1850.02 501.837 1850.57 502.394 1850.57 503.081C1850.57 503.769 1850.02 504.325 1849.33 504.325C1848.64 504.325 1848.09 503.769 1848.09 503.081C1848.09 502.394 1848.64 501.837 1849.33 501.837ZM1849.33 508.319C1850.02 508.319 1850.57 508.876 1850.57 509.564C1850.57 510.251 1850.02 510.808 1849.33 510.808C1848.64 510.808 1848.09 510.251 1848.09 509.564C1848.09 508.876 1848.64 508.319 1849.33 508.319ZM1849.33 514.802C1850.02 514.802 1850.57 515.359 1850.57 516.046C1850.57 516.734 1850.02 517.29 1849.33 517.29C1848.64 517.29 1848.09 516.734 1848.09 516.046C1848.09 515.359 1848.64 514.802 1849.33 514.802ZM1843.96 472.862C1844.48 472.862 1844.88 473.288 1844.88 473.779C1844.88 474.27 1844.45 474.695 1843.96 474.695C1843.47 474.695 1843.04 474.27 1843.04 473.779C1843.04 473.288 1843.47 472.862 1843.96 472.862ZM1843.96 479.344C1844.48 479.344 1844.88 479.77 1844.88 480.261C1844.88 480.752 1844.45 481.177 1843.96 481.177C1843.47 481.177 1843.04 480.752 1843.04 480.261C1843.04 479.77 1843.47 479.344 1843.96 479.344ZM1843.96 485.827C1844.48 485.827 1844.88 486.253 1844.88 486.744C1844.88 487.235 1844.45 487.661 1843.96 487.661C1843.47 487.661 1843.04 487.235 1843.04 486.744C1843.04 486.253 1843.47 485.827 1843.96 485.827ZM1843.96 492.31C1844.48 492.31 1844.88 492.735 1844.88 493.226C1844.88 493.717 1844.45 494.143 1843.96 494.143C1843.47 494.143 1843.04 493.717 1843.04 493.226C1843.04 492.735 1843.47 492.31 1843.96 492.31ZM1843.96 498.792C1844.48 498.792 1844.88 499.218 1844.88 499.709C1844.88 500.2 1844.45 500.626 1843.96 500.626C1843.47 500.626 1843.04 500.2 1843.04 499.709C1843.04 499.218 1843.47 498.792 1843.96 498.792ZM1843.96 505.275C1844.48 505.275 1844.88 505.7 1844.88 506.191C1844.88 506.683 1844.45 507.108 1843.96 507.108C1843.47 507.108 1843.04 506.683 1843.04 506.191C1843.04 505.7 1843.47 505.275 1843.96 505.275ZM1843.96 511.757C1844.48 511.757 1844.88 512.183 1844.88 512.674C1844.88 513.165 1844.45 513.591 1843.96 513.591C1843.47 513.591 1843.04 513.165 1843.04 512.674C1843.04 512.183 1843.47 511.757 1843.96 511.757ZM1843.96 518.24C1844.48 518.24 1844.88 518.665 1844.88 519.157C1844.88 519.648 1844.45 520.073 1843.96 520.073C1843.47 520.073 1843.04 519.648 1843.04 519.157C1843.04 518.665 1843.47 518.24 1843.96 518.24ZM1838.56 476.365C1838.85 476.365 1839.08 476.594 1839.08 476.889C1839.08 477.184 1838.85 477.412 1838.56 477.412C1838.26 477.412 1838.03 477.184 1838.03 476.889C1838.03 476.594 1838.26 476.365 1838.56 476.365ZM1838.56 482.847C1838.85 482.847 1839.08 483.077 1839.08 483.371C1839.08 483.666 1838.85 483.895 1838.56 483.895C1838.26 483.895 1838.03 483.666 1838.03 483.371C1838.03 483.077 1838.26 482.847 1838.56 482.847ZM1838.56 489.33C1838.85 489.33 1839.08 489.559 1839.08 489.854C1839.08 490.149 1838.85 490.378 1838.56 490.378C1838.26 490.378 1838.03 490.149 1838.03 489.854C1838.03 489.559 1838.26 489.33 1838.56 489.33ZM1838.56 495.813C1838.85 495.813 1839.08 496.042 1839.08 496.337C1839.08 496.631 1838.85 496.86 1838.56 496.86C1838.26 496.86 1838.03 496.631 1838.03 496.337C1838.03 496.042 1838.26 495.813 1838.56 495.813ZM1838.56 502.296C1838.85 502.296 1839.08 502.524 1839.08 502.819C1839.08 503.114 1838.85 503.343 1838.56 503.343C1838.26 503.343 1838.03 503.114 1838.03 502.819C1838.03 502.524 1838.26 502.296 1838.56 502.296ZM1838.56 508.778C1838.85 508.778 1839.08 509.007 1839.08 509.302C1839.08 509.596 1838.85 509.825 1838.56 509.825C1838.26 509.825 1838.03 509.596 1838.03 509.302C1838.03 509.007 1838.26 508.778 1838.56 508.778ZM1838.56 515.261C1838.85 515.261 1839.08 515.49 1839.08 515.784C1839.08 516.079 1838.85 516.309 1838.56 516.309C1838.26 516.309 1838.03 516.079 1838.03 515.784C1838.03 515.49 1838.26 515.261 1838.56 515.261ZM1838.56 521.743C1838.85 521.743 1839.08 521.972 1839.08 522.267C1839.08 522.561 1838.85 522.791 1838.56 522.791C1838.26 522.791 1838.03 522.561 1838.03 522.267C1838.03 521.972 1838.26 521.743 1838.56 521.743ZM1881.48 555.433L1836.5 529.469L1881.48 503.507L1926.43 529.469L1881.48 555.433Z" fill="#962EFF"/>
<path d="M1843.5 592.856C1841.89 592.856 1840.49 592.528 1839.31 591.841C1838.13 591.186 1837.21 590.171 1836.59 588.829C1835.97 587.486 1835.64 585.817 1835.64 583.819C1835.64 580.905 1836.29 578.679 1837.64 577.239C1838.98 575.798 1840.78 575.045 1843.1 575.045C1844.91 575.045 1846.38 575.438 1847.49 576.256C1848.61 577.075 1849.39 578.188 1849.85 579.563C1850.34 580.938 1850.54 582.51 1850.54 584.278H1836.88L1837.05 582.018H1848.93L1847.98 582.346C1847.92 580.644 1847.49 579.367 1846.71 578.516C1845.92 577.665 1844.71 577.271 1843.1 577.271C1841.99 577.271 1841.08 577.468 1840.32 577.893C1839.57 578.286 1839.05 579.007 1838.69 580.022C1838.33 581.037 1838.13 582.445 1838.13 584.278C1838.13 586.341 1838.62 587.912 1839.57 588.993C1840.52 590.073 1841.89 590.597 1843.63 590.597C1844.48 590.597 1845.23 590.531 1845.95 590.4C1846.64 590.269 1847.3 590.106 1847.89 589.877C1848.47 589.647 1849 589.386 1849.46 589.124V591.645C1848.64 592.038 1847.72 592.332 1846.74 592.528C1845.76 592.724 1844.68 592.823 1843.5 592.823V592.856Z" fill="#962EFF"/>
<path d="M1863.28 576.682C1863.83 576.42 1864.39 576.158 1864.95 575.962C1865.53 575.733 1866.12 575.568 1866.71 575.437C1867.3 575.306 1867.92 575.209 1868.55 575.143C1869.17 575.078 1869.79 575.045 1870.45 575.045C1872.12 575.045 1873.42 575.274 1874.41 575.765C1875.39 576.256 1876.08 576.976 1876.54 577.893C1876.99 578.81 1877.19 579.956 1877.19 581.265V592.332H1874.73V581.265C1874.73 580.872 1874.67 580.414 1874.57 579.956C1874.47 579.498 1874.28 579.072 1873.98 578.646C1873.69 578.22 1873.23 577.893 1872.61 577.632C1871.98 577.37 1871.17 577.238 1870.15 577.238C1869.43 577.238 1868.71 577.304 1867.96 577.402C1867.2 577.5 1866.45 577.697 1865.67 577.926V592.332H1863.21V576.715L1863.28 576.682Z" fill="#962EFF"/>
<path d="M1897.81 592.856C1895.16 592.856 1893.2 592.07 1891.92 590.499C1890.64 588.927 1889.99 586.733 1889.99 583.918C1889.99 581.102 1890.68 578.745 1892.02 577.271C1893.36 575.798 1895.29 575.045 1897.75 575.045C1899.58 575.045 1901.09 575.405 1902.23 576.158C1903.38 576.911 1904.23 577.926 1904.79 579.269C1905.34 580.611 1905.6 582.15 1905.6 583.918C1905.6 586.701 1904.92 588.894 1903.58 590.499C1902.23 592.103 1900.3 592.889 1897.81 592.889V592.856ZM1897.78 590.597C1899.16 590.597 1900.24 590.302 1901.02 589.68C1901.81 589.091 1902.33 588.272 1902.66 587.257C1902.99 586.242 1903.15 585.129 1903.15 583.852C1903.15 582.51 1902.99 581.364 1902.63 580.349C1902.3 579.366 1901.71 578.581 1900.96 578.057C1900.17 577.5 1899.12 577.239 1897.78 577.239C1896.44 577.239 1895.36 577.533 1894.57 578.123C1893.79 578.712 1893.26 579.498 1892.93 580.48C1892.61 581.462 1892.44 582.575 1892.44 583.819C1892.44 585.817 1892.84 587.421 1893.62 588.665C1894.41 589.909 1895.82 590.531 1897.78 590.531V590.597Z" fill="#962EFF"/>
<path d="M1918.37 592.332V576.715C1918.63 576.617 1919.16 576.42 1919.95 576.125C1920.73 575.83 1921.68 575.601 1922.76 575.372C1923.87 575.143 1924.99 575.045 1926.2 575.045C1926.39 575.045 1926.56 575.045 1926.75 575.111C1926.95 575.143 1927.12 575.209 1927.31 575.242V577.435C1926.72 577.37 1926.13 577.337 1925.58 577.337C1925.02 577.337 1924.5 577.337 1923.97 577.435C1923.45 577.501 1922.92 577.566 1922.4 577.665C1921.88 577.763 1921.35 577.86 1920.83 577.926V592.365H1918.37V592.332Z" fill="#962EFF"/>
<mask id="mask0_65_1618" style="mask-type:luminance" maskUnits="userSpaceOnUse" x="686" y="1288" width="2391" height="969">
<path d="M3076.54 1288H686.504V2256.39H3076.54V1288Z" fill="white"/>
</mask>
<g mask="url(#mask0_65_1618)">
<path opacity="0.5" d="M1880.92 950.53C1880.92 1610.16 1381.98 2144.9 766.504 2144.9V2256.39H2996.55V2144.9C2381.07 2144.9 1882.13 1610.16 1882.13 950.53" fill="white"/>
<path opacity="0.5" d="M2504.3 2256.39H1258.75C1633.11 2043.61 1880.79 1673.77 1880.79 1253.18H1882.25C1882.25 1673.77 2129.94 2043.61 2504.29 2256.39H2504.3Z" fill="white"/>
<path opacity="0.5" d="M2148.32 2256.39H1614.71C1782.67 2066.03 1880.67 1836.69 1880.67 1589.84H1882.35C1882.35 1836.69 1980.35 2066.03 2148.31 2256.39H2148.32Z" fill="white"/>
</g>
<path opacity="0.5" d="M1255.85 1557.23C1258.09 1546.35 1258.74 1534.95 1257.52 1523.31C1251.15 1462.42 1196.63 1418.22 1135.74 1424.59C1117.88 1426.46 1101.47 1432.49 1087.33 1441.6C1058.45 1363.57 979.554 1311.9 892.994 1320.95C833.724 1327.15 783.904 1360.48 754.454 1407.29C687.374 1347.97 596.614 1315.86 500.534 1325.91C344.714 1342.2 225.484 1464.05 206.414 1612.99C73.2736 1667.08 -13.8764 1804.21 1.82356 1954.3C20.8436 2136.24 183.754 2268.3 365.694 2249.28C521.514 2232.99 640.744 2111.14 659.814 1962.2C687.804 1950.83 713.754 1935.79 737.154 1917.72C780.124 1967.02 845.594 1995.37 915.584 1988.05C925.774 1986.98 935.694 1985.17 945.334 1982.72C989.744 2132.79 1136.04 2234.65 1297.31 2217.79C1479.25 2198.77 1611.31 2035.86 1592.29 1853.92C1574.23 1681.18 1426.46 1553.42 1255.86 1557.22L1255.85 1557.23ZM1066.82 1611.08C1068.77 1613.13 1070.78 1615.11 1072.88 1617.01C1063.25 1623.77 1054 1631.01 1045.18 1638.71C1044.98 1638.5 1044.78 1638.3 1044.58 1638.09C1052.82 1629.8 1060.26 1620.75 1066.82 1611.08Z" fill="white"/>
<path d="M1683.57 2256.39C1679.63 2209.89 1658.96 2164.67 1621.91 2130.58C1586.68 2098.16 1542.65 2081.32 1498.28 2079.68C1531.02 1995.81 1511.25 1896.84 1441.02 1832.2C1371.16 1767.9 1271.58 1756.18 1190.93 1795C1174.41 1768.82 1154.22 1744.35 1130.35 1722.39C984.654 1588.3 757.844 1597.71 623.754 1743.41C554.104 1819.09 523.194 1916.65 529.964 2011.74C418.204 1997.06 301.284 2035.15 219.154 2124.4C183.044 2163.64 157.434 2208.78 142.004 2256.39H1683.57Z" fill="white"/>
<path opacity="0.5" d="M2535.46 2021.86C2601.16 2078.27 2691.36 2087.59 2764.95 2052.98C2765.03 2053.47 2765.09 2053.96 2765.17 2054.44C2764.35 2056.74 2763.55 2059.04 2762.79 2061.36C2737.42 2060.5 2711.91 2070.72 2694.09 2091.48C2662.93 2127.77 2667.09 2182.44 2703.38 2213.6C2718.8 2226.84 2737.54 2233.68 2756.39 2234.41C2757.61 2239.3 2759 2244.16 2760.46 2249H3482.03C3498.46 2236.31 3513.88 2221.82 3527.94 2205.45C3639.52 2075.49 3624.62 1879.68 3494.66 1768.1C3386.79 1675.49 3233.57 1670.02 3120.79 1745.14C3112.5 1704.15 3091.01 1665.51 3056.82 1636.16C2975.25 1566.13 2852.36 1575.48 2782.32 1657.05C2778.47 1661.53 2774.88 1666.14 2771.51 1670.86C2685.86 1626.76 2578.1 1645.29 2512.6 1721.58C2435.99 1810.81 2446.21 1945.26 2535.45 2021.87L2535.46 2021.86Z" fill="white"/>
<path d="M2081.5 2256.39H3238.18C3242.43 2233.71 3244.68 2210.33 3244.68 2186.41C3244.68 2078.29 3199.21 1980.81 3126.37 1911.99C3152.16 1892.78 3168.87 1862.05 3168.87 1827.42C3168.87 1769.21 3121.68 1722.03 3063.48 1722.03C3005.28 1722.03 2962.15 1765.29 2958.37 1820.06C2929.18 1812.82 2898.66 1808.96 2867.24 1808.96C2804.32 1808.96 2745.01 1824.38 2692.85 1851.6C2659.7 1760.76 2572.54 1695.91 2470.24 1695.91C2339.4 1695.91 2233.34 1801.98 2233.34 1932.81C2233.34 1973.01 2243.37 2010.87 2261.04 2044.04C2163.12 2068.09 2089.17 2153.01 2081.52 2256.38L2081.5 2256.39Z" fill="white"/>
</svg>
