<svg width="333" height="240" viewBox="0 0 333 240" fill="none" xmlns="http://www.w3.org/2000/svg">
<path d="M152.061 236.165C215.067 236.165 266.144 185.088 266.144 122.082C266.144 59.0763 215.067 8 152.061 8C89.0551 8 37.9785 59.0763 37.9785 122.082C37.9785 185.088 89.0551 236.165 152.061 236.165Z" stroke="white" stroke-miterlimit="10" stroke-linecap="round"/>
<path d="M152.062 236.165C179.701 236.165 202.107 185.088 202.107 122.082C202.107 59.0763 179.701 8 152.062 8C124.423 8 102.018 59.0763 102.018 122.082C102.018 185.088 124.423 236.165 152.062 236.165Z" stroke="white" stroke-miterlimit="10" stroke-linecap="round"/>
<path d="M39.4199 122.081H264.726" stroke="white" stroke-miterlimit="10" stroke-linecap="round"/>
<path d="M55.7686 67.1548H248.784" stroke="white" stroke-miterlimit="10" stroke-linecap="round"/>
<path d="M53.418 176.998H251.136" stroke="white" stroke-miterlimit="10" stroke-linecap="round"/>
<path d="M246.26 41.114C291.203 20.2621 324.025 12.2634 330.751 22.7227C341.884 40.0407 277.371 101.352 186.658 159.68C95.9452 218.009 13.383 251.248 2.24931 233.94C-3.31754 225.286 10.0295 205.621 36.1063 180.836" stroke="white" stroke-miterlimit="10"/>
<path d="M216 16C213.084 16.0037 210.288 17.2879 208.226 19.5711C206.163 21.8543 205.003 24.9498 205 28.1787C205 32.5243 206.814 37.13 210.25 41.4991C211.794 43.4734 213.532 45.2512 215.431 46.7996C215.599 46.93 215.8 47 216.005 47C216.21 47 216.411 46.93 216.579 46.7996C218.475 45.2506 220.209 43.4728 221.75 41.4991C225.181 37.13 227 32.5243 227 28.1787C226.997 24.9498 225.837 21.8543 223.774 19.5711C221.712 17.2879 218.916 16.0037 216 16ZM216 44.5092C213.934 42.7101 207 36.1018 207 28.1787C207 25.536 207.948 23.0015 209.636 21.1328C211.324 19.2641 213.613 18.2143 216 18.2143C218.387 18.2143 220.676 19.2641 222.364 21.1328C224.052 23.0015 225 25.536 225 28.1787C225 36.099 218.066 42.7101 216 44.5092Z" fill="#962EFF"/>
<path d="M211.387 20.2646C211.387 19.9795 211.377 19.8129 211.603 19.6653C212.122 19.3255 212.732 19.2398 213.298 19.0252C214.096 18.7222 215.008 18.8261 215.843 18.7522C216.639 18.6817 217.278 18.8407 218.036 19.0723C218.943 19.3491 219.867 19.6882 220.649 20.2395C220.864 20.3909 221.062 20.4253 221.182 20.6976C221.395 21.1809 221.78 21.569 222.129 21.9339C222.213 22.0225 222.314 22.087 222.409 22.1598C222.54 22.2593 222.569 22.3955 222.664 22.527C222.994 22.9833 223.36 23.4319 223.625 23.939C223.947 24.5537 224.126 25.2216 224.407 25.8562C224.577 26.2391 224.651 26.5885 224.651 27.0171C224.651 27.6053 224.71 28.2298 224.64 28.8119C224.563 29.451 224.644 30.1013 224.597 30.7448C224.58 30.9882 224.355 31.1339 224.345 31.3347C224.329 31.657 224.15 31.9295 224.101 32.251C224.001 32.9146 223.706 33.5435 223.631 34.2089C223.591 34.5613 223.501 34.8474 223.35 35.1471C223.302 35.2433 223.309 35.3763 223.274 35.4829C223.243 35.5757 223.157 35.622 223.121 35.7119C222.996 36.0214 222.729 36.3274 222.531 36.5842C222.259 36.9379 221.92 37.276 221.732 37.6919C221.67 37.8286 221.412 37.9505 221.307 38.0433C221.165 38.1693 221.077 38.3755 220.975 38.5391C220.808 38.8083 220.609 39.0178 220.397 39.2419C220.289 39.3566 220.161 39.6686 220.031 39.7503C219.863 39.8567 219.785 40.1026 219.652 40.2586C219.551 40.3761 219.518 40.5335 219.397 40.6414C219.295 40.7316 219.175 40.794 219.079 40.8924C218.578 41.406 218.126 42.0043 217.662 42.5178C217.375 42.8354 217.061 42.9874 216.696 43.1642C216.122 43.4423 215.442 42.9583 214.953 42.6558C214.613 42.4461 214.257 42.3062 213.961 42.0377C213.846 41.9341 213.702 41.8831 213.587 41.7835C213.463 41.6773 213.433 41.5223 213.346 41.3882C213.198 41.1613 212.966 40.9877 212.841 40.7387C212.777 40.6103 212.651 40.6133 212.583 40.4563C212.504 40.2721 212.347 40.1054 212.229 39.9479C211.921 39.5354 211.606 39.1484 211.285 38.7462C211.046 38.4458 210.93 38.1811 210.775 37.8299C210.613 37.4601 210.418 37.1539 210.294 36.76C210.219 36.5252 210.068 36.3586 209.987 36.1293C209.66 35.1975 208.965 34.5093 208.888 33.4496C208.872 33.2328 208.793 33.0177 208.786 32.7907C208.773 32.4136 208.714 31.9875 208.604 31.6297C208.548 31.4461 208.582 31.2125 208.582 31.0209C208.582 30.763 208.539 30.513 208.505 30.2585C208.431 29.6983 208.415 29.1161 208.298 28.5641C208.148 27.8509 208.035 27.145 208.021 26.4084C208.003 25.4907 208.235 24.563 208.508 23.7005C208.616 23.3587 208.852 23.0145 209.047 22.7184C209.178 22.5181 209.392 22.3111 209.551 22.1347C209.711 21.958 209.842 21.7265 210.01 21.5668C210.448 21.1515 211.209 21.1062 211.762 20.9989C212.109 20.9315 212.442 20.9114 212.782 20.798C212.927 20.7497 213.021 20.6649 213.173 20.66C213.488 20.6497 213.83 20.4859 214.154 20.4466C214.641 20.3873 215.167 20.2646 215.656 20.2646C216.371 20.2646 216.899 20.6932 217.535 20.9895C218.367 21.3775 219.37 21.3244 220.006 22.1536C220.2 22.4064 220.421 22.6293 220.621 22.8753C220.767 23.0549 220.962 23.1567 221.097 23.3459C221.346 23.6957 221.448 24.0861 221.59 24.4944C221.712 24.845 221.791 25.2127 221.893 25.5706C221.97 25.8391 221.929 26.1125 221.976 26.3864C222.018 26.6339 222.124 26.869 222.225 27.0924C222.31 27.2804 222.464 27.371 222.534 27.5725C222.679 27.9901 222.712 28.4895 222.752 28.9312C222.78 29.2376 222.74 29.5483 222.775 29.8537C222.81 30.1619 222.861 30.471 222.866 30.7825C222.874 31.3985 222.876 32.0179 222.866 32.6338C222.857 33.1824 222.538 33.6034 222.327 34.0709C222.215 34.318 222.161 34.5939 222.044 34.8396C221.903 35.1337 221.675 35.3446 221.488 35.599C221.328 35.8167 221.209 36.1147 221.023 36.3018C220.847 36.4789 220.632 36.5947 220.465 36.7882C220.033 37.2905 219.566 37.744 219.215 38.3257C218.865 38.9077 218.461 39.4379 218.11 40.0201C217.73 40.6508 216.852 40.7104 216.231 40.7104C215.649 40.7104 215.053 40.8338 214.658 40.2617C214.082 39.4273 213.627 38.4998 213.258 37.5287C213.104 37.122 212.977 36.6882 212.878 36.261C212.785 35.8569 212.583 35.5123 212.459 35.1189C212.34 34.7437 212.116 34.4375 212.011 34.0583C211.886 33.6053 211.684 33.1927 211.541 32.7467C211.422 32.3779 211.217 32.0495 211.113 31.6767C211.005 31.2911 210.917 30.9036 210.801 30.5189C210.667 30.0741 210.533 29.6405 210.418 29.1885C210.293 28.6925 210.27 28.1707 210.166 27.6667C209.955 26.6454 209.806 25.5491 209.806 24.5006C209.806 23.9056 209.963 23.3569 210.367 22.9443C210.689 22.6163 211.509 22.7299 211.886 22.7623C212.246 22.7931 212.559 22.9645 212.907 23.0447C213.089 23.0869 213.275 23.0836 213.456 23.1326C214.4 23.3868 215.104 23.6044 215.97 22.9788C216.263 22.7673 216.501 22.4673 216.857 22.4673C217.479 22.4673 218.026 22.6046 218.529 23.0447C219.069 23.5167 219.347 24.069 219.728 24.6889C220.075 25.2539 220.441 25.812 220.748 26.4178C220.935 26.785 221.16 27.1038 221.256 27.5192C221.323 27.8109 221.311 28.0758 221.341 28.3695C221.418 29.119 221.437 29.8451 221.437 30.6068C221.437 31.4623 221.437 32.3179 221.437 33.1735C221.437 33.3898 221.448 33.6103 221.437 33.8261C221.428 33.9939 221.181 34.2362 221.091 34.3721C220.517 35.2487 219.656 35.8351 219.088 36.7003C218.8 37.139 218.325 37.4268 217.957 37.7735C217.613 38.0972 217.217 38.3303 216.846 38.6081C216.565 38.8179 216.209 38.425 216.035 38.2253C215.549 37.6668 215.059 37.057 214.726 36.3677C214.458 35.8131 214.333 35.139 214.154 34.5415C214.017 34.0871 213.887 33.6235 213.774 33.1609C213.517 32.1071 213.244 31.0548 213.014 29.9949C212.708 28.5843 212.188 27.2218 211.98 25.784C211.92 25.374 211.745 24.9161 211.745 24.5006C211.745 24.0471 212.073 23.9958 212.453 23.9923C213.423 23.9835 214.371 23.8849 215.341 23.9327C216.038 23.967 216.741 23.9358 217.438 23.9358C217.674 23.9358 217.911 23.9358 218.147 23.9358C218.377 23.9358 217.947 24.183 217.917 24.1931C217.177 24.4482 216.421 24.7744 215.656 24.9117C215.04 25.0221 214.403 24.9781 213.791 25.0968C213.535 25.1464 213.429 25.2319 213.303 25.4733C213.262 25.5527 213.036 25.8938 213.179 25.9691C213.752 26.2723 214.548 26.1483 215.145 26.1009C216.554 25.9893 217.93 25.5986 219.346 25.5738C220.11 25.5603 219.055 25.6534 218.867 25.7055C217.726 26.0214 216.566 26.5934 215.503 27.1458C215.261 27.2716 214.822 27.4611 214.859 27.833C214.879 28.0334 215.065 28.297 215.219 28.3946C215.637 28.6589 216.288 28.5738 216.738 28.5421C217.601 28.4814 218.566 28.324 219.351 27.8894C219.399 27.8631 218.792 27.7988 218.694 27.8016C218.102 27.8185 217.463 28.3181 217.073 28.7743C216.738 29.1659 216.299 30.0038 216.636 30.5503C216.804 30.8216 217.313 30.9958 217.588 30.9958C218.558 30.9958 218.118 29.711 217.52 29.4395C216.983 29.1953 216.234 29.2494 215.709 29.4928C214.95 29.845 214.693 30.6241 215.001 31.4634C215.673 33.2932 219.371 32.9144 218.957 30.6695C218.844 30.0571 218.287 29.3663 217.682 29.4301C216.862 29.5165 216.354 30.6873 216.154 31.4477C215.874 32.516 216.305 33.5488 217.265 33.9548C218.17 34.3372 219.642 33.8756 220.088 32.8785C220.582 31.776 219.477 30.9516 218.711 30.544C217.646 29.9776 216.482 30.3891 215.962 31.592C215.499 32.662 215.343 34.2606 215.746 35.3825C215.951 35.9536 216.296 36.2055 216.704 35.7025C217.131 35.1765 217.526 34.5287 217.639 33.8199C217.661 33.6827 217.662 33.5443 217.662 33.4057C217.662 33.2676 217.662 33.6818 217.662 33.8199C217.662 34.2288 217.596 34.5631 217.934 34.7926C218.123 34.921 218.23 34.8209 218.427 34.7235" stroke="#962EFF" stroke-width="3" stroke-linecap="round"/>
<path d="M216 35C220.418 35 224 31.4183 224 27C224 22.5817 220.418 19 216 19C211.582 19 208 22.5817 208 27C208 31.4183 211.582 35 216 35Z" fill="#FFF7F7"/>
<path d="M205.253 15.6639L199.036 10.6293C198.607 10.2818 197.977 10.3479 197.629 10.7771C197.282 11.2064 197.348 11.836 197.777 12.1836L203.994 17.2182C204.424 17.5657 205.053 17.4996 205.401 17.0703C205.748 16.6411 205.682 16.0114 205.253 15.6639Z" fill="white"/>
<path d="M205.253 15.6639L199.036 10.6293C198.607 10.2818 197.977 10.3479 197.629 10.7771C197.282 11.2064 197.348 11.836 197.777 12.1836L203.994 17.2182C204.424 17.5657 205.053 17.4996 205.401 17.0703C205.748 16.6411 205.682 16.0114 205.253 15.6639Z" fill="white"/>
<path d="M232.994 10.6291L226.777 15.6636C226.348 16.0112 226.282 16.6409 226.629 17.0701C226.977 17.4993 227.607 17.5655 228.036 17.2179L234.253 12.1834C234.682 11.8358 234.748 11.2061 234.401 10.7769C234.053 10.3477 233.424 10.2815 232.994 10.6291Z" fill="white"/>
<path d="M232.994 10.6291L226.777 15.6636C226.348 16.0112 226.282 16.6409 226.629 17.0701C226.977 17.4993 227.607 17.5655 228.036 17.2179L234.253 12.1834C234.682 11.8358 234.748 11.2061 234.401 10.7769C234.053 10.3477 233.424 10.2815 232.994 10.6291Z" fill="white"/>
<path d="M226.541 3.78779L221.616 10.0919C221.276 10.5271 221.353 11.1555 221.788 11.4955C222.223 11.8356 222.852 11.7584 223.192 11.3232L228.117 5.01911C228.457 4.5839 228.38 3.95546 227.945 3.61544C227.509 3.27542 226.881 3.35258 226.541 3.78779Z" fill="white"/>
<path d="M226.541 3.78779L221.616 10.0919C221.276 10.5271 221.353 11.1555 221.788 11.4955C222.223 11.8356 222.852 11.7584 223.192 11.3232L228.117 5.01911C228.457 4.5839 228.38 3.95546 227.945 3.61544C227.509 3.27542 226.881 3.35258 226.541 3.78779Z" fill="white"/>
<path d="M210.117 10.0921L205.192 3.78801C204.852 3.3528 204.223 3.27564 203.788 3.61566C203.353 3.95568 203.276 4.58413 203.616 5.01933L208.541 11.3234C208.881 11.7586 209.51 11.8358 209.945 11.4958C210.38 11.1557 210.457 10.5273 210.117 10.0921Z" fill="white"/>
<path d="M210.117 10.0921L205.192 3.78801C204.852 3.3528 204.223 3.27564 203.788 3.61566C203.353 3.95568 203.276 4.58413 203.616 5.01933L208.541 11.3234C208.881 11.7586 209.51 11.8358 209.945 11.4958C210.38 11.1557 210.457 10.5273 210.117 10.0921Z" fill="white"/>
<path d="M217 9V1C217 0.447715 216.552 0 216 0C215.448 0 215 0.447715 215 1V9C215 9.55229 215.448 10 216 10C216.552 10 217 9.55229 217 9Z" fill="white"/>
<path d="M217 9V1C217 0.447715 216.552 0 216 0C215.448 0 215 0.447715 215 1V9C215 9.55229 215.448 10 216 10C216.552 10 217 9.55229 217 9Z" fill="white"/>
<g clip-path="url(#clip0_82_74)">
<path d="M229.641 168.487C227.547 168.49 225.54 169.412 224.059 171.051C222.579 172.69 221.746 174.913 221.744 177.231C221.744 180.351 223.046 183.658 225.513 186.794C226.621 188.212 227.869 189.488 229.233 190.6C229.353 190.693 229.497 190.744 229.645 190.744C229.792 190.744 229.936 190.693 230.057 190.6C231.418 189.488 232.663 188.211 233.769 186.794C236.233 183.658 237.539 180.351 237.539 177.231C237.536 174.913 236.703 172.69 235.223 171.051C233.742 169.412 231.735 168.49 229.641 168.487ZM229.641 188.955C228.158 187.664 223.18 182.919 223.18 177.231C223.18 175.334 223.86 173.514 225.072 172.172C226.284 170.831 227.927 170.077 229.641 170.077C231.355 170.077 232.998 170.831 234.21 172.172C235.422 173.514 236.103 175.334 236.103 177.231C236.103 182.917 231.125 187.664 229.641 188.955Z" fill="#962EFF"/>
<path d="M226.33 171.549C226.33 171.344 226.322 171.225 226.484 171.119C226.857 170.875 227.295 170.813 227.701 170.659C228.274 170.442 228.929 170.516 229.528 170.463C230.1 170.413 230.559 170.527 231.103 170.693C231.754 170.892 232.417 171.135 232.979 171.531C233.133 171.64 233.275 171.664 233.362 171.86C233.515 172.207 233.791 172.486 234.041 172.748C234.102 172.811 234.174 172.857 234.243 172.91C234.336 172.981 234.358 173.079 234.426 173.173C234.663 173.501 234.925 173.823 235.116 174.187C235.346 174.628 235.475 175.108 235.677 175.564C235.799 175.838 235.852 176.089 235.852 176.397C235.852 176.819 235.894 177.268 235.844 177.686C235.789 178.144 235.847 178.611 235.814 179.073C235.801 179.248 235.64 179.353 235.632 179.497C235.621 179.728 235.492 179.924 235.457 180.155C235.386 180.631 235.174 181.083 235.12 181.56C235.091 181.813 235.026 182.019 234.918 182.234C234.884 182.303 234.888 182.399 234.863 182.475C234.841 182.542 234.779 182.575 234.753 182.639C234.664 182.862 234.472 183.081 234.33 183.266C234.135 183.52 233.891 183.762 233.756 184.061C233.712 184.159 233.526 184.247 233.451 184.313C233.349 184.404 233.286 184.552 233.213 184.669C233.093 184.863 232.95 185.013 232.798 185.174C232.72 185.256 232.628 185.48 232.536 185.539C232.415 185.615 232.358 185.792 232.263 185.904C232.191 185.988 232.167 186.101 232.08 186.179C232.007 186.243 231.921 186.288 231.852 186.359C231.492 186.728 231.167 187.157 230.834 187.526C230.629 187.754 230.403 187.863 230.141 187.99C229.728 188.19 229.241 187.842 228.889 187.625C228.646 187.474 228.39 187.374 228.177 187.181C228.095 187.107 227.992 187.07 227.909 186.999C227.82 186.922 227.798 186.811 227.736 186.715C227.629 186.552 227.463 186.427 227.373 186.248C227.327 186.156 227.237 186.158 227.188 186.046C227.131 185.913 227.018 185.794 226.934 185.681C226.713 185.385 226.487 185.107 226.256 184.818C226.084 184.602 226.001 184.412 225.89 184.16C225.773 183.895 225.634 183.675 225.544 183.392C225.491 183.223 225.382 183.104 225.324 182.939C225.089 182.27 224.591 181.776 224.535 181.015C224.524 180.86 224.467 180.705 224.462 180.542C224.453 180.271 224.411 179.966 224.331 179.709C224.291 179.577 224.315 179.409 224.315 179.272C224.315 179.086 224.285 178.907 224.26 178.724C224.207 178.322 224.195 177.904 224.112 177.508C224.004 176.996 223.923 176.489 223.912 175.96C223.899 175.301 224.067 174.635 224.262 174.016C224.34 173.771 224.509 173.523 224.649 173.311C224.743 173.167 224.897 173.018 225.011 172.892C225.126 172.765 225.22 172.599 225.341 172.484C225.655 172.186 226.201 172.153 226.598 172.076C226.847 172.028 227.087 172.013 227.331 171.932C227.435 171.897 227.502 171.836 227.611 171.833C227.838 171.826 228.083 171.708 228.316 171.68C228.666 171.637 229.043 171.549 229.394 171.549C229.907 171.549 230.287 171.857 230.743 172.07C231.341 172.348 232.061 172.31 232.517 172.905C232.656 173.087 232.815 173.247 232.959 173.423C233.064 173.552 233.204 173.625 233.301 173.761C233.479 174.012 233.553 174.293 233.655 174.586C233.742 174.838 233.799 175.102 233.872 175.359C233.927 175.551 233.898 175.748 233.931 175.944C233.962 176.122 234.038 176.291 234.11 176.451C234.171 176.586 234.282 176.651 234.332 176.796C234.436 177.096 234.46 177.454 234.489 177.771C234.509 177.991 234.48 178.214 234.505 178.434C234.53 178.655 234.567 178.877 234.57 179.1C234.576 179.543 234.577 179.987 234.57 180.43C234.564 180.823 234.335 181.126 234.184 181.461C234.104 181.639 234.065 181.837 233.98 182.013C233.879 182.224 233.716 182.376 233.581 182.558C233.466 182.715 233.381 182.929 233.248 183.063C233.121 183.19 232.966 183.273 232.847 183.412C232.537 183.773 232.201 184.098 231.95 184.516C231.698 184.934 231.408 185.315 231.156 185.733C230.883 186.185 230.253 186.228 229.807 186.228C229.389 186.228 228.961 186.317 228.678 185.906C228.264 185.307 227.937 184.641 227.673 183.944C227.562 183.652 227.471 183.34 227.4 183.034C227.333 182.744 227.188 182.496 227.099 182.214C227.014 181.944 226.853 181.725 226.777 181.452C226.687 181.127 226.542 180.831 226.44 180.511C226.354 180.246 226.207 180.01 226.132 179.742C226.055 179.466 225.992 179.187 225.908 178.911C225.812 178.592 225.716 178.281 225.634 177.956C225.544 177.6 225.527 177.225 225.453 176.863C225.301 176.13 225.194 175.343 225.194 174.59C225.194 174.163 225.307 173.769 225.597 173.473C225.828 173.238 226.417 173.319 226.688 173.342C226.946 173.364 227.17 173.487 227.42 173.545C227.552 173.575 227.685 173.573 227.815 173.608C228.493 173.791 228.998 173.947 229.62 173.498C229.83 173.346 230.001 173.131 230.257 173.131C230.703 173.131 231.096 173.229 231.457 173.545C231.845 173.884 232.044 174.28 232.318 174.726C232.567 175.131 232.829 175.532 233.05 175.967C233.184 176.23 233.346 176.459 233.415 176.758C233.463 176.967 233.454 177.157 233.476 177.368C233.531 177.906 233.545 178.427 233.545 178.974C233.545 179.588 233.545 180.203 233.545 180.817C233.545 180.972 233.553 181.131 233.545 181.286C233.539 181.406 233.361 181.58 233.297 181.678C232.884 182.307 232.266 182.728 231.858 183.349C231.651 183.664 231.311 183.871 231.046 184.12C230.799 184.352 230.515 184.519 230.249 184.719C230.047 184.869 229.792 184.587 229.667 184.444C229.317 184.043 228.965 183.605 228.727 183.11C228.534 182.712 228.445 182.228 228.316 181.799C228.217 181.473 228.124 181.14 228.043 180.808C227.858 180.051 227.663 179.296 227.498 178.535C227.278 177.522 226.905 176.544 226.755 175.512C226.712 175.217 226.586 174.889 226.586 174.59C226.586 174.265 226.822 174.228 227.095 174.225C227.791 174.219 228.471 174.148 229.168 174.183C229.668 174.207 230.173 174.185 230.674 174.185C230.843 174.185 231.013 174.185 231.182 174.185C231.348 174.185 231.039 174.362 231.018 174.37C230.487 174.553 229.944 174.787 229.394 174.885C228.952 174.965 228.495 174.933 228.055 175.018C227.871 175.054 227.795 175.115 227.705 175.289C227.675 175.346 227.513 175.591 227.616 175.645C228.028 175.862 228.599 175.773 229.028 175.739C230.039 175.659 231.027 175.379 232.043 175.361C232.592 175.351 231.834 175.418 231.699 175.455C230.88 175.682 230.047 176.093 229.284 176.489C229.11 176.58 228.795 176.716 228.822 176.983C228.837 177.127 228.97 177.316 229.081 177.386C229.381 177.576 229.848 177.515 230.171 177.492C230.791 177.448 231.484 177.335 232.047 177.023C232.081 177.004 231.645 176.958 231.575 176.96C231.15 176.972 230.691 177.331 230.411 177.659C230.171 177.94 229.856 178.541 230.098 178.934C230.218 179.128 230.584 179.254 230.782 179.254C231.477 179.254 231.162 178.331 230.733 178.136C230.347 177.961 229.809 178 229.433 178.174C228.888 178.427 228.703 178.987 228.924 179.589C229.406 180.903 232.061 180.631 231.764 179.019C231.683 178.58 231.283 178.084 230.849 178.129C230.26 178.191 229.895 179.032 229.752 179.578C229.551 180.345 229.86 181.086 230.55 181.378C231.199 181.653 232.256 181.321 232.576 180.605C232.93 179.814 232.138 179.222 231.587 178.929C230.823 178.523 229.987 178.818 229.614 179.682C229.281 180.45 229.17 181.598 229.459 182.403C229.606 182.813 229.853 182.994 230.147 182.633C230.453 182.255 230.737 181.79 230.818 181.281C230.834 181.183 230.834 181.083 230.834 180.984C230.834 180.885 230.834 181.182 230.834 181.281C230.834 181.575 230.787 181.815 231.03 181.979C231.166 182.072 231.242 182 231.384 181.93" stroke="#962EFF" stroke-width="3" stroke-linecap="round"/>
<path d="M229.641 182.128C232.813 182.128 235.385 179.557 235.385 176.385C235.385 173.213 232.813 170.641 229.641 170.641C226.469 170.641 223.897 173.213 223.897 176.385C223.897 179.557 226.469 182.128 229.641 182.128Z" fill="#FFF7F7"/>
<path d="M221.925 168.246L217.462 164.632C217.154 164.382 216.702 164.429 216.452 164.738C216.202 165.046 216.25 165.498 216.558 165.747L221.022 169.362C221.33 169.611 221.782 169.564 222.031 169.256C222.281 168.948 222.234 168.496 221.925 168.246Z" fill="white"/>
<path d="M221.925 168.246L217.462 164.632C217.154 164.382 216.702 164.429 216.452 164.738C216.202 165.046 216.25 165.498 216.558 165.747L221.022 169.362C221.33 169.611 221.782 169.564 222.031 169.256C222.281 168.948 222.234 168.496 221.925 168.246Z" fill="white"/>
<path d="M241.842 164.631L237.378 168.246C237.07 168.495 237.023 168.948 237.272 169.256C237.522 169.564 237.974 169.611 238.282 169.362L242.746 165.747C243.054 165.498 243.101 165.046 242.852 164.738C242.602 164.429 242.15 164.382 241.842 164.631Z" fill="white"/>
<path d="M241.842 164.631L237.378 168.246C237.07 168.495 237.023 168.948 237.272 169.256C237.522 169.564 237.974 169.611 238.282 169.362L242.746 165.747C243.054 165.498 243.101 165.046 242.852 164.738C242.602 164.429 242.15 164.382 241.842 164.631Z" fill="white"/>
<path d="M237.209 159.719L233.673 164.245C233.429 164.558 233.484 165.009 233.797 165.253C234.109 165.497 234.56 165.442 234.804 165.129L238.341 160.603C238.585 160.291 238.529 159.84 238.217 159.596C237.904 159.351 237.453 159.407 237.209 159.719Z" fill="white"/>
<path d="M237.209 159.719L233.673 164.245C233.429 164.558 233.484 165.009 233.797 165.253C234.109 165.497 234.56 165.442 234.804 165.129L238.341 160.603C238.585 160.291 238.529 159.84 238.217 159.596C237.904 159.351 237.453 159.407 237.209 159.719Z" fill="white"/>
<path d="M225.418 164.246L221.881 159.72C221.637 159.407 221.186 159.352 220.874 159.596C220.561 159.84 220.506 160.291 220.75 160.604L224.286 165.13C224.53 165.442 224.981 165.497 225.294 165.253C225.606 165.009 225.662 164.558 225.418 164.246Z" fill="white"/>
<path d="M225.418 164.246L221.881 159.72C221.637 159.407 221.186 159.352 220.874 159.596C220.561 159.84 220.506 160.291 220.75 160.604L224.286 165.13C224.53 165.442 224.981 165.497 225.294 165.253C225.606 165.009 225.662 164.558 225.418 164.246Z" fill="white"/>
<path d="M230.359 163.462V157.718C230.359 157.321 230.037 157 229.641 157C229.244 157 228.923 157.321 228.923 157.718V163.462C228.923 163.858 229.244 164.179 229.641 164.179C230.037 164.179 230.359 163.858 230.359 163.462Z" fill="white"/>
<path d="M230.359 163.462V157.718C230.359 157.321 230.037 157 229.641 157C229.244 157 228.923 157.321 228.923 157.718V163.462C228.923 163.858 229.244 164.179 229.641 164.179C230.037 164.179 230.359 163.858 230.359 163.462Z" fill="white"/>
</g>
<g clip-path="url(#clip1_82_74)">
<path d="M72.4099 106.872C68.97 106.876 65.6723 108.391 63.24 111.084C60.8076 113.777 59.4395 117.428 59.4355 121.236C59.4355 126.362 61.5748 131.794 65.6279 136.947C67.449 139.276 69.4987 141.373 71.739 143.199C71.9374 143.353 72.1737 143.436 72.4158 143.436C72.658 143.436 72.8942 143.353 73.0926 143.199C75.3288 141.372 77.3745 139.275 79.192 136.947C83.2391 131.794 85.3843 126.362 85.3843 121.236C85.3804 117.428 84.0122 113.777 81.5798 111.084C79.1475 108.391 75.8498 106.876 72.4099 106.872ZM72.4099 140.498C69.9727 138.376 61.7945 130.581 61.7945 121.236C61.7945 118.119 62.9129 115.13 64.9036 112.926C66.8945 110.722 69.5946 109.483 72.4099 109.483C75.2252 109.483 77.9253 110.722 79.9162 112.926C81.9069 115.13 83.0253 118.119 83.0253 121.236C83.0253 130.578 74.8471 138.376 72.4099 140.498Z" fill="#962EFF"/>
<path d="M66.9694 111.902C66.9694 111.566 66.9575 111.369 67.2235 111.195C67.8361 110.794 68.5559 110.693 69.2225 110.44C70.1638 110.083 71.2401 110.205 72.2243 110.118C73.1633 110.035 73.9176 110.222 74.8116 110.496C75.8808 110.822 76.9707 111.222 77.8937 111.872C78.1471 112.051 78.3804 112.091 78.5222 112.413C78.7736 112.983 79.2276 113.44 79.6387 113.871C79.7385 113.975 79.8568 114.051 79.9695 114.137C80.1236 114.255 80.1583 114.415 80.2704 114.57C80.6593 115.109 81.0908 115.638 81.4036 116.236C81.7827 116.961 81.9946 117.749 82.3262 118.497C82.5263 118.949 82.6137 119.361 82.6137 119.866C82.6137 120.56 82.683 121.297 82.6004 121.983C82.5095 122.737 82.6051 123.504 82.5502 124.263C82.5295 124.55 82.2646 124.722 82.2526 124.959C82.2335 125.339 82.0223 125.66 81.9652 126.04C81.8474 126.822 81.499 127.564 81.4103 128.349C81.3633 128.765 81.2568 129.102 81.0794 129.456C81.0224 129.569 81.0303 129.726 80.9891 129.852C80.9531 129.961 80.8512 130.016 80.8086 130.122C80.662 130.487 80.3466 130.848 80.1133 131.151C79.7919 131.568 79.3922 131.967 79.1706 132.457C79.0978 132.618 78.7929 132.762 78.6692 132.872C78.5014 133.02 78.3983 133.263 78.2781 133.456C78.0803 133.774 77.8457 134.021 77.5961 134.285C77.4685 134.421 77.3172 134.789 77.1649 134.885C76.9665 135.011 76.8741 135.301 76.7171 135.485C76.5988 135.623 76.5597 135.809 76.4162 135.936C76.296 136.042 76.1551 136.116 76.0418 136.232C75.4509 136.838 74.9174 137.544 74.3704 138.149C74.0321 138.524 73.6609 138.703 73.2305 138.912C72.5532 139.24 71.7517 138.669 71.1747 138.312C70.7745 138.065 70.3543 137.9 70.0047 137.583C69.8698 137.461 69.6998 137.401 69.5635 137.283C69.4179 137.158 69.3826 136.975 69.2793 136.817C69.1048 136.549 68.8317 136.345 68.6843 136.051C68.6083 135.899 68.4601 135.903 68.3801 135.718C68.2863 135.5 68.1008 135.304 67.9622 135.118C67.5993 134.632 67.2276 134.175 66.8491 133.701C66.5665 133.346 66.4295 133.034 66.2475 132.62C66.0558 132.184 65.826 131.823 65.6792 131.358C65.5916 131.081 65.4131 130.885 65.3182 130.614C64.9321 129.515 64.1127 128.703 64.0211 127.453C64.0024 127.198 63.9097 126.944 63.9008 126.676C63.8859 126.231 63.8167 125.729 63.6868 125.307C63.6203 125.09 63.6602 124.815 63.6602 124.589C63.6602 124.285 63.6098 123.99 63.5698 123.69C63.4821 123.029 63.4631 122.342 63.3259 121.691C63.1485 120.85 63.0153 120.017 62.9982 119.148C62.977 118.066 63.2516 116.972 63.5732 115.954C63.7006 115.551 63.9789 115.145 64.2084 114.796C64.3635 114.56 64.6154 114.316 64.8033 114.108C64.9917 113.899 65.1463 113.626 65.3448 113.438C65.8611 112.948 66.7584 112.895 67.4107 112.768C67.8201 112.688 68.2136 112.665 68.6141 112.531C68.7848 112.474 68.8964 112.374 69.0754 112.368C69.4473 112.356 69.8508 112.163 70.232 112.117C70.8074 112.047 71.4271 111.902 72.0037 111.902C72.8474 111.902 73.4703 112.407 74.22 112.757C75.2018 113.215 76.3853 113.152 77.1348 114.13C77.3634 114.428 77.624 114.691 77.8602 114.981C78.0328 115.193 78.263 115.313 78.4218 115.536C78.7154 115.949 78.8361 116.409 79.0035 116.891C79.1472 117.304 79.2407 117.738 79.3611 118.16C79.4515 118.477 79.4029 118.799 79.4581 119.122C79.508 119.414 79.6332 119.692 79.7523 119.955C79.8524 120.177 80.034 120.284 80.1166 120.521C80.2877 121.014 80.3264 121.603 80.3741 122.124C80.407 122.485 80.36 122.852 80.4007 123.212C80.4418 123.576 80.5026 123.94 80.5077 124.308C80.5179 125.034 80.5195 125.765 80.5077 126.491C80.4973 127.138 80.1217 127.635 79.8726 128.186C79.7409 128.478 79.6769 128.803 79.5383 129.093C79.3725 129.44 79.104 129.689 78.8831 129.989C78.6941 130.245 78.5542 130.597 78.335 130.818C78.1274 131.026 77.8727 131.163 77.6764 131.391C77.1668 131.984 76.6154 132.519 76.2022 133.205C75.7888 133.891 75.3121 134.517 74.8985 135.203C74.4506 135.947 73.4153 136.017 72.6823 136.017C71.9958 136.017 71.2931 136.163 70.8271 135.488C70.1472 134.504 69.6105 133.41 69.1757 132.265C68.9936 131.785 68.8446 131.273 68.7278 130.769C68.6173 130.293 68.3795 129.886 68.233 129.422C68.0934 128.98 67.8286 128.619 67.7049 128.171C67.5572 127.637 67.3187 127.15 67.15 126.624C67.0104 126.189 66.7681 125.802 66.6452 125.362C66.5181 124.908 66.4141 124.45 66.2776 123.997C66.1196 123.472 65.9611 122.961 65.8263 122.428C65.6783 121.842 65.6515 121.227 65.5287 120.633C65.2801 119.428 65.1042 118.135 65.1042 116.898C65.1042 116.196 65.2889 115.549 65.766 115.063C66.1455 114.676 67.113 114.81 67.5578 114.848C67.9817 114.884 68.3509 115.086 68.7612 115.181C68.9769 115.231 69.1955 115.227 69.4097 115.285C70.5231 115.584 71.3528 115.841 72.3748 115.103C72.7203 114.854 73.0006 114.5 73.421 114.5C74.1543 114.5 74.7993 114.662 75.3933 115.181C76.0301 115.738 76.3582 116.389 76.8073 117.12C77.2166 117.787 77.6476 118.445 78.0106 119.16C78.2307 119.593 78.4959 119.969 78.6091 120.459C78.6886 120.803 78.6736 121.115 78.7093 121.462C78.8005 122.346 78.8229 123.202 78.8229 124.1C78.8229 125.109 78.8229 126.119 78.8229 127.128C78.8229 127.383 78.8363 127.643 78.8229 127.898C78.8127 128.095 78.5203 128.381 78.4152 128.542C77.7373 129.575 76.7221 130.267 76.0518 131.288C75.7119 131.805 75.1526 132.144 74.7181 132.553C74.3123 132.935 73.8456 133.21 73.4077 133.538C73.0768 133.785 72.6569 133.322 72.4516 133.086C71.8774 132.428 71.2995 131.708 70.9073 130.895C70.5916 130.241 70.4442 129.446 70.232 128.741C70.0707 128.205 69.9171 127.659 69.7841 127.113C69.4809 125.87 69.1593 124.629 68.8882 123.379C68.5275 121.715 67.914 120.108 67.6681 118.412C67.598 117.928 67.3906 117.388 67.3906 116.898C67.3906 116.363 67.7782 116.303 68.2263 116.299C69.3709 116.288 70.488 116.172 71.6327 116.228C72.4543 116.269 73.2838 116.232 74.1063 116.232C74.3849 116.232 74.6635 116.232 74.9419 116.232C75.2132 116.232 74.7061 116.524 74.6713 116.536C73.7987 116.836 72.9067 117.221 72.0037 117.383C71.2773 117.513 70.5267 117.461 69.8041 117.601C69.5023 117.66 69.3774 117.761 69.2292 118.045C69.1805 118.139 68.9141 118.541 69.0821 118.63C69.7589 118.988 70.697 118.842 71.402 118.786C73.0628 118.654 74.6868 118.193 76.356 118.164C77.2576 118.148 76.013 118.258 75.7911 118.319C74.4451 118.692 73.0769 119.367 71.8231 120.018C71.5377 120.167 71.0204 120.39 71.0644 120.829C71.0881 121.065 71.3069 121.376 71.4889 121.491C71.9817 121.803 72.7499 121.702 73.2806 121.665C74.2985 121.593 75.4369 121.408 76.3626 120.895C76.4187 120.864 75.7027 120.788 75.5871 120.792C74.8895 120.812 74.1349 121.401 73.6751 121.939C73.2803 122.401 72.762 123.389 73.1603 124.034C73.3581 124.354 73.9588 124.559 74.2834 124.559C75.4265 124.559 74.9079 123.044 74.2032 122.724C73.5694 122.436 72.6862 122.499 72.0672 122.786C71.1718 123.202 70.868 124.121 71.2315 125.111C72.0241 127.269 76.3861 126.822 75.898 124.174C75.7649 123.452 75.1073 122.637 74.3938 122.712C73.4268 122.814 72.8272 124.195 72.5921 125.092C72.2616 126.352 72.7696 127.57 73.9023 128.049C74.9693 128.5 76.7055 127.956 77.2318 126.78C77.8138 125.479 76.5114 124.507 75.6072 124.026C74.3508 123.358 72.9788 123.844 72.3648 125.262C71.8185 126.524 71.6354 128.41 72.1107 129.733C72.3526 130.407 72.7587 130.704 73.2405 130.111C73.7444 129.49 74.2096 128.726 74.3436 127.89C74.3695 127.728 74.3704 127.565 74.3704 127.402C74.3704 127.239 74.3704 127.727 74.3704 127.89C74.3704 128.372 74.2929 128.767 74.6913 129.037C74.9142 129.189 75.0396 129.071 75.2729 128.956" stroke="#962EFF" stroke-width="3" stroke-linecap="round"/>
<path d="M72.4105 129.282C77.6218 129.282 81.8464 125.057 81.8464 119.846C81.8464 114.635 77.6218 110.41 72.4105 110.41C67.1992 110.41 62.9746 114.635 62.9746 119.846C62.9746 125.057 67.1992 129.282 72.4105 129.282Z" fill="#FFF7F7"/>
<path d="M59.7341 106.475L52.401 100.537C51.8948 100.127 51.152 100.205 50.7421 100.712C50.3322 101.218 50.4102 101.961 50.9165 102.37L58.2495 108.309C58.7558 108.719 59.4985 108.641 59.9084 108.134C60.3184 107.628 60.2403 106.885 59.7341 106.475Z" fill="white"/>
<path d="M59.7341 106.475L52.401 100.537C51.8948 100.127 51.152 100.205 50.7421 100.712C50.3322 101.218 50.4102 101.961 50.9165 102.37L58.2495 108.309C58.7558 108.719 59.4985 108.641 59.9084 108.134C60.3184 107.628 60.2403 106.885 59.7341 106.475Z" fill="white"/>
<path d="M92.4548 100.537L85.1217 106.475C84.6155 106.885 84.5374 107.628 84.9474 108.134C85.3573 108.64 86.1 108.718 86.6063 108.308L93.9393 102.37C94.4456 101.96 94.5236 101.217 94.1137 100.711C93.7037 100.205 92.961 100.127 92.4548 100.537Z" fill="white"/>
<path d="M92.4548 100.537L85.1217 106.475C84.6155 106.885 84.5374 107.628 84.9474 108.134C85.3573 108.64 86.1 108.718 86.6063 108.308L93.9393 102.37C94.4456 101.96 94.5236 101.217 94.1137 100.711C93.7037 100.205 92.961 100.127 92.4548 100.537Z" fill="white"/>
<path d="M84.8431 92.4675L79.0338 99.9031C78.6327 100.416 78.7237 101.158 79.2371 101.559C79.7504 101.96 80.4916 101.869 80.8927 101.355L86.702 93.9198C87.103 93.4065 87.012 92.6652 86.4987 92.2642C85.9854 91.8631 85.2442 91.9542 84.8431 92.4675Z" fill="white"/>
<path d="M84.8431 92.4675L79.0338 99.9031C78.6327 100.416 78.7237 101.158 79.2371 101.559C79.7504 101.96 80.4916 101.869 80.8927 101.355L86.702 93.9198C87.103 93.4065 87.012 92.6652 86.4987 92.2642C85.9854 91.8631 85.2442 91.9542 84.8431 92.4675Z" fill="white"/>
<path d="M65.471 99.9036L59.6617 92.468C59.2607 91.9547 58.5194 91.8637 58.0061 92.2647C57.4928 92.6658 57.4018 93.407 57.8028 93.9204L63.6121 101.356C64.0132 101.869 64.7544 101.96 65.2677 101.559C65.7811 101.158 65.8721 100.417 65.471 99.9036Z" fill="white"/>
<path d="M65.471 99.9036L59.6617 92.468C59.2607 91.9547 58.5194 91.8637 58.0061 92.2647C57.4928 92.6658 57.4018 93.407 57.8028 93.9204L63.6121 101.356C64.0132 101.869 64.7544 101.96 65.2677 101.559C65.7811 101.158 65.8721 100.417 65.471 99.9036Z" fill="white"/>
<path d="M73.5898 98.6154V89.1795C73.5898 88.5281 73.0618 88 72.4104 88C71.7589 88 71.2309 88.5281 71.2309 89.1795V98.6154C71.2309 99.2668 71.7589 99.7949 72.4104 99.7949C73.0618 99.7949 73.5898 99.2668 73.5898 98.6154Z" fill="white"/>
<path d="M73.5898 98.6154V89.1795C73.5898 88.5281 73.0618 88 72.4104 88C71.7589 88 71.2309 88.5281 71.2309 89.1795V98.6154C71.2309 99.2668 71.7589 99.7949 72.4104 99.7949C73.0618 99.7949 73.5898 99.2668 73.5898 98.6154Z" fill="white"/>
</g>
<defs>
<clipPath id="clip0_82_74">
<rect width="28" height="33.7436" fill="white" transform="translate(216 157)"/>
</clipPath>
<clipPath id="clip1_82_74">
<rect width="46" height="55.4359" fill="white" transform="translate(50 88)"/>
</clipPath>
</defs>
</svg>
