<svg width="317" height="355" viewBox="0 0 317 355" fill="none" xmlns="http://www.w3.org/2000/svg">
<path d="M242.009 86.79L166.339 43.1001L90.6787 86.79" stroke="#962EFF" stroke-width="4.49" stroke-miterlimit="10" stroke-linecap="round"/>
<path d="M242.009 128.64L166.339 84.96L90.6787 128.64" stroke="#962EFF" stroke-width="4.49" stroke-miterlimit="10" stroke-linecap="round"/>
<path d="M242.009 170.5L166.339 126.82L90.6787 170.5" stroke="#962EFF" stroke-width="4.49" stroke-miterlimit="10" stroke-linecap="round"/>
<path d="M268.449 227.11V61.9497L166.339 3L64.2388 61.9497V227.11" stroke="#962EFF" stroke-width="4.49" stroke-miterlimit="10" stroke-linecap="round"/>
<g opacity="0.5">
<path d="M48.8187 145.23L13.9888 165.34" stroke="#962EFF" stroke-width="3" stroke-miterlimit="10" stroke-linecap="round"/>
<path d="M48.8187 164.5L13.9888 184.61" stroke="#962EFF" stroke-width="3" stroke-miterlimit="10" stroke-linecap="round"/>
<path d="M48.8187 183.77L13.9888 203.89" stroke="#962EFF" stroke-width="3" stroke-miterlimit="10" stroke-linecap="round"/>
<path d="M48.8186 126.77L1.80859 153.91V229.95" stroke="#962EFF" stroke-width="3" stroke-miterlimit="10" stroke-linecap="round"/>
</g>
<g opacity="0.25">
<path d="M279.789 180.31L305.609 195.21" stroke="#962EFF" stroke-width="3" stroke-miterlimit="10" stroke-linecap="round"/>
<path d="M279.789 194.59L305.609 209.5" stroke="#962EFF" stroke-width="3" stroke-miterlimit="10" stroke-linecap="round"/>
<path d="M279.789 208.87L305.609 223.78" stroke="#962EFF" stroke-width="3" stroke-miterlimit="10" stroke-linecap="round"/>
<path d="M279.789 166.63L314.629 186.74V243.09" stroke="#962EFF" stroke-width="3" stroke-miterlimit="10" stroke-linecap="round"/>
</g>
<g filter="url(#filter0_d_61_1162)">
<path d="M215.129 66.8799H118.789V163.22H215.129V66.8799Z" fill="white"/>
<path d="M215.129 66.8799H118.789V163.22H215.129V66.8799Z" stroke="#962EFF" stroke-width="2" stroke-miterlimit="10"/>
</g>
<path d="M189.768 92.2397H144.148V137.86H189.768V92.2397Z" stroke="#962EFF" stroke-width="2" stroke-miterlimit="10" stroke-linecap="round"/>
<path d="M184.039 97.98H149.879V132.14H184.039V97.98Z" stroke="#962EFF" stroke-width="2" stroke-miterlimit="10" stroke-linecap="round"/>
<path d="M155.409 92.2397V82.52" stroke="#962EFF" stroke-width="2" stroke-miterlimit="10" stroke-linecap="round"/>
<path d="M163.108 92.2397V82.52" stroke="#962EFF" stroke-width="2" stroke-miterlimit="10" stroke-linecap="round"/>
<path d="M170.809 92.2397V82.52" stroke="#962EFF" stroke-width="2" stroke-miterlimit="10" stroke-linecap="round"/>
<path d="M178.509 92.2397V82.52" stroke="#962EFF" stroke-width="2" stroke-miterlimit="10" stroke-linecap="round"/>
<path d="M155.409 147.59V137.87" stroke="#962EFF" stroke-width="2" stroke-miterlimit="10" stroke-linecap="round"/>
<path d="M163.108 147.59V137.87" stroke="#962EFF" stroke-width="2" stroke-miterlimit="10" stroke-linecap="round"/>
<path d="M170.809 147.59V137.87" stroke="#962EFF" stroke-width="2" stroke-miterlimit="10" stroke-linecap="round"/>
<path d="M178.509 147.59V137.87" stroke="#962EFF" stroke-width="2" stroke-miterlimit="10" stroke-linecap="round"/>
<path d="M189.769 103.5H199.489" stroke="#962EFF" stroke-width="2" stroke-miterlimit="10" stroke-linecap="round"/>
<path d="M189.769 111.21H199.489" stroke="#962EFF" stroke-width="2" stroke-miterlimit="10" stroke-linecap="round"/>
<path d="M189.769 118.91H199.489" stroke="#962EFF" stroke-width="2" stroke-miterlimit="10" stroke-linecap="round"/>
<path d="M189.769 126.61H199.489" stroke="#962EFF" stroke-width="2" stroke-miterlimit="10" stroke-linecap="round"/>
<path d="M134.429 103.5H144.149" stroke="#962EFF" stroke-width="2" stroke-miterlimit="10" stroke-linecap="round"/>
<path d="M134.429 111.21H144.149" stroke="#962EFF" stroke-width="2" stroke-miterlimit="10" stroke-linecap="round"/>
<path d="M134.429 118.91H144.149" stroke="#962EFF" stroke-width="2" stroke-miterlimit="10" stroke-linecap="round"/>
<path d="M134.429 126.61H144.149" stroke="#962EFF" stroke-width="2" stroke-miterlimit="10" stroke-linecap="round"/>
<g opacity="0.5">
<g filter="url(#filter1_d_61_1162)">
<path d="M215.129 186.65H118.789V282.99H215.129V186.65Z" fill="white"/>
<path d="M215.129 186.65H118.789V282.99H215.129V186.65Z" stroke="#962EFF" stroke-width="2" stroke-miterlimit="10"/>
</g>
<path d="M189.768 212.01H144.148V257.63H189.768V212.01Z" stroke="#962EFF" stroke-width="2" stroke-miterlimit="10" stroke-linecap="round"/>
<path d="M184.039 217.74H149.879V251.9H184.039V217.74Z" stroke="#962EFF" stroke-width="2" stroke-miterlimit="10" stroke-linecap="round"/>
<path d="M155.409 212.01V202.29" stroke="#962EFF" stroke-width="2" stroke-miterlimit="10" stroke-linecap="round"/>
<path d="M163.108 212.01V202.29" stroke="#962EFF" stroke-width="2" stroke-miterlimit="10" stroke-linecap="round"/>
<path d="M170.809 212.01V202.29" stroke="#962EFF" stroke-width="2" stroke-miterlimit="10" stroke-linecap="round"/>
<path d="M178.509 212.01V202.29" stroke="#962EFF" stroke-width="2" stroke-miterlimit="10" stroke-linecap="round"/>
<path d="M155.409 267.35V257.63" stroke="#962EFF" stroke-width="2" stroke-miterlimit="10" stroke-linecap="round"/>
<path d="M163.108 267.35V257.63" stroke="#962EFF" stroke-width="2" stroke-miterlimit="10" stroke-linecap="round"/>
<path d="M170.809 267.35V257.63" stroke="#962EFF" stroke-width="2" stroke-miterlimit="10" stroke-linecap="round"/>
<path d="M178.509 267.35V257.63" stroke="#962EFF" stroke-width="2" stroke-miterlimit="10" stroke-linecap="round"/>
<path d="M189.769 223.27H199.489" stroke="#962EFF" stroke-width="2" stroke-miterlimit="10" stroke-linecap="round"/>
<path d="M189.769 230.97H199.489" stroke="#962EFF" stroke-width="2" stroke-miterlimit="10" stroke-linecap="round"/>
<path d="M189.769 238.67H199.489" stroke="#962EFF" stroke-width="2" stroke-miterlimit="10" stroke-linecap="round"/>
<path d="M189.769 246.37H199.489" stroke="#962EFF" stroke-width="2" stroke-miterlimit="10" stroke-linecap="round"/>
<path d="M134.429 223.27H144.149" stroke="#962EFF" stroke-width="2" stroke-miterlimit="10" stroke-linecap="round"/>
<path d="M134.429 230.97H144.149" stroke="#962EFF" stroke-width="2" stroke-miterlimit="10" stroke-linecap="round"/>
<path d="M134.429 238.67H144.149" stroke="#962EFF" stroke-width="2" stroke-miterlimit="10" stroke-linecap="round"/>
<path d="M134.429 246.37H144.149" stroke="#962EFF" stroke-width="2" stroke-miterlimit="10" stroke-linecap="round"/>
</g>
<mask id="mask0_61_1162" style="mask-type:luminance" maskUnits="userSpaceOnUse" x="111" y="299" width="117" height="56">
<path d="M227.159 299.62H111.269V354.58H227.159V299.62Z" fill="white"/>
</mask>
<g mask="url(#mask0_61_1162)">
<g opacity="0.25">
<g filter="url(#filter2_d_61_1162)">
<path d="M215.129 306.41H118.789V402.75H215.129V306.41Z" fill="white"/>
<path d="M215.129 306.41H118.789V402.75H215.129V306.41Z" stroke="#962EFF" stroke-width="2" stroke-miterlimit="10"/>
</g>
<path d="M189.768 331.77H144.148V377.39H189.768V331.77Z" stroke="#962EFF" stroke-width="2" stroke-miterlimit="10" stroke-linecap="round"/>
<path d="M184.039 337.5H149.879V371.66H184.039V337.5Z" stroke="#962EFF" stroke-width="2" stroke-miterlimit="10" stroke-linecap="round"/>
<path d="M155.409 331.77V322.05" stroke="#962EFF" stroke-width="2" stroke-miterlimit="10" stroke-linecap="round"/>
<path d="M163.108 331.77V322.05" stroke="#962EFF" stroke-width="2" stroke-miterlimit="10" stroke-linecap="round"/>
<path d="M170.809 331.77V322.05" stroke="#962EFF" stroke-width="2" stroke-miterlimit="10" stroke-linecap="round"/>
<path d="M178.509 331.77V322.05" stroke="#962EFF" stroke-width="2" stroke-miterlimit="10" stroke-linecap="round"/>
<path d="M189.769 343.03H199.489" stroke="#962EFF" stroke-width="2" stroke-miterlimit="10" stroke-linecap="round"/>
<path d="M189.769 350.73H199.489" stroke="#962EFF" stroke-width="2" stroke-miterlimit="10" stroke-linecap="round"/>
<path d="M134.429 343.03H144.149" stroke="#962EFF" stroke-width="2" stroke-miterlimit="10" stroke-linecap="round"/>
<path d="M134.429 350.73H144.149" stroke="#962EFF" stroke-width="2" stroke-miterlimit="10" stroke-linecap="round"/>
</g>
</g>
<defs>
<filter id="filter0_d_61_1162" x="109.789" y="57.8799" width="118.34" height="118.34" filterUnits="userSpaceOnUse" color-interpolation-filters="sRGB">
<feFlood flood-opacity="0" result="BackgroundImageFix"/>
<feColorMatrix in="SourceAlpha" type="matrix" values="0 0 0 0 0 0 0 0 0 0 0 0 0 0 0 0 0 0 127 0" result="hardAlpha"/>
<feOffset dx="2" dy="2"/>
<feGaussianBlur stdDeviation="5"/>
<feColorMatrix type="matrix" values="0 0 0 0 0 0 0 0 0 0 0 0 0 0 0 0 0 0 0.25 0"/>
<feBlend mode="normal" in2="BackgroundImageFix" result="effect1_dropShadow_61_1162"/>
<feBlend mode="normal" in="SourceGraphic" in2="effect1_dropShadow_61_1162" result="shape"/>
</filter>
<filter id="filter1_d_61_1162" x="109.789" y="177.65" width="118.34" height="118.34" filterUnits="userSpaceOnUse" color-interpolation-filters="sRGB">
<feFlood flood-opacity="0" result="BackgroundImageFix"/>
<feColorMatrix in="SourceAlpha" type="matrix" values="0 0 0 0 0 0 0 0 0 0 0 0 0 0 0 0 0 0 127 0" result="hardAlpha"/>
<feOffset dx="2" dy="2"/>
<feGaussianBlur stdDeviation="5"/>
<feColorMatrix type="matrix" values="0 0 0 0 0 0 0 0 0 0 0 0 0 0 0 0 0 0 0.25 0"/>
<feBlend mode="normal" in2="BackgroundImageFix" result="effect1_dropShadow_61_1162"/>
<feBlend mode="normal" in="SourceGraphic" in2="effect1_dropShadow_61_1162" result="shape"/>
</filter>
<filter id="filter2_d_61_1162" x="109.789" y="297.41" width="118.34" height="118.34" filterUnits="userSpaceOnUse" color-interpolation-filters="sRGB">
<feFlood flood-opacity="0" result="BackgroundImageFix"/>
<feColorMatrix in="SourceAlpha" type="matrix" values="0 0 0 0 0 0 0 0 0 0 0 0 0 0 0 0 0 0 127 0" result="hardAlpha"/>
<feOffset dx="2" dy="2"/>
<feGaussianBlur stdDeviation="5"/>
<feColorMatrix type="matrix" values="0 0 0 0 0 0 0 0 0 0 0 0 0 0 0 0 0 0 0.25 0"/>
<feBlend mode="normal" in2="BackgroundImageFix" result="effect1_dropShadow_61_1162"/>
<feBlend mode="normal" in="SourceGraphic" in2="effect1_dropShadow_61_1162" result="shape"/>
</filter>
</defs>
</svg>
