<svg width="28" height="27" viewBox="0 0 28 27" fill="none" xmlns="http://www.w3.org/2000/svg">
<path d="M13.9297 26.0898C20.9271 26.0898 26.5996 20.4174 26.5996 13.4199C26.5996 6.42247 20.9271 0.75 13.9297 0.75C6.93224 0.75 1.25977 6.42247 1.25977 13.4199C1.25977 20.4174 6.93224 26.0898 13.9297 26.0898Z" stroke="#962EFF" stroke-miterlimit="10" stroke-linecap="round"/>
<path d="M13.9297 26.0898C17.0004 26.0898 19.4897 20.4174 19.4897 13.4199C19.4897 6.42247 17.0004 0.75 13.9297 0.75C10.859 0.75 8.36963 6.42247 8.36963 13.4199C8.36963 20.4174 10.859 26.0898 13.9297 26.0898Z" stroke="#962EFF" stroke-miterlimit="10" stroke-linecap="round"/>
<path d="M1.41992 13.4199H26.45" stroke="#962EFF" stroke-miterlimit="10" stroke-linecap="round"/>
<path d="M3.22998 7.31982H24.6799" stroke="#962EFF" stroke-miterlimit="10" stroke-linecap="round"/>
<path d="M2.96973 19.52H24.9397" stroke="#962EFF" stroke-miterlimit="10" stroke-linecap="round"/>
</svg>
