<svg width="354" height="249" viewBox="0 0 354 249" fill="none" xmlns="http://www.w3.org/2000/svg">
<path d="M161.98 243.63C228.304 243.63 282.07 189.864 282.07 123.54C282.07 57.2162 228.304 3.4502 161.98 3.4502C95.6563 3.4502 41.8901 57.2162 41.8901 123.54C41.8901 189.864 95.6563 243.63 161.98 243.63Z" stroke="#962EFF" stroke-width="5" stroke-miterlimit="10" stroke-linecap="round"/>
<path d="M161.98 243.63C191.075 243.63 214.66 189.864 214.66 123.54C214.66 57.2162 191.075 3.4502 161.98 3.4502C132.886 3.4502 109.3 57.2162 109.3 123.54C109.3 189.864 132.886 243.63 161.98 243.63Z" stroke="#962EFF" stroke-width="5" stroke-miterlimit="10" stroke-linecap="round"/>
<path d="M43.4004 123.54H280.571" stroke="#962EFF" stroke-width="5" stroke-miterlimit="10" stroke-linecap="round"/>
<path d="M60.6006 65.7202H263.781" stroke="#962EFF" stroke-width="5" stroke-miterlimit="10" stroke-linecap="round"/>
<path d="M58.1309 181.35H266.261" stroke="#962EFF" stroke-width="5" stroke-miterlimit="10" stroke-linecap="round"/>
<path d="M261.13 38.3101C308.44 16.3601 342.99 7.94025 350.07 18.9503C361.79 37.1803 293.88 101.72 198.39 163.12C102.9 224.52 15.9902 259.51 4.27018 241.29C-1.58982 232.18 12.4601 211.48 39.9101 185.39" stroke="#962EFF" stroke-width="5" stroke-miterlimit="10"/>
</svg>
